<mxfile host="app.diagrams.net" modified="2023-09-09T04:54:33.451Z" agent="Mozilla/5.0 (Macintosh; Intel Mac OS X 10_15_7) AppleWebKit/537.36 (KHTML, like Gecko) Chrome/115.0.0.0 Safari/537.36" etag="_0MXvJUl_ase9rJ5RiBR" version="21.7.2" type="github">
  <diagram name="第 1 页" id="RFWN3nxZIqKqcsWVm2nT">
    <mxGraphModel dx="2030" dy="654" grid="1" gridSize="10" guides="1" tooltips="1" connect="1" arrows="1" fold="1" page="1" pageScale="1" pageWidth="827" pageHeight="1169" math="0" shadow="0">
      <root>
        <mxCell id="0" />
        <mxCell id="1" parent="0" />
        <UserObject label="" plantUmlData="{&#xa;  &quot;data&quot;: &quot;@startuml\n!define RECTANGLE class\n\nactor User\nparticipant \&quot;身份认证和授权管理\&quot; as AuthModule\nparticipant \&quot;审计日志\&quot; as AuditLog\nparticipant \&quot;用户数据库\&quot; as UserDB\n\nUser -&gt; AuthModule: 提供凭据\nactivate AuthModule\nUser -&gt; AuthModule: 发起认证请求\nAuthModule -&gt; UserDB: 查询用户信息\nUserDB --&gt; AuthModule: 返回用户信息\nAuthModule -&gt; AuthModule: 身份认证\nAuthModule --&gt; User: 认证成功\nAuthModule -&gt; AuditLog: 记录成功认证\ndeactivate AuthModule\n\nUser -&gt; AuthModule: 请求访问资源\nactivate AuthModule\nAuthModule -&gt; AuthModule: 检查权限\nAuthModule --&gt; User: 授权成功\nAuthModule -&gt; AuditLog: 记录授权成功\ndeactivate AuthModule\n\nUser -&gt; AuthModule: 请求访问资源\nactivate AuthModule\nAuthModule -&gt; AuthModule: 检查权限\nAuthModule --&gt; User: 授权失败\nAuthModule -&gt; AuditLog: 记录授权失败\ndeactivate AuthModule\n\n@enduml\n&quot;,&#xa;  &quot;format&quot;: &quot;svg&quot;&#xa;}" id="M7jX5-5myOD5qC9-YFXW-25">
          <mxCell style="shape=image;noLabel=1;verticalAlign=top;aspect=fixed;imageAspect=0;image=data:image/svg+xml,PD94bWwgdmVyc2lvbj0iMS4wIiBlbmNvZGluZz0idXMtYXNjaWkiIHN0YW5kYWxvbmU9Im5vIj8+PHN2ZyB4bWxucz0iaHR0cDovL3d3dy53My5vcmcvMjAwMC9zdmciIHhtbG5zOnhsaW5rPSJodHRwOi8vd3d3LnczLm9yZy8xOTk5L3hsaW5rIiBjb250ZW50U3R5bGVUeXBlPSJ0ZXh0L2NzcyIgaGVpZ2h0PSI2MzdweCIgcHJlc2VydmVBc3BlY3RSYXRpbz0ibm9uZSIgc3R5bGU9IndpZHRoOjM3OXB4O2hlaWdodDo2MzdweDtiYWNrZ3JvdW5kOiNGRkZGRkY7IiB2ZXJzaW9uPSIxLjEiIHZpZXdCb3g9IjAgMCAzNzkgNjM3IiB3aWR0aD0iMzc5cHgiIHpvb21BbmRQYW49Im1hZ25pZnkiPjxkZWZzLz48Zz48cmVjdCBmaWxsPSIjRkZGRkZGIiBoZWlnaHQ9IjE4MC40ODQ0IiBzdHlsZT0ic3Ryb2tlOiMxODE4MTg7c3Ryb2tlLXdpZHRoOjEuMDsiIHdpZHRoPSIxMCIgeD0iMTI0IiB5PSIxMDkuODk4NCIvPjxyZWN0IGZpbGw9IiNGRkZGRkYiIGhlaWdodD0iOTYuNzQyMiIgc3R5bGU9InN0cm9rZTojMTgxODE4O3N0cm9rZS13aWR0aDoxLjA7IiB3aWR0aD0iMTAiIHg9IjEyNCIgeT0iMzE4LjI5NjkiLz48cmVjdCBmaWxsPSIjRkZGRkZGIiBoZWlnaHQ9Ijk2Ljc0MjIiIHN0eWxlPSJzdHJva2U6IzE4MTgxODtzdHJva2Utd2lkdGg6MS4wOyIgd2lkdGg9IjEwIiB4PSIxMjQiIHk9IjQ0Mi45NTMxIi8+PGxpbmUgc3R5bGU9InN0cm9rZTojMTgxODE4O3N0cm9rZS13aWR0aDowLjU7c3Ryb2tlLWRhc2hhcnJheTo1LjAsNS4wOyIgeDE9IjIyIiB4Mj0iMjIiIHkxPSI3OS45ODQ0IiB5Mj0iNTU3LjY5NTMiLz48bGluZSBzdHlsZT0ic3Ryb2tlOiMxODE4MTg7c3Ryb2tlLXdpZHRoOjAuNTtzdHJva2UtZGFzaGFycmF5OjUuMCw1LjA7IiB4MT0iMTI5IiB4Mj0iMTI5IiB5MT0iNzkuOTg0NCIgeTI9IjU1Ny42OTUzIi8+PGxpbmUgc3R5bGU9InN0cm9rZTojMTgxODE4O3N0cm9rZS13aWR0aDowLjU7c3Ryb2tlLWRhc2hhcnJheTo1LjAsNS4wOyIgeDE9IjI0NCIgeDI9IjI0NCIgeTE9Ijc5Ljk4NDQiIHkyPSI1NTcuNjk1MyIvPjxsaW5lIHN0eWxlPSJzdHJva2U6IzE4MTgxODtzdHJva2Utd2lkdGg6MC41O3N0cm9rZS1kYXNoYXJyYXk6NS4wLDUuMDsiIHgxPSIzMzEiIHgyPSIzMzEiIHkxPSI3OS45ODQ0IiB5Mj0iNTU3LjY5NTMiLz48dGV4dCBmaWxsPSIjMDAwMDAwIiBmb250LWZhbWlseT0ic2Fucy1zZXJpZiIgZm9udC1zaXplPSIxNCIgbGVuZ3RoQWRqdXN0PSJzcGFjaW5nIiB0ZXh0TGVuZ3RoPSIyOCIgeD0iNSIgeT0iNzguMjM0NCI+VXNlcjwvdGV4dD48ZWxsaXBzZSBjeD0iMjIiIGN5PSIxMy41IiBmaWxsPSIjRTJFMkYwIiByeD0iOCIgcnk9IjgiIHN0eWxlPSJzdHJva2U6IzE4MTgxODtzdHJva2Utd2lkdGg6MC41OyIvPjxwYXRoIGQ9Ik0yMiwyMS41IEwyMiw0OC41IE05LDI5LjUgTDM1LDI5LjUgTTIyLDQ4LjUgTDksNjMuNSBNMjIsNDguNSBMMzUsNjMuNSAiIGZpbGw9Im5vbmUiIHN0eWxlPSJzdHJva2U6IzE4MTgxODtzdHJva2Utd2lkdGg6MC41OyIvPjx0ZXh0IGZpbGw9IiMwMDAwMDAiIGZvbnQtZmFtaWx5PSJzYW5zLXNlcmlmIiBmb250LXNpemU9IjE0IiBsZW5ndGhBZGp1c3Q9InNwYWNpbmciIHRleHRMZW5ndGg9IjI4IiB4PSI1IiB5PSI1NjkuOTI5NyI+VXNlcjwvdGV4dD48ZWxsaXBzZSBjeD0iMjIiIGN5PSI1ODAuMTc5NyIgZmlsbD0iI0UyRTJGMCIgcng9IjgiIHJ5PSI4IiBzdHlsZT0ic3Ryb2tlOiMxODE4MTg7c3Ryb2tlLXdpZHRoOjAuNTsiLz48cGF0aCBkPSJNMjIsNTg4LjE3OTcgTDIyLDYxNS4xNzk3IE05LDU5Ni4xNzk3IEwzNSw1OTYuMTc5NyBNMjIsNjE1LjE3OTcgTDksNjMwLjE3OTcgTTIyLDYxNS4xNzk3IEwzNSw2MzAuMTc5NyAiIGZpbGw9Im5vbmUiIHN0eWxlPSJzdHJva2U6IzE4MTgxODtzdHJva2Utd2lkdGg6MC41OyIvPjxyZWN0IGZpbGw9IiNFMkUyRjAiIGhlaWdodD0iMjguOTg0NCIgcng9IjIuNSIgcnk9IjIuNSIgc3R5bGU9InN0cm9rZTojMTgxODE4O3N0cm9rZS13aWR0aDowLjU7IiB3aWR0aD0iMTQwIiB4PSI1OSIgeT0iNTAiLz48dGV4dCBmaWxsPSIjMDAwMDAwIiBmb250LWZhbWlseT0ic2Fucy1zZXJpZiIgZm9udC1zaXplPSIxNCIgbGVuZ3RoQWRqdXN0PSJzcGFjaW5nIiB0ZXh0TGVuZ3RoPSIxMjYiIHg9IjY2IiB5PSI3MC4yMzQ0Ij4mIzM2NTIzOyYjMjAyMjE7JiMzNTc0ODsmIzM1Nzc3OyYjMjE2NDQ7JiMyNTQ4MDsmIzI2NDM1OyYjMzE2NDk7JiMyOTcwMjs8L3RleHQ+PHJlY3QgZmlsbD0iI0UyRTJGMCIgaGVpZ2h0PSIyOC45ODQ0IiByeD0iMi41IiByeT0iMi41IiBzdHlsZT0ic3Ryb2tlOiMxODE4MTg7c3Ryb2tlLXdpZHRoOjAuNTsiIHdpZHRoPSIxNDAiIHg9IjU5IiB5PSI1NTYuNjk1MyIvPjx0ZXh0IGZpbGw9IiMwMDAwMDAiIGZvbnQtZmFtaWx5PSJzYW5zLXNlcmlmIiBmb250LXNpemU9IjE0IiBsZW5ndGhBZGp1c3Q9InNwYWNpbmciIHRleHRMZW5ndGg9IjEyNiIgeD0iNjYiIHk9IjU3Ni45Mjk3Ij4mIzM2NTIzOyYjMjAyMjE7JiMzNTc0ODsmIzM1Nzc3OyYjMjE2NDQ7JiMyNTQ4MDsmIzI2NDM1OyYjMzE2NDk7JiMyOTcwMjs8L3RleHQ+PHJlY3QgZmlsbD0iI0UyRTJGMCIgaGVpZ2h0PSIyOC45ODQ0IiByeD0iMi41IiByeT0iMi41IiBzdHlsZT0ic3Ryb2tlOiMxODE4MTg7c3Ryb2tlLXdpZHRoOjAuNTsiIHdpZHRoPSI3MCIgeD0iMjA5IiB5PSI1MCIvPjx0ZXh0IGZpbGw9IiMwMDAwMDAiIGZvbnQtZmFtaWx5PSJzYW5zLXNlcmlmIiBmb250LXNpemU9IjE0IiBsZW5ndGhBZGp1c3Q9InNwYWNpbmciIHRleHRMZW5ndGg9IjU2IiB4PSIyMTYiIHk9IjcwLjIzNDQiPiYjMjM0NTc7JiMzNTc0NTsmIzI2MDg1OyYjMjQ1MzU7PC90ZXh0PjxyZWN0IGZpbGw9IiNFMkUyRjAiIGhlaWdodD0iMjguOTg0NCIgcng9IjIuNSIgcnk9IjIuNSIgc3R5bGU9InN0cm9rZTojMTgxODE4O3N0cm9rZS13aWR0aDowLjU7IiB3aWR0aD0iNzAiIHg9IjIwOSIgeT0iNTU2LjY5NTMiLz48dGV4dCBmaWxsPSIjMDAwMDAwIiBmb250LWZhbWlseT0ic2Fucy1zZXJpZiIgZm9udC1zaXplPSIxNCIgbGVuZ3RoQWRqdXN0PSJzcGFjaW5nIiB0ZXh0TGVuZ3RoPSI1NiIgeD0iMjE2IiB5PSI1NzYuOTI5NyI+JiMyMzQ1NzsmIzM1NzQ1OyYjMjYwODU7JiMyNDUzNTs8L3RleHQ+PHJlY3QgZmlsbD0iI0UyRTJGMCIgaGVpZ2h0PSIyOC45ODQ0IiByeD0iMi41IiByeT0iMi41IiBzdHlsZT0ic3Ryb2tlOiMxODE4MTg7c3Ryb2tlLXdpZHRoOjAuNTsiIHdpZHRoPSI4NCIgeD0iMjg5IiB5PSI1MCIvPjx0ZXh0IGZpbGw9IiMwMDAwMDAiIGZvbnQtZmFtaWx5PSJzYW5zLXNlcmlmIiBmb250LXNpemU9IjE0IiBsZW5ndGhBZGp1c3Q9InNwYWNpbmciIHRleHRMZW5ndGg9IjcwIiB4PSIyOTYiIHk9IjcwLjIzNDQiPiYjMjk5OTI7JiMyNTE0MzsmIzI1OTY4OyYjMjU0NTQ7JiMyNDIxMTs8L3RleHQ+PHJlY3QgZmlsbD0iI0UyRTJGMCIgaGVpZ2h0PSIyOC45ODQ0IiByeD0iMi41IiByeT0iMi41IiBzdHlsZT0ic3Ryb2tlOiMxODE4MTg7c3Ryb2tlLXdpZHRoOjAuNTsiIHdpZHRoPSI4NCIgeD0iMjg5IiB5PSI1NTYuNjk1MyIvPjx0ZXh0IGZpbGw9IiMwMDAwMDAiIGZvbnQtZmFtaWx5PSJzYW5zLXNlcmlmIiBmb250LXNpemU9IjE0IiBsZW5ndGhBZGp1c3Q9InNwYWNpbmciIHRleHRMZW5ndGg9IjcwIiB4PSIyOTYiIHk9IjU3Ni45Mjk3Ij4mIzI5OTkyOyYjMjUxNDM7JiMyNTk2ODsmIzI1NDU0OyYjMjQyMTE7PC90ZXh0PjxyZWN0IGZpbGw9IiNGRkZGRkYiIGhlaWdodD0iMTgwLjQ4NDQiIHN0eWxlPSJzdHJva2U6IzE4MTgxODtzdHJva2Utd2lkdGg6MS4wOyIgd2lkdGg9IjEwIiB4PSIxMjQiIHk9IjEwOS44OTg0Ii8+PHJlY3QgZmlsbD0iI0ZGRkZGRiIgaGVpZ2h0PSI5Ni43NDIyIiBzdHlsZT0ic3Ryb2tlOiMxODE4MTg7c3Ryb2tlLXdpZHRoOjEuMDsiIHdpZHRoPSIxMCIgeD0iMTI0IiB5PSIzMTguMjk2OSIvPjxyZWN0IGZpbGw9IiNGRkZGRkYiIGhlaWdodD0iOTYuNzQyMiIgc3R5bGU9InN0cm9rZTojMTgxODE4O3N0cm9rZS13aWR0aDoxLjA7IiB3aWR0aD0iMTAiIHg9IjEyNCIgeT0iNDQyLjk1MzEiLz48cG9seWdvbiBmaWxsPSIjMTgxODE4IiBwb2ludHM9IjExMiwxMDUuODk4NCwxMjIsMTA5Ljg5ODQsMTEyLDExMy44OTg0LDExNiwxMDkuODk4NCIgc3R5bGU9InN0cm9rZTojMTgxODE4O3N0cm9rZS13aWR0aDoxLjA7Ii8+PGxpbmUgc3R5bGU9InN0cm9rZTojMTgxODE4O3N0cm9rZS13aWR0aDoxLjA7IiB4MT0iMjIiIHgyPSIxMTgiIHkxPSIxMDkuODk4NCIgeTI9IjEwOS44OTg0Ii8+PHRleHQgZmlsbD0iIzAwMDAwMCIgZm9udC1mYW1pbHk9InNhbnMtc2VyaWYiIGZvbnQtc2l6ZT0iMTMiIGxlbmd0aEFkanVzdD0ic3BhY2luZyIgdGV4dExlbmd0aD0iNTIiIHg9IjI5IiB5PSIxMDYuMjczNCI+JiMyNTU1MjsmIzIwMzc5OyYjMjA5NzM7JiMyNTQ1NDs8L3RleHQ+PHBvbHlnb24gZmlsbD0iIzE4MTgxOCIgcG9pbnRzPSIxMTIsMTMzLjgxMjUsMTIyLDEzNy44MTI1LDExMiwxNDEuODEyNSwxMTYsMTM3LjgxMjUiIHN0eWxlPSJzdHJva2U6IzE4MTgxODtzdHJva2Utd2lkdGg6MS4wOyIvPjxsaW5lIHN0eWxlPSJzdHJva2U6IzE4MTgxODtzdHJva2Utd2lkdGg6MS4wOyIgeDE9IjIyIiB4Mj0iMTE4IiB5MT0iMTM3LjgxMjUiIHkyPSIxMzcuODEyNSIvPjx0ZXh0IGZpbGw9IiMwMDAwMDAiIGZvbnQtZmFtaWx5PSJzYW5zLXNlcmlmIiBmb250LXNpemU9IjEzIiBsZW5ndGhBZGp1c3Q9InNwYWNpbmciIHRleHRMZW5ndGg9Ijc4IiB4PSIyOSIgeT0iMTM0LjE4NzUiPiYjMjE0NTc7JiMzNjIxNTsmIzM1NzQ4OyYjMzU3Nzc7JiMzNTgzMTsmIzI3NzE0OzwvdGV4dD48cG9seWdvbiBmaWxsPSIjMTgxODE4IiBwb2ludHM9IjMxOSwxNjEuNzI2NiwzMjksMTY1LjcyNjYsMzE5LDE2OS43MjY2LDMyMywxNjUuNzI2NiIgc3R5bGU9InN0cm9rZTojMTgxODE4O3N0cm9rZS13aWR0aDoxLjA7Ii8+PGxpbmUgc3R5bGU9InN0cm9rZTojMTgxODE4O3N0cm9rZS13aWR0aDoxLjA7IiB4MT0iMTM0IiB4Mj0iMzI1IiB5MT0iMTY1LjcyNjYiIHkyPSIxNjUuNzI2NiIvPjx0ZXh0IGZpbGw9IiMwMDAwMDAiIGZvbnQtZmFtaWx5PSJzYW5zLXNlcmlmIiBmb250LXNpemU9IjEzIiBsZW5ndGhBZGp1c3Q9InNwYWNpbmciIHRleHRMZW5ndGg9Ijc4IiB4PSIxNDEiIHk9IjE2Mi4xMDE2Ij4mIzI2NTk3OyYjMzU4MTA7JiMyOTk5MjsmIzI1MTQzOyYjMjA0NDk7JiMyNDY4Nzs8L3RleHQ+PHBvbHlnb24gZmlsbD0iIzE4MTgxOCIgcG9pbnRzPSIxNDUsMTg5LjY0MDYsMTM1LDE5My42NDA2LDE0NSwxOTcuNjQwNiwxNDEsMTkzLjY0MDYiIHN0eWxlPSJzdHJva2U6IzE4MTgxODtzdHJva2Utd2lkdGg6MS4wOyIvPjxsaW5lIHN0eWxlPSJzdHJva2U6IzE4MTgxODtzdHJva2Utd2lkdGg6MS4wO3N0cm9rZS1kYXNoYXJyYXk6Mi4wLDIuMDsiIHgxPSIxMzkiIHgyPSIzMzAiIHkxPSIxOTMuNjQwNiIgeTI9IjE5My42NDA2Ii8+PHRleHQgZmlsbD0iIzAwMDAwMCIgZm9udC1mYW1pbHk9InNhbnMtc2VyaWYiIGZvbnQtc2l6ZT0iMTMiIGxlbmd0aEFkanVzdD0ic3BhY2luZyIgdGV4dExlbmd0aD0iNzgiIHg9IjE1MSIgeT0iMTkwLjAxNTYiPiYjMzY4MjA7JiMyMjIzODsmIzI5OTkyOyYjMjUxNDM7JiMyMDQ0OTsmIzI0Njg3OzwvdGV4dD48bGluZSBzdHlsZT0ic3Ryb2tlOiMxODE4MTg7c3Ryb2tlLXdpZHRoOjEuMDsiIHgxPSIxMzQiIHgyPSIxNzYiIHkxPSIyMjEuNTU0NyIgeTI9IjIyMS41NTQ3Ii8+PGxpbmUgc3R5bGU9InN0cm9rZTojMTgxODE4O3N0cm9rZS13aWR0aDoxLjA7IiB4MT0iMTc2IiB4Mj0iMTc2IiB5MT0iMjIxLjU1NDciIHkyPSIyMzQuNTU0NyIvPjxsaW5lIHN0eWxlPSJzdHJva2U6IzE4MTgxODtzdHJva2Utd2lkdGg6MS4wOyIgeDE9IjEzNSIgeDI9IjE3NiIgeTE9IjIzNC41NTQ3IiB5Mj0iMjM0LjU1NDciLz48cG9seWdvbiBmaWxsPSIjMTgxODE4IiBwb2ludHM9IjE0NSwyMzAuNTU0NywxMzUsMjM0LjU1NDcsMTQ1LDIzOC41NTQ3LDE0MSwyMzQuNTU0NyIgc3R5bGU9InN0cm9rZTojMTgxODE4O3N0cm9rZS13aWR0aDoxLjA7Ii8+PHRleHQgZmlsbD0iIzAwMDAwMCIgZm9udC1mYW1pbHk9InNhbnMtc2VyaWYiIGZvbnQtc2l6ZT0iMTMiIGxlbmd0aEFkanVzdD0ic3BhY2luZyIgdGV4dExlbmd0aD0iNTIiIHg9IjE0MSIgeT0iMjE3LjkyOTciPiYjMzY1MjM7JiMyMDIyMTsmIzM1NzQ4OyYjMzU3Nzc7PC90ZXh0Pjxwb2x5Z29uIGZpbGw9IiMxODE4MTgiIHBvaW50cz0iMzMsMjU4LjQ2ODgsMjMsMjYyLjQ2ODgsMzMsMjY2LjQ2ODgsMjksMjYyLjQ2ODgiIHN0eWxlPSJzdHJva2U6IzE4MTgxODtzdHJva2Utd2lkdGg6MS4wOyIvPjxsaW5lIHN0eWxlPSJzdHJva2U6IzE4MTgxODtzdHJva2Utd2lkdGg6MS4wO3N0cm9rZS1kYXNoYXJyYXk6Mi4wLDIuMDsiIHgxPSIyNyIgeDI9IjEyMyIgeTE9IjI2Mi40Njg4IiB5Mj0iMjYyLjQ2ODgiLz48dGV4dCBmaWxsPSIjMDAwMDAwIiBmb250LWZhbWlseT0ic2Fucy1zZXJpZiIgZm9udC1zaXplPSIxMyIgbGVuZ3RoQWRqdXN0PSJzcGFjaW5nIiB0ZXh0TGVuZ3RoPSI1MiIgeD0iMzkiIHk9IjI1OC44NDM4Ij4mIzM1NzQ4OyYjMzU3Nzc7JiMyNTEwNDsmIzIxMTUxOzwvdGV4dD48cG9seWdvbiBmaWxsPSIjMTgxODE4IiBwb2ludHM9IjIzMiwyODYuMzgyOCwyNDIsMjkwLjM4MjgsMjMyLDI5NC4zODI4LDIzNiwyOTAuMzgyOCIgc3R5bGU9InN0cm9rZTojMTgxODE4O3N0cm9rZS13aWR0aDoxLjA7Ii8+PGxpbmUgc3R5bGU9InN0cm9rZTojMTgxODE4O3N0cm9rZS13aWR0aDoxLjA7IiB4MT0iMTI5IiB4Mj0iMjM4IiB5MT0iMjkwLjM4MjgiIHkyPSIyOTAuMzgyOCIvPjx0ZXh0IGZpbGw9IiMwMDAwMDAiIGZvbnQtZmFtaWx5PSJzYW5zLXNlcmlmIiBmb250LXNpemU9IjEzIiBsZW5ndGhBZGp1c3Q9InNwYWNpbmciIHRleHRMZW5ndGg9Ijc4IiB4PSIxMzYiIHk9IjI4Ni43NTc4Ij4mIzM1NzYwOyYjMjQ0MDU7JiMyNTEwNDsmIzIxMTUxOyYjMzU3NDg7JiMzNTc3Nzs8L3RleHQ+PHBvbHlnb24gZmlsbD0iIzE4MTgxOCIgcG9pbnRzPSIxMTIsMzE0LjI5NjksMTIyLDMxOC4yOTY5LDExMiwzMjIuMjk2OSwxMTYsMzE4LjI5NjkiIHN0eWxlPSJzdHJva2U6IzE4MTgxODtzdHJva2Utd2lkdGg6MS4wOyIvPjxsaW5lIHN0eWxlPSJzdHJva2U6IzE4MTgxODtzdHJva2Utd2lkdGg6MS4wOyIgeDE9IjIyIiB4Mj0iMTE4IiB5MT0iMzE4LjI5NjkiIHkyPSIzMTguMjk2OSIvPjx0ZXh0IGZpbGw9IiMwMDAwMDAiIGZvbnQtZmFtaWx5PSJzYW5zLXNlcmlmIiBmb250LXNpemU9IjEzIiBsZW5ndGhBZGp1c3Q9InNwYWNpbmciIHRleHRMZW5ndGg9Ijc4IiB4PSIyOSIgeT0iMzE0LjY3MTkiPiYjMzU4MzE7JiMyNzcxNDsmIzM1Nzc1OyYjMzgzODI7JiMzNjE2NDsmIzI4MzA0OzwvdGV4dD48bGluZSBzdHlsZT0ic3Ryb2tlOiMxODE4MTg7c3Ryb2tlLXdpZHRoOjEuMDsiIHgxPSIxMzQiIHgyPSIxNzYiIHkxPSIzNDYuMjEwOSIgeTI9IjM0Ni4yMTA5Ii8+PGxpbmUgc3R5bGU9InN0cm9rZTojMTgxODE4O3N0cm9rZS13aWR0aDoxLjA7IiB4MT0iMTc2IiB4Mj0iMTc2IiB5MT0iMzQ2LjIxMDkiIHkyPSIzNTkuMjEwOSIvPjxsaW5lIHN0eWxlPSJzdHJva2U6IzE4MTgxODtzdHJva2Utd2lkdGg6MS4wOyIgeDE9IjEzNSIgeDI9IjE3NiIgeTE9IjM1OS4yMTA5IiB5Mj0iMzU5LjIxMDkiLz48cG9seWdvbiBmaWxsPSIjMTgxODE4IiBwb2ludHM9IjE0NSwzNTUuMjEwOSwxMzUsMzU5LjIxMDksMTQ1LDM2My4yMTA5LDE0MSwzNTkuMjEwOSIgc3R5bGU9InN0cm9rZTojMTgxODE4O3N0cm9rZS13aWR0aDoxLjA7Ii8+PHRleHQgZmlsbD0iIzAwMDAwMCIgZm9udC1mYW1pbHk9InNhbnMtc2VyaWYiIGZvbnQtc2l6ZT0iMTMiIGxlbmd0aEFkanVzdD0ic3BhY2luZyIgdGV4dExlbmd0aD0iNTIiIHg9IjE0MSIgeT0iMzQyLjU4NTkiPiYjMjY4MTY7JiMyNjU5NzsmIzI2NDM1OyYjMzg0ODA7PC90ZXh0Pjxwb2x5Z29uIGZpbGw9IiMxODE4MTgiIHBvaW50cz0iMzMsMzgzLjEyNSwyMywzODcuMTI1LDMzLDM5MS4xMjUsMjksMzg3LjEyNSIgc3R5bGU9InN0cm9rZTojMTgxODE4O3N0cm9rZS13aWR0aDoxLjA7Ii8+PGxpbmUgc3R5bGU9InN0cm9rZTojMTgxODE4O3N0cm9rZS13aWR0aDoxLjA7c3Ryb2tlLWRhc2hhcnJheToyLjAsMi4wOyIgeDE9IjI3IiB4Mj0iMTIzIiB5MT0iMzg3LjEyNSIgeTI9IjM4Ny4xMjUiLz48dGV4dCBmaWxsPSIjMDAwMDAwIiBmb250LWZhbWlseT0ic2Fucy1zZXJpZiIgZm9udC1zaXplPSIxMyIgbGVuZ3RoQWRqdXN0PSJzcGFjaW5nIiB0ZXh0TGVuZ3RoPSI1MiIgeD0iMzkiIHk9IjM4My41Ij4mIzI1NDgwOyYjMjY0MzU7JiMyNTEwNDsmIzIxMTUxOzwvdGV4dD48cG9seWdvbiBmaWxsPSIjMTgxODE4IiBwb2ludHM9IjIzMiw0MTEuMDM5MSwyNDIsNDE1LjAzOTEsMjMyLDQxOS4wMzkxLDIzNiw0MTUuMDM5MSIgc3R5bGU9InN0cm9rZTojMTgxODE4O3N0cm9rZS13aWR0aDoxLjA7Ii8+PGxpbmUgc3R5bGU9InN0cm9rZTojMTgxODE4O3N0cm9rZS13aWR0aDoxLjA7IiB4MT0iMTI5IiB4Mj0iMjM4IiB5MT0iNDE1LjAzOTEiIHkyPSI0MTUuMDM5MSIvPjx0ZXh0IGZpbGw9IiMwMDAwMDAiIGZvbnQtZmFtaWx5PSJzYW5zLXNlcmlmIiBmb250LXNpemU9IjEzIiBsZW5ndGhBZGp1c3Q9InNwYWNpbmciIHRleHRMZW5ndGg9Ijc4IiB4PSIxMzYiIHk9IjQxMS40MTQxIj4mIzM1NzYwOyYjMjQ0MDU7JiMyNTQ4MDsmIzI2NDM1OyYjMjUxMDQ7JiMyMTE1MTs8L3RleHQ+PHBvbHlnb24gZmlsbD0iIzE4MTgxOCIgcG9pbnRzPSIxMTIsNDM4Ljk1MzEsMTIyLDQ0Mi45NTMxLDExMiw0NDYuOTUzMSwxMTYsNDQyLjk1MzEiIHN0eWxlPSJzdHJva2U6IzE4MTgxODtzdHJva2Utd2lkdGg6MS4wOyIvPjxsaW5lIHN0eWxlPSJzdHJva2U6IzE4MTgxODtzdHJva2Utd2lkdGg6MS4wOyIgeDE9IjIyIiB4Mj0iMTE4IiB5MT0iNDQyLjk1MzEiIHkyPSI0NDIuOTUzMSIvPjx0ZXh0IGZpbGw9IiMwMDAwMDAiIGZvbnQtZmFtaWx5PSJzYW5zLXNlcmlmIiBmb250LXNpemU9IjEzIiBsZW5ndGhBZGp1c3Q9InNwYWNpbmciIHRleHRMZW5ndGg9Ijc4IiB4PSIyOSIgeT0iNDM5LjMyODEiPiYjMzU4MzE7JiMyNzcxNDsmIzM1Nzc1OyYjMzgzODI7JiMzNjE2NDsmIzI4MzA0OzwvdGV4dD48bGluZSBzdHlsZT0ic3Ryb2tlOiMxODE4MTg7c3Ryb2tlLXdpZHRoOjEuMDsiIHgxPSIxMzQiIHgyPSIxNzYiIHkxPSI0NzAuODY3MiIgeTI9IjQ3MC44NjcyIi8+PGxpbmUgc3R5bGU9InN0cm9rZTojMTgxODE4O3N0cm9rZS13aWR0aDoxLjA7IiB4MT0iMTc2IiB4Mj0iMTc2IiB5MT0iNDcwLjg2NzIiIHkyPSI0ODMuODY3MiIvPjxsaW5lIHN0eWxlPSJzdHJva2U6IzE4MTgxODtzdHJva2Utd2lkdGg6MS4wOyIgeDE9IjEzNSIgeDI9IjE3NiIgeTE9IjQ4My44NjcyIiB5Mj0iNDgzLjg2NzIiLz48cG9seWdvbiBmaWxsPSIjMTgxODE4IiBwb2ludHM9IjE0NSw0NzkuODY3MiwxMzUsNDgzLjg2NzIsMTQ1LDQ4Ny44NjcyLDE0MSw0ODMuODY3MiIgc3R5bGU9InN0cm9rZTojMTgxODE4O3N0cm9rZS13aWR0aDoxLjA7Ii8+PHRleHQgZmlsbD0iIzAwMDAwMCIgZm9udC1mYW1pbHk9InNhbnMtc2VyaWYiIGZvbnQtc2l6ZT0iMTMiIGxlbmd0aEFkanVzdD0ic3BhY2luZyIgdGV4dExlbmd0aD0iNTIiIHg9IjE0MSIgeT0iNDY3LjI0MjIiPiYjMjY4MTY7JiMyNjU5NzsmIzI2NDM1OyYjMzg0ODA7PC90ZXh0Pjxwb2x5Z29uIGZpbGw9IiMxODE4MTgiIHBvaW50cz0iMzMsNTA3Ljc4MTMsMjMsNTExLjc4MTMsMzMsNTE1Ljc4MTMsMjksNTExLjc4MTMiIHN0eWxlPSJzdHJva2U6IzE4MTgxODtzdHJva2Utd2lkdGg6MS4wOyIvPjxsaW5lIHN0eWxlPSJzdHJva2U6IzE4MTgxODtzdHJva2Utd2lkdGg6MS4wO3N0cm9rZS1kYXNoYXJyYXk6Mi4wLDIuMDsiIHgxPSIyNyIgeDI9IjEyMyIgeTE9IjUxMS43ODEzIiB5Mj0iNTExLjc4MTMiLz48dGV4dCBmaWxsPSIjMDAwMDAwIiBmb250LWZhbWlseT0ic2Fucy1zZXJpZiIgZm9udC1zaXplPSIxMyIgbGVuZ3RoQWRqdXN0PSJzcGFjaW5nIiB0ZXh0TGVuZ3RoPSI1MiIgeD0iMzkiIHk9IjUwOC4xNTYzIj4mIzI1NDgwOyYjMjY0MzU7JiMyMjgzMzsmIzM2MTMzOzwvdGV4dD48cG9seWdvbiBmaWxsPSIjMTgxODE4IiBwb2ludHM9IjIzMiw1MzUuNjk1MywyNDIsNTM5LjY5NTMsMjMyLDU0My42OTUzLDIzNiw1MzkuNjk1MyIgc3R5bGU9InN0cm9rZTojMTgxODE4O3N0cm9rZS13aWR0aDoxLjA7Ii8+PGxpbmUgc3R5bGU9InN0cm9rZTojMTgxODE4O3N0cm9rZS13aWR0aDoxLjA7IiB4MT0iMTI5IiB4Mj0iMjM4IiB5MT0iNTM5LjY5NTMiIHkyPSI1MzkuNjk1MyIvPjx0ZXh0IGZpbGw9IiMwMDAwMDAiIGZvbnQtZmFtaWx5PSJzYW5zLXNlcmlmIiBmb250LXNpemU9IjEzIiBsZW5ndGhBZGp1c3Q9InNwYWNpbmciIHRleHRMZW5ndGg9Ijc4IiB4PSIxMzYiIHk9IjUzNi4wNzAzIj4mIzM1NzYwOyYjMjQ0MDU7JiMyNTQ4MDsmIzI2NDM1OyYjMjI4MzM7JiMzNjEzMzs8L3RleHQ+PCEtLVNSQz1bcFA5MUlpRDA2OE50U3Vnbi1yeDBYTDJya0Fha0gweUdhZ1kxcWZHYVRNckxEOFpRZzJyMVlmUGUwdTh1UVM0SVlESFM5WkVQdGlBYTRwM0g0UmZxRE9sX2NfVV96c1FNOTdiRlFTWG1reGdzS3pkUWc1TVhNMVRxN0cxMUQ1R0R4a2dvMWZnMlBZWVlxWEdRMVlwSHUzTndjNThxZjV1UnRyd0lRdkN5ZENKOFlRc3A0WEhxTTZhUDF2a2dyQWhCbk5pT0VIR3ZuN1BuUTZVV2YxV3JUUi04blRxTk9sZ2FEbzlOMjBUdFNwOHJpUnVBRzdoMnlhZmtuSjhhN0lsd3hFRnBqdUhGRklrN1dZN2RKVjBrdVN1RGRWV2kwX0x5Q1p1NnQtQ0tQWGlKek81QmxJVmNBR2VUcWxPMDZ5N28zcWFRVGQ3X2lLME05R2ptaGlDMmJnckVZRmNDYzFRLTZGbUlPaHNicTBYRlVtcEFuMklQcm02dDExUVNlZDFjOHBldjlPNzV4VV9sNUVKdkFFYWRVVnRQbFNMRm1KeDdPWWRvdzd6Q1dPVFota3VrYjI5M2tJYy0wMDAwXS0tPjwvZz48L3N2Zz4=;" vertex="1" parent="1">
            <mxGeometry x="-780" y="100" width="379" height="637" as="geometry" />
          </mxCell>
        </UserObject>
        <UserObject label="" plantUmlData="{&#xa;  &quot;data&quot;: &quot;@startuml\n!define RECTANGLE class\n\nactor User\nparticipant \&quot;数据加密和解密\&quot; as EncryptionModule\nparticipant \&quot;审计日志\&quot; as AuditLog\n\nUser -&gt; EncryptionModule: 请求数据加密\nactivate EncryptionModule\nEncryptionModule --&gt; User: 返回加密后的数据\nEncryptionModule -&gt; AuditLog: 记录数据加密\ndeactivate EncryptionModule\n\nUser -&gt; EncryptionModule: 请求数据解密\nactivate EncryptionModule\nEncryptionModule --&gt; User: 返回解密后的数据\nEncryptionModule -&gt; AuditLog: 记录数据解密\ndeactivate EncryptionModule\n@enduml\n&quot;,&#xa;  &quot;format&quot;: &quot;svg&quot;&#xa;}" id="M7jX5-5myOD5qC9-YFXW-26">
          <mxCell style="shape=image;noLabel=1;verticalAlign=top;aspect=fixed;imageAspect=0;image=data:image/svg+xml,PD94bWwgdmVyc2lvbj0iMS4wIiBlbmNvZGluZz0idXMtYXNjaWkiIHN0YW5kYWxvbmU9Im5vIj8+PHN2ZyB4bWxucz0iaHR0cDovL3d3dy53My5vcmcvMjAwMC9zdmciIHhtbG5zOnhsaW5rPSJodHRwOi8vd3d3LnczLm9yZy8xOTk5L3hsaW5rIiBjb250ZW50U3R5bGVUeXBlPSJ0ZXh0L2NzcyIgaGVpZ2h0PSIzNDZweCIgcHJlc2VydmVBc3BlY3RSYXRpbz0ibm9uZSIgc3R5bGU9IndpZHRoOjMwM3B4O2hlaWdodDozNDZweDtiYWNrZ3JvdW5kOiNGRkZGRkY7IiB2ZXJzaW9uPSIxLjEiIHZpZXdCb3g9IjAgMCAzMDMgMzQ2IiB3aWR0aD0iMzAzcHgiIHpvb21BbmRQYW49Im1hZ25pZnkiPjxkZWZzLz48Zz48cmVjdCBmaWxsPSIjRkZGRkZGIiBoZWlnaHQ9IjU1LjgyODEiIHN0eWxlPSJzdHJva2U6IzE4MTgxODtzdHJva2Utd2lkdGg6MS4wOyIgd2lkdGg9IjEwIiB4PSIxNTAiIHk9IjEwOS44OTg0Ii8+PHJlY3QgZmlsbD0iI0ZGRkZGRiIgaGVpZ2h0PSI1NS44MjgxIiBzdHlsZT0ic3Ryb2tlOiMxODE4MTg7c3Ryb2tlLXdpZHRoOjEuMDsiIHdpZHRoPSIxMCIgeD0iMTUwIiB5PSIxOTMuNjQwNiIvPjxsaW5lIHN0eWxlPSJzdHJva2U6IzE4MTgxODtzdHJva2Utd2lkdGg6MC41O3N0cm9rZS1kYXNoYXJyYXk6NS4wLDUuMDsiIHgxPSIyMiIgeDI9IjIyIiB5MT0iNzkuOTg0NCIgeTI9IjI2Ny40Njg4Ii8+PGxpbmUgc3R5bGU9InN0cm9rZTojMTgxODE4O3N0cm9rZS13aWR0aDowLjU7c3Ryb2tlLWRhc2hhcnJheTo1LjAsNS4wOyIgeDE9IjE1NSIgeDI9IjE1NSIgeTE9Ijc5Ljk4NDQiIHkyPSIyNjcuNDY4OCIvPjxsaW5lIHN0eWxlPSJzdHJva2U6IzE4MTgxODtzdHJva2Utd2lkdGg6MC41O3N0cm9rZS1kYXNoYXJyYXk6NS4wLDUuMDsiIHgxPSIyNjIiIHgyPSIyNjIiIHkxPSI3OS45ODQ0IiB5Mj0iMjY3LjQ2ODgiLz48dGV4dCBmaWxsPSIjMDAwMDAwIiBmb250LWZhbWlseT0ic2Fucy1zZXJpZiIgZm9udC1zaXplPSIxNCIgbGVuZ3RoQWRqdXN0PSJzcGFjaW5nIiB0ZXh0TGVuZ3RoPSIyOCIgeD0iNSIgeT0iNzguMjM0NCI+VXNlcjwvdGV4dD48ZWxsaXBzZSBjeD0iMjIiIGN5PSIxMy41IiBmaWxsPSIjRTJFMkYwIiByeD0iOCIgcnk9IjgiIHN0eWxlPSJzdHJva2U6IzE4MTgxODtzdHJva2Utd2lkdGg6MC41OyIvPjxwYXRoIGQ9Ik0yMiwyMS41IEwyMiw0OC41IE05LDI5LjUgTDM1LDI5LjUgTTIyLDQ4LjUgTDksNjMuNSBNMjIsNDguNSBMMzUsNjMuNSAiIGZpbGw9Im5vbmUiIHN0eWxlPSJzdHJva2U6IzE4MTgxODtzdHJva2Utd2lkdGg6MC41OyIvPjx0ZXh0IGZpbGw9IiMwMDAwMDAiIGZvbnQtZmFtaWx5PSJzYW5zLXNlcmlmIiBmb250LXNpemU9IjE0IiBsZW5ndGhBZGp1c3Q9InNwYWNpbmciIHRleHRMZW5ndGg9IjI4IiB4PSI1IiB5PSIyNzkuNzAzMSI+VXNlcjwvdGV4dD48ZWxsaXBzZSBjeD0iMjIiIGN5PSIyODkuOTUzMSIgZmlsbD0iI0UyRTJGMCIgcng9IjgiIHJ5PSI4IiBzdHlsZT0ic3Ryb2tlOiMxODE4MTg7c3Ryb2tlLXdpZHRoOjAuNTsiLz48cGF0aCBkPSJNMjIsMjk3Ljk1MzEgTDIyLDMyNC45NTMxIE05LDMwNS45NTMxIEwzNSwzMDUuOTUzMSBNMjIsMzI0Ljk1MzEgTDksMzM5Ljk1MzEgTTIyLDMyNC45NTMxIEwzNSwzMzkuOTUzMSAiIGZpbGw9Im5vbmUiIHN0eWxlPSJzdHJva2U6IzE4MTgxODtzdHJva2Utd2lkdGg6MC41OyIvPjxyZWN0IGZpbGw9IiNFMkUyRjAiIGhlaWdodD0iMjguOTg0NCIgcng9IjIuNSIgcnk9IjIuNSIgc3R5bGU9InN0cm9rZTojMTgxODE4O3N0cm9rZS13aWR0aDowLjU7IiB3aWR0aD0iMTEyIiB4PSI5OSIgeT0iNTAiLz48dGV4dCBmaWxsPSIjMDAwMDAwIiBmb250LWZhbWlseT0ic2Fucy1zZXJpZiIgZm9udC1zaXplPSIxNCIgbGVuZ3RoQWRqdXN0PSJzcGFjaW5nIiB0ZXh0TGVuZ3RoPSI5OCIgeD0iMTA2IiB5PSI3MC4yMzQ0Ij4mIzI1OTY4OyYjMjU0NTQ7JiMyMTE1MjsmIzIzNDk0OyYjMjE2NDQ7JiMzNTI5OTsmIzIzNDk0OzwvdGV4dD48cmVjdCBmaWxsPSIjRTJFMkYwIiBoZWlnaHQ9IjI4Ljk4NDQiIHJ4PSIyLjUiIHJ5PSIyLjUiIHN0eWxlPSJzdHJva2U6IzE4MTgxODtzdHJva2Utd2lkdGg6MC41OyIgd2lkdGg9IjExMiIgeD0iOTkiIHk9IjI2Ni40Njg4Ii8+PHRleHQgZmlsbD0iIzAwMDAwMCIgZm9udC1mYW1pbHk9InNhbnMtc2VyaWYiIGZvbnQtc2l6ZT0iMTQiIGxlbmd0aEFkanVzdD0ic3BhY2luZyIgdGV4dExlbmd0aD0iOTgiIHg9IjEwNiIgeT0iMjg2LjcwMzEiPiYjMjU5Njg7JiMyNTQ1NDsmIzIxMTUyOyYjMjM0OTQ7JiMyMTY0NDsmIzM1Mjk5OyYjMjM0OTQ7PC90ZXh0PjxyZWN0IGZpbGw9IiNFMkUyRjAiIGhlaWdodD0iMjguOTg0NCIgcng9IjIuNSIgcnk9IjIuNSIgc3R5bGU9InN0cm9rZTojMTgxODE4O3N0cm9rZS13aWR0aDowLjU7IiB3aWR0aD0iNzAiIHg9IjIyNyIgeT0iNTAiLz48dGV4dCBmaWxsPSIjMDAwMDAwIiBmb250LWZhbWlseT0ic2Fucy1zZXJpZiIgZm9udC1zaXplPSIxNCIgbGVuZ3RoQWRqdXN0PSJzcGFjaW5nIiB0ZXh0TGVuZ3RoPSI1NiIgeD0iMjM0IiB5PSI3MC4yMzQ0Ij4mIzIzNDU3OyYjMzU3NDU7JiMyNjA4NTsmIzI0NTM1OzwvdGV4dD48cmVjdCBmaWxsPSIjRTJFMkYwIiBoZWlnaHQ9IjI4Ljk4NDQiIHJ4PSIyLjUiIHJ5PSIyLjUiIHN0eWxlPSJzdHJva2U6IzE4MTgxODtzdHJva2Utd2lkdGg6MC41OyIgd2lkdGg9IjcwIiB4PSIyMjciIHk9IjI2Ni40Njg4Ii8+PHRleHQgZmlsbD0iIzAwMDAwMCIgZm9udC1mYW1pbHk9InNhbnMtc2VyaWYiIGZvbnQtc2l6ZT0iMTQiIGxlbmd0aEFkanVzdD0ic3BhY2luZyIgdGV4dExlbmd0aD0iNTYiIHg9IjIzNCIgeT0iMjg2LjcwMzEiPiYjMjM0NTc7JiMzNTc0NTsmIzI2MDg1OyYjMjQ1MzU7PC90ZXh0PjxyZWN0IGZpbGw9IiNGRkZGRkYiIGhlaWdodD0iNTUuODI4MSIgc3R5bGU9InN0cm9rZTojMTgxODE4O3N0cm9rZS13aWR0aDoxLjA7IiB3aWR0aD0iMTAiIHg9IjE1MCIgeT0iMTA5Ljg5ODQiLz48cmVjdCBmaWxsPSIjRkZGRkZGIiBoZWlnaHQ9IjU1LjgyODEiIHN0eWxlPSJzdHJva2U6IzE4MTgxODtzdHJva2Utd2lkdGg6MS4wOyIgd2lkdGg9IjEwIiB4PSIxNTAiIHk9IjE5My42NDA2Ii8+PHBvbHlnb24gZmlsbD0iIzE4MTgxOCIgcG9pbnRzPSIxMzgsMTA1Ljg5ODQsMTQ4LDEwOS44OTg0LDEzOCwxMTMuODk4NCwxNDIsMTA5Ljg5ODQiIHN0eWxlPSJzdHJva2U6IzE4MTgxODtzdHJva2Utd2lkdGg6MS4wOyIvPjxsaW5lIHN0eWxlPSJzdHJva2U6IzE4MTgxODtzdHJva2Utd2lkdGg6MS4wOyIgeDE9IjIyIiB4Mj0iMTQ0IiB5MT0iMTA5Ljg5ODQiIHkyPSIxMDkuODk4NCIvPjx0ZXh0IGZpbGw9IiMwMDAwMDAiIGZvbnQtZmFtaWx5PSJzYW5zLXNlcmlmIiBmb250LXNpemU9IjEzIiBsZW5ndGhBZGp1c3Q9InNwYWNpbmciIHRleHRMZW5ndGg9Ijc4IiB4PSIyOSIgeT0iMTA2LjI3MzQiPiYjMzU4MzE7JiMyNzcxNDsmIzI1OTY4OyYjMjU0NTQ7JiMyMTE1MjsmIzIzNDk0OzwvdGV4dD48cG9seWdvbiBmaWxsPSIjMTgxODE4IiBwb2ludHM9IjMzLDEzMy44MTI1LDIzLDEzNy44MTI1LDMzLDE0MS44MTI1LDI5LDEzNy44MTI1IiBzdHlsZT0ic3Ryb2tlOiMxODE4MTg7c3Ryb2tlLXdpZHRoOjEuMDsiLz48bGluZSBzdHlsZT0ic3Ryb2tlOiMxODE4MTg7c3Ryb2tlLXdpZHRoOjEuMDtzdHJva2UtZGFzaGFycmF5OjIuMCwyLjA7IiB4MT0iMjciIHgyPSIxNDkiIHkxPSIxMzcuODEyNSIgeTI9IjEzNy44MTI1Ii8+PHRleHQgZmlsbD0iIzAwMDAwMCIgZm9udC1mYW1pbHk9InNhbnMtc2VyaWYiIGZvbnQtc2l6ZT0iMTMiIGxlbmd0aEFkanVzdD0ic3BhY2luZyIgdGV4dExlbmd0aD0iMTA0IiB4PSIzOSIgeT0iMTM0LjE4NzUiPiYjMzY4MjA7JiMyMjIzODsmIzIxMTUyOyYjMjM0OTQ7JiMyMTUxODsmIzMwMzQwOyYjMjU5Njg7JiMyNTQ1NDs8L3RleHQ+PHBvbHlnb24gZmlsbD0iIzE4MTgxOCIgcG9pbnRzPSIyNTAsMTYxLjcyNjYsMjYwLDE2NS43MjY2LDI1MCwxNjkuNzI2NiwyNTQsMTY1LjcyNjYiIHN0eWxlPSJzdHJva2U6IzE4MTgxODtzdHJva2Utd2lkdGg6MS4wOyIvPjxsaW5lIHN0eWxlPSJzdHJva2U6IzE4MTgxODtzdHJva2Utd2lkdGg6MS4wOyIgeDE9IjE1NSIgeDI9IjI1NiIgeTE9IjE2NS43MjY2IiB5Mj0iMTY1LjcyNjYiLz48dGV4dCBmaWxsPSIjMDAwMDAwIiBmb250LWZhbWlseT0ic2Fucy1zZXJpZiIgZm9udC1zaXplPSIxMyIgbGVuZ3RoQWRqdXN0PSJzcGFjaW5nIiB0ZXh0TGVuZ3RoPSI3OCIgeD0iMTYyIiB5PSIxNjIuMTAxNiI+JiMzNTc2MDsmIzI0NDA1OyYjMjU5Njg7JiMyNTQ1NDsmIzIxMTUyOyYjMjM0OTQ7PC90ZXh0Pjxwb2x5Z29uIGZpbGw9IiMxODE4MTgiIHBvaW50cz0iMTM4LDE4OS42NDA2LDE0OCwxOTMuNjQwNiwxMzgsMTk3LjY0MDYsMTQyLDE5My42NDA2IiBzdHlsZT0ic3Ryb2tlOiMxODE4MTg7c3Ryb2tlLXdpZHRoOjEuMDsiLz48bGluZSBzdHlsZT0ic3Ryb2tlOiMxODE4MTg7c3Ryb2tlLXdpZHRoOjEuMDsiIHgxPSIyMiIgeDI9IjE0NCIgeTE9IjE5My42NDA2IiB5Mj0iMTkzLjY0MDYiLz48dGV4dCBmaWxsPSIjMDAwMDAwIiBmb250LWZhbWlseT0ic2Fucy1zZXJpZiIgZm9udC1zaXplPSIxMyIgbGVuZ3RoQWRqdXN0PSJzcGFjaW5nIiB0ZXh0TGVuZ3RoPSI3OCIgeD0iMjkiIHk9IjE5MC4wMTU2Ij4mIzM1ODMxOyYjMjc3MTQ7JiMyNTk2ODsmIzI1NDU0OyYjMzUyOTk7JiMyMzQ5NDs8L3RleHQ+PHBvbHlnb24gZmlsbD0iIzE4MTgxOCIgcG9pbnRzPSIzMywyMTcuNTU0NywyMywyMjEuNTU0NywzMywyMjUuNTU0NywyOSwyMjEuNTU0NyIgc3R5bGU9InN0cm9rZTojMTgxODE4O3N0cm9rZS13aWR0aDoxLjA7Ii8+PGxpbmUgc3R5bGU9InN0cm9rZTojMTgxODE4O3N0cm9rZS13aWR0aDoxLjA7c3Ryb2tlLWRhc2hhcnJheToyLjAsMi4wOyIgeDE9IjI3IiB4Mj0iMTQ5IiB5MT0iMjIxLjU1NDciIHkyPSIyMjEuNTU0NyIvPjx0ZXh0IGZpbGw9IiMwMDAwMDAiIGZvbnQtZmFtaWx5PSJzYW5zLXNlcmlmIiBmb250LXNpemU9IjEzIiBsZW5ndGhBZGp1c3Q9InNwYWNpbmciIHRleHRMZW5ndGg9IjEwNCIgeD0iMzkiIHk9IjIxNy45Mjk3Ij4mIzM2ODIwOyYjMjIyMzg7JiMzNTI5OTsmIzIzNDk0OyYjMjE1MTg7JiMzMDM0MDsmIzI1OTY4OyYjMjU0NTQ7PC90ZXh0Pjxwb2x5Z29uIGZpbGw9IiMxODE4MTgiIHBvaW50cz0iMjUwLDI0NS40Njg4LDI2MCwyNDkuNDY4OCwyNTAsMjUzLjQ2ODgsMjU0LDI0OS40Njg4IiBzdHlsZT0ic3Ryb2tlOiMxODE4MTg7c3Ryb2tlLXdpZHRoOjEuMDsiLz48bGluZSBzdHlsZT0ic3Ryb2tlOiMxODE4MTg7c3Ryb2tlLXdpZHRoOjEuMDsiIHgxPSIxNTUiIHgyPSIyNTYiIHkxPSIyNDkuNDY4OCIgeTI9IjI0OS40Njg4Ii8+PHRleHQgZmlsbD0iIzAwMDAwMCIgZm9udC1mYW1pbHk9InNhbnMtc2VyaWYiIGZvbnQtc2l6ZT0iMTMiIGxlbmd0aEFkanVzdD0ic3BhY2luZyIgdGV4dExlbmd0aD0iNzgiIHg9IjE2MiIgeT0iMjQ1Ljg0MzgiPiYjMzU3NjA7JiMyNDQwNTsmIzI1OTY4OyYjMjU0NTQ7JiMzNTI5OTsmIzIzNDk0OzwvdGV4dD48IS0tU1JDPVtLcW45SlNsQ0lySzhTZEtFU1ZIcHp0NUxJQ3Y5QjJ4Y3VhZkNCaWFsS1dXakpZdFlBYVdpQWliQ3BZbjhwMmpISzdlc1RTRXB0ZExGa25PeU5UX3NUNUJGWS1NQldHbWJYU0hZMVRVeXZBQkFXZkJDXzNwVl85SklkNUhLVktfTkJOb25SazZwd0trVnhmeUVMa3ZPY2Y5UHVmRVZwaUs1aWFIMXJteDMwMms1NS1rdEZ6bE9YNm1ibzVzUFBPYWJnUFpNZUdpZXcwQkQxOWFERDZWX2JBVXB2cTRURlE3bC1RbU1ZOWJPekRaMTdHUktqY3gzcXhySktRbkZJU05qMDI4ejBXYW9JWm0yQ081Q1pxMmpuLUNIMDAwMF0tLT48L2c+PC9zdmc+;" vertex="1" parent="1">
            <mxGeometry x="-779.14" y="750" width="350.29" height="400" as="geometry" />
          </mxCell>
        </UserObject>
        <UserObject label="" plantUmlData="{&#xa;  &quot;data&quot;: &quot;@startuml\n!define RECTANGLE class\n\nactor User\nparticipant \&quot;访问控制\&quot; as AccessControlModule\nparticipant \&quot;审计日志\&quot; as AuditLog\n\nUser -&gt; AccessControlModule: 请求访问资源\nactivate AccessControlModule\nAccessControlModule -&gt; AccessControlModule: 检查权限\nAccessControlModule --&gt; User: 授权成功\nAccessControlModule -&gt; AuditLog: 记录授权成功\ndeactivate AccessControlModule\n\nUser -&gt; AccessControlModule: 请求访问资源\nactivate AccessControlModule\nAccessControlModule -&gt; AccessControlModule: 检查权限\nAccessControlModule --&gt; User: 授权失败\nAccessControlModule -&gt; AuditLog: 记录授权失败\ndeactivate AccessControlModule\n@enduml\n&quot;,&#xa;  &quot;format&quot;: &quot;svg&quot;&#xa;}" id="M7jX5-5myOD5qC9-YFXW-27">
          <mxCell style="shape=image;noLabel=1;verticalAlign=top;aspect=fixed;imageAspect=0;image=data:image/svg+xml,PD94bWwgdmVyc2lvbj0iMS4wIiBlbmNvZGluZz0idXMtYXNjaWkiIHN0YW5kYWxvbmU9Im5vIj8+PHN2ZyB4bWxucz0iaHR0cDovL3d3dy53My5vcmcvMjAwMC9zdmciIHhtbG5zOnhsaW5rPSJodHRwOi8vd3d3LnczLm9yZy8xOTk5L3hsaW5rIiBjb250ZW50U3R5bGVUeXBlPSJ0ZXh0L2NzcyIgaGVpZ2h0PSI0MjhweCIgcHJlc2VydmVBc3BlY3RSYXRpbz0ibm9uZSIgc3R5bGU9IndpZHRoOjI3MnB4O2hlaWdodDo0MjhweDtiYWNrZ3JvdW5kOiNGRkZGRkY7IiB2ZXJzaW9uPSIxLjEiIHZpZXdCb3g9IjAgMCAyNzIgNDI4IiB3aWR0aD0iMjcycHgiIHpvb21BbmRQYW49Im1hZ25pZnkiPjxkZWZzLz48Zz48cmVjdCBmaWxsPSIjRkZGRkZGIiBoZWlnaHQ9Ijk2Ljc0MjIiIHN0eWxlPSJzdHJva2U6IzE4MTgxODtzdHJva2Utd2lkdGg6MS4wOyIgd2lkdGg9IjEwIiB4PSIxMTkiIHk9IjEwOS44OTg0Ii8+PHJlY3QgZmlsbD0iI0ZGRkZGRiIgaGVpZ2h0PSI5Ni43NDIyIiBzdHlsZT0ic3Ryb2tlOiMxODE4MTg7c3Ryb2tlLXdpZHRoOjEuMDsiIHdpZHRoPSIxMCIgeD0iMTE5IiB5PSIyMzQuNTU0NyIvPjxsaW5lIHN0eWxlPSJzdHJva2U6IzE4MTgxODtzdHJva2Utd2lkdGg6MC41O3N0cm9rZS1kYXNoYXJyYXk6NS4wLDUuMDsiIHgxPSIyMiIgeDI9IjIyIiB5MT0iNzkuOTg0NCIgeTI9IjM0OS4yOTY5Ii8+PGxpbmUgc3R5bGU9InN0cm9rZTojMTgxODE4O3N0cm9rZS13aWR0aDowLjU7c3Ryb2tlLWRhc2hhcnJheTo1LjAsNS4wOyIgeDE9IjEyNCIgeDI9IjEyNCIgeTE9Ijc5Ljk4NDQiIHkyPSIzNDkuMjk2OSIvPjxsaW5lIHN0eWxlPSJzdHJva2U6IzE4MTgxODtzdHJva2Utd2lkdGg6MC41O3N0cm9rZS1kYXNoYXJyYXk6NS4wLDUuMDsiIHgxPSIyMzEiIHgyPSIyMzEiIHkxPSI3OS45ODQ0IiB5Mj0iMzQ5LjI5NjkiLz48dGV4dCBmaWxsPSIjMDAwMDAwIiBmb250LWZhbWlseT0ic2Fucy1zZXJpZiIgZm9udC1zaXplPSIxNCIgbGVuZ3RoQWRqdXN0PSJzcGFjaW5nIiB0ZXh0TGVuZ3RoPSIyOCIgeD0iNSIgeT0iNzguMjM0NCI+VXNlcjwvdGV4dD48ZWxsaXBzZSBjeD0iMjIiIGN5PSIxMy41IiBmaWxsPSIjRTJFMkYwIiByeD0iOCIgcnk9IjgiIHN0eWxlPSJzdHJva2U6IzE4MTgxODtzdHJva2Utd2lkdGg6MC41OyIvPjxwYXRoIGQ9Ik0yMiwyMS41IEwyMiw0OC41IE05LDI5LjUgTDM1LDI5LjUgTTIyLDQ4LjUgTDksNjMuNSBNMjIsNDguNSBMMzUsNjMuNSAiIGZpbGw9Im5vbmUiIHN0eWxlPSJzdHJva2U6IzE4MTgxODtzdHJva2Utd2lkdGg6MC41OyIvPjx0ZXh0IGZpbGw9IiMwMDAwMDAiIGZvbnQtZmFtaWx5PSJzYW5zLXNlcmlmIiBmb250LXNpemU9IjE0IiBsZW5ndGhBZGp1c3Q9InNwYWNpbmciIHRleHRMZW5ndGg9IjI4IiB4PSI1IiB5PSIzNjEuNTMxMyI+VXNlcjwvdGV4dD48ZWxsaXBzZSBjeD0iMjIiIGN5PSIzNzEuNzgxMyIgZmlsbD0iI0UyRTJGMCIgcng9IjgiIHJ5PSI4IiBzdHlsZT0ic3Ryb2tlOiMxODE4MTg7c3Ryb2tlLXdpZHRoOjAuNTsiLz48cGF0aCBkPSJNMjIsMzc5Ljc4MTMgTDIyLDQwNi43ODEzIE05LDM4Ny43ODEzIEwzNSwzODcuNzgxMyBNMjIsNDA2Ljc4MTMgTDksNDIxLjc4MTMgTTIyLDQwNi43ODEzIEwzNSw0MjEuNzgxMyAiIGZpbGw9Im5vbmUiIHN0eWxlPSJzdHJva2U6IzE4MTgxODtzdHJva2Utd2lkdGg6MC41OyIvPjxyZWN0IGZpbGw9IiNFMkUyRjAiIGhlaWdodD0iMjguOTg0NCIgcng9IjIuNSIgcnk9IjIuNSIgc3R5bGU9InN0cm9rZTojMTgxODE4O3N0cm9rZS13aWR0aDowLjU7IiB3aWR0aD0iNzAiIHg9Ijg5IiB5PSI1MCIvPjx0ZXh0IGZpbGw9IiMwMDAwMDAiIGZvbnQtZmFtaWx5PSJzYW5zLXNlcmlmIiBmb250LXNpemU9IjE0IiBsZW5ndGhBZGp1c3Q9InNwYWNpbmciIHRleHRMZW5ndGg9IjU2IiB4PSI5NiIgeT0iNzAuMjM0NCI+JiMzNTc3NTsmIzM4MzgyOyYjMjU1MTE7JiMyMTA0Njs8L3RleHQ+PHJlY3QgZmlsbD0iI0UyRTJGMCIgaGVpZ2h0PSIyOC45ODQ0IiByeD0iMi41IiByeT0iMi41IiBzdHlsZT0ic3Ryb2tlOiMxODE4MTg7c3Ryb2tlLXdpZHRoOjAuNTsiIHdpZHRoPSI3MCIgeD0iODkiIHk9IjM0OC4yOTY5Ii8+PHRleHQgZmlsbD0iIzAwMDAwMCIgZm9udC1mYW1pbHk9InNhbnMtc2VyaWYiIGZvbnQtc2l6ZT0iMTQiIGxlbmd0aEFkanVzdD0ic3BhY2luZyIgdGV4dExlbmd0aD0iNTYiIHg9Ijk2IiB5PSIzNjguNTMxMyI+JiMzNTc3NTsmIzM4MzgyOyYjMjU1MTE7JiMyMTA0Njs8L3RleHQ+PHJlY3QgZmlsbD0iI0UyRTJGMCIgaGVpZ2h0PSIyOC45ODQ0IiByeD0iMi41IiByeT0iMi41IiBzdHlsZT0ic3Ryb2tlOiMxODE4MTg7c3Ryb2tlLXdpZHRoOjAuNTsiIHdpZHRoPSI3MCIgeD0iMTk2IiB5PSI1MCIvPjx0ZXh0IGZpbGw9IiMwMDAwMDAiIGZvbnQtZmFtaWx5PSJzYW5zLXNlcmlmIiBmb250LXNpemU9IjE0IiBsZW5ndGhBZGp1c3Q9InNwYWNpbmciIHRleHRMZW5ndGg9IjU2IiB4PSIyMDMiIHk9IjcwLjIzNDQiPiYjMjM0NTc7JiMzNTc0NTsmIzI2MDg1OyYjMjQ1MzU7PC90ZXh0PjxyZWN0IGZpbGw9IiNFMkUyRjAiIGhlaWdodD0iMjguOTg0NCIgcng9IjIuNSIgcnk9IjIuNSIgc3R5bGU9InN0cm9rZTojMTgxODE4O3N0cm9rZS13aWR0aDowLjU7IiB3aWR0aD0iNzAiIHg9IjE5NiIgeT0iMzQ4LjI5NjkiLz48dGV4dCBmaWxsPSIjMDAwMDAwIiBmb250LWZhbWlseT0ic2Fucy1zZXJpZiIgZm9udC1zaXplPSIxNCIgbGVuZ3RoQWRqdXN0PSJzcGFjaW5nIiB0ZXh0TGVuZ3RoPSI1NiIgeD0iMjAzIiB5PSIzNjguNTMxMyI+JiMyMzQ1NzsmIzM1NzQ1OyYjMjYwODU7JiMyNDUzNTs8L3RleHQ+PHJlY3QgZmlsbD0iI0ZGRkZGRiIgaGVpZ2h0PSI5Ni43NDIyIiBzdHlsZT0ic3Ryb2tlOiMxODE4MTg7c3Ryb2tlLXdpZHRoOjEuMDsiIHdpZHRoPSIxMCIgeD0iMTE5IiB5PSIxMDkuODk4NCIvPjxyZWN0IGZpbGw9IiNGRkZGRkYiIGhlaWdodD0iOTYuNzQyMiIgc3R5bGU9InN0cm9rZTojMTgxODE4O3N0cm9rZS13aWR0aDoxLjA7IiB3aWR0aD0iMTAiIHg9IjExOSIgeT0iMjM0LjU1NDciLz48cG9seWdvbiBmaWxsPSIjMTgxODE4IiBwb2ludHM9IjEwNywxMDUuODk4NCwxMTcsMTA5Ljg5ODQsMTA3LDExMy44OTg0LDExMSwxMDkuODk4NCIgc3R5bGU9InN0cm9rZTojMTgxODE4O3N0cm9rZS13aWR0aDoxLjA7Ii8+PGxpbmUgc3R5bGU9InN0cm9rZTojMTgxODE4O3N0cm9rZS13aWR0aDoxLjA7IiB4MT0iMjIiIHgyPSIxMTMiIHkxPSIxMDkuODk4NCIgeTI9IjEwOS44OTg0Ii8+PHRleHQgZmlsbD0iIzAwMDAwMCIgZm9udC1mYW1pbHk9InNhbnMtc2VyaWYiIGZvbnQtc2l6ZT0iMTMiIGxlbmd0aEFkanVzdD0ic3BhY2luZyIgdGV4dExlbmd0aD0iNzgiIHg9IjI5IiB5PSIxMDYuMjczNCI+JiMzNTgzMTsmIzI3NzE0OyYjMzU3NzU7JiMzODM4MjsmIzM2MTY0OyYjMjgzMDQ7PC90ZXh0PjxsaW5lIHN0eWxlPSJzdHJva2U6IzE4MTgxODtzdHJva2Utd2lkdGg6MS4wOyIgeDE9IjEyOSIgeDI9IjE3MSIgeTE9IjEzNy44MTI1IiB5Mj0iMTM3LjgxMjUiLz48bGluZSBzdHlsZT0ic3Ryb2tlOiMxODE4MTg7c3Ryb2tlLXdpZHRoOjEuMDsiIHgxPSIxNzEiIHgyPSIxNzEiIHkxPSIxMzcuODEyNSIgeTI9IjE1MC44MTI1Ii8+PGxpbmUgc3R5bGU9InN0cm9rZTojMTgxODE4O3N0cm9rZS13aWR0aDoxLjA7IiB4MT0iMTMwIiB4Mj0iMTcxIiB5MT0iMTUwLjgxMjUiIHkyPSIxNTAuODEyNSIvPjxwb2x5Z29uIGZpbGw9IiMxODE4MTgiIHBvaW50cz0iMTQwLDE0Ni44MTI1LDEzMCwxNTAuODEyNSwxNDAsMTU0LjgxMjUsMTM2LDE1MC44MTI1IiBzdHlsZT0ic3Ryb2tlOiMxODE4MTg7c3Ryb2tlLXdpZHRoOjEuMDsiLz48dGV4dCBmaWxsPSIjMDAwMDAwIiBmb250LWZhbWlseT0ic2Fucy1zZXJpZiIgZm9udC1zaXplPSIxMyIgbGVuZ3RoQWRqdXN0PSJzcGFjaW5nIiB0ZXh0TGVuZ3RoPSI1MiIgeD0iMTM2IiB5PSIxMzQuMTg3NSI+JiMyNjgxNjsmIzI2NTk3OyYjMjY0MzU7JiMzODQ4MDs8L3RleHQ+PHBvbHlnb24gZmlsbD0iIzE4MTgxOCIgcG9pbnRzPSIzMywxNzQuNzI2NiwyMywxNzguNzI2NiwzMywxODIuNzI2NiwyOSwxNzguNzI2NiIgc3R5bGU9InN0cm9rZTojMTgxODE4O3N0cm9rZS13aWR0aDoxLjA7Ii8+PGxpbmUgc3R5bGU9InN0cm9rZTojMTgxODE4O3N0cm9rZS13aWR0aDoxLjA7c3Ryb2tlLWRhc2hhcnJheToyLjAsMi4wOyIgeDE9IjI3IiB4Mj0iMTE4IiB5MT0iMTc4LjcyNjYiIHkyPSIxNzguNzI2NiIvPjx0ZXh0IGZpbGw9IiMwMDAwMDAiIGZvbnQtZmFtaWx5PSJzYW5zLXNlcmlmIiBmb250LXNpemU9IjEzIiBsZW5ndGhBZGp1c3Q9InNwYWNpbmciIHRleHRMZW5ndGg9IjUyIiB4PSIzOSIgeT0iMTc1LjEwMTYiPiYjMjU0ODA7JiMyNjQzNTsmIzI1MTA0OyYjMjExNTE7PC90ZXh0Pjxwb2x5Z29uIGZpbGw9IiMxODE4MTgiIHBvaW50cz0iMjE5LDIwMi42NDA2LDIyOSwyMDYuNjQwNiwyMTksMjEwLjY0MDYsMjIzLDIwNi42NDA2IiBzdHlsZT0ic3Ryb2tlOiMxODE4MTg7c3Ryb2tlLXdpZHRoOjEuMDsiLz48bGluZSBzdHlsZT0ic3Ryb2tlOiMxODE4MTg7c3Ryb2tlLXdpZHRoOjEuMDsiIHgxPSIxMjQiIHgyPSIyMjUiIHkxPSIyMDYuNjQwNiIgeTI9IjIwNi42NDA2Ii8+PHRleHQgZmlsbD0iIzAwMDAwMCIgZm9udC1mYW1pbHk9InNhbnMtc2VyaWYiIGZvbnQtc2l6ZT0iMTMiIGxlbmd0aEFkanVzdD0ic3BhY2luZyIgdGV4dExlbmd0aD0iNzgiIHg9IjEzMSIgeT0iMjAzLjAxNTYiPiYjMzU3NjA7JiMyNDQwNTsmIzI1NDgwOyYjMjY0MzU7JiMyNTEwNDsmIzIxMTUxOzwvdGV4dD48cG9seWdvbiBmaWxsPSIjMTgxODE4IiBwb2ludHM9IjEwNywyMzAuNTU0NywxMTcsMjM0LjU1NDcsMTA3LDIzOC41NTQ3LDExMSwyMzQuNTU0NyIgc3R5bGU9InN0cm9rZTojMTgxODE4O3N0cm9rZS13aWR0aDoxLjA7Ii8+PGxpbmUgc3R5bGU9InN0cm9rZTojMTgxODE4O3N0cm9rZS13aWR0aDoxLjA7IiB4MT0iMjIiIHgyPSIxMTMiIHkxPSIyMzQuNTU0NyIgeTI9IjIzNC41NTQ3Ii8+PHRleHQgZmlsbD0iIzAwMDAwMCIgZm9udC1mYW1pbHk9InNhbnMtc2VyaWYiIGZvbnQtc2l6ZT0iMTMiIGxlbmd0aEFkanVzdD0ic3BhY2luZyIgdGV4dExlbmd0aD0iNzgiIHg9IjI5IiB5PSIyMzAuOTI5NyI+JiMzNTgzMTsmIzI3NzE0OyYjMzU3NzU7JiMzODM4MjsmIzM2MTY0OyYjMjgzMDQ7PC90ZXh0PjxsaW5lIHN0eWxlPSJzdHJva2U6IzE4MTgxODtzdHJva2Utd2lkdGg6MS4wOyIgeDE9IjEyOSIgeDI9IjE3MSIgeTE9IjI2Mi40Njg4IiB5Mj0iMjYyLjQ2ODgiLz48bGluZSBzdHlsZT0ic3Ryb2tlOiMxODE4MTg7c3Ryb2tlLXdpZHRoOjEuMDsiIHgxPSIxNzEiIHgyPSIxNzEiIHkxPSIyNjIuNDY4OCIgeTI9IjI3NS40Njg4Ii8+PGxpbmUgc3R5bGU9InN0cm9rZTojMTgxODE4O3N0cm9rZS13aWR0aDoxLjA7IiB4MT0iMTMwIiB4Mj0iMTcxIiB5MT0iMjc1LjQ2ODgiIHkyPSIyNzUuNDY4OCIvPjxwb2x5Z29uIGZpbGw9IiMxODE4MTgiIHBvaW50cz0iMTQwLDI3MS40Njg4LDEzMCwyNzUuNDY4OCwxNDAsMjc5LjQ2ODgsMTM2LDI3NS40Njg4IiBzdHlsZT0ic3Ryb2tlOiMxODE4MTg7c3Ryb2tlLXdpZHRoOjEuMDsiLz48dGV4dCBmaWxsPSIjMDAwMDAwIiBmb250LWZhbWlseT0ic2Fucy1zZXJpZiIgZm9udC1zaXplPSIxMyIgbGVuZ3RoQWRqdXN0PSJzcGFjaW5nIiB0ZXh0TGVuZ3RoPSI1MiIgeD0iMTM2IiB5PSIyNTguODQzOCI+JiMyNjgxNjsmIzI2NTk3OyYjMjY0MzU7JiMzODQ4MDs8L3RleHQ+PHBvbHlnb24gZmlsbD0iIzE4MTgxOCIgcG9pbnRzPSIzMywyOTkuMzgyOCwyMywzMDMuMzgyOCwzMywzMDcuMzgyOCwyOSwzMDMuMzgyOCIgc3R5bGU9InN0cm9rZTojMTgxODE4O3N0cm9rZS13aWR0aDoxLjA7Ii8+PGxpbmUgc3R5bGU9InN0cm9rZTojMTgxODE4O3N0cm9rZS13aWR0aDoxLjA7c3Ryb2tlLWRhc2hhcnJheToyLjAsMi4wOyIgeDE9IjI3IiB4Mj0iMTE4IiB5MT0iMzAzLjM4MjgiIHkyPSIzMDMuMzgyOCIvPjx0ZXh0IGZpbGw9IiMwMDAwMDAiIGZvbnQtZmFtaWx5PSJzYW5zLXNlcmlmIiBmb250LXNpemU9IjEzIiBsZW5ndGhBZGp1c3Q9InNwYWNpbmciIHRleHRMZW5ndGg9IjUyIiB4PSIzOSIgeT0iMjk5Ljc1NzgiPiYjMjU0ODA7JiMyNjQzNTsmIzIyODMzOyYjMzYxMzM7PC90ZXh0Pjxwb2x5Z29uIGZpbGw9IiMxODE4MTgiIHBvaW50cz0iMjE5LDMyNy4yOTY5LDIyOSwzMzEuMjk2OSwyMTksMzM1LjI5NjksMjIzLDMzMS4yOTY5IiBzdHlsZT0ic3Ryb2tlOiMxODE4MTg7c3Ryb2tlLXdpZHRoOjEuMDsiLz48bGluZSBzdHlsZT0ic3Ryb2tlOiMxODE4MTg7c3Ryb2tlLXdpZHRoOjEuMDsiIHgxPSIxMjQiIHgyPSIyMjUiIHkxPSIzMzEuMjk2OSIgeTI9IjMzMS4yOTY5Ii8+PHRleHQgZmlsbD0iIzAwMDAwMCIgZm9udC1mYW1pbHk9InNhbnMtc2VyaWYiIGZvbnQtc2l6ZT0iMTMiIGxlbmd0aEFkanVzdD0ic3BhY2luZyIgdGV4dExlbmd0aD0iNzgiIHg9IjEzMSIgeT0iMzI3LjY3MTkiPiYjMzU3NjA7JiMyNDQwNTsmIzI1NDgwOyYjMjY0MzU7JiMyMjgzMzsmIzM2MTMzOzwvdGV4dD48IS0tU1JDPVtLcW45SlNsQ0lySzhTZEtFU1ZIcHp0NUxJQ3Y5QjJ4Y3VhZkNCaWFsS1dXakpZdFlBYVdpQWliQ3BZbjhwMmpISzdnblJsX0J3VWtVeklyX3NoNURJSTZuTUM0bkVKY3JrRFd2RnctYUEzXzdEcC1iRDJTTExTVkpUR2pWaDVsdVJGaElmX2tkR3RJS2ZjSU0tRUlkU3Q2MVo1VkdqU0RjWGZOMllfTlJkc3JpV2padE9jbEJpcnFKRzh4QUI0aWlJU0xnQUhPbmQ2T19NenBtUkZ4SVB0RVJOeXdTVzVxWksyVjhUSzJiVkhyMFRTeXc5WnBqY2VfSjNnWUZXOHZVai03ZnRnYWVVYjlJeUpmeDIwTjJxb0tSTnNuUEliZVdHRk5XM21HMF0tLT48L2c+PC9zdmc+;" vertex="1" parent="1">
            <mxGeometry x="-770" y="1200" width="350" height="550.74" as="geometry" />
          </mxCell>
        </UserObject>
        <UserObject label="" plantUmlData="{&#xa;  &quot;data&quot;: &quot;@startuml\n!define RECTANGLE class\n\nactor User\nparticipant \&quot;合规性规则验证\&quot; as ComplianceModule\nparticipant \&quot;审计日志\&quot; as AuditLog\n\nUser -&gt; ComplianceModule: 提交文档\nactivate ComplianceModule\nComplianceModule -&gt; ComplianceModule: 检查合规性规则\nComplianceModule --&gt; User: 合规\nComplianceModule -&gt; AuditLog: 记录合规文档\ndeactivate ComplianceModule\n\nUser -&gt; ComplianceModule: 提交文档\nactivate ComplianceModule\nComplianceModule -&gt; ComplianceModule: 检查合规性规则\nComplianceModule --&gt; User: 违规\nComplianceModule -&gt; AuditLog: 记录违规文档\ndeactivate ComplianceModule\n@enduml\n&quot;,&#xa;  &quot;format&quot;: &quot;svg&quot;&#xa;}" id="M7jX5-5myOD5qC9-YFXW-28">
          <mxCell style="shape=image;noLabel=1;verticalAlign=top;aspect=fixed;imageAspect=0;image=data:image/svg+xml,PD94bWwgdmVyc2lvbj0iMS4wIiBlbmNvZGluZz0idXMtYXNjaWkiIHN0YW5kYWxvbmU9Im5vIj8+PHN2ZyB4bWxucz0iaHR0cDovL3d3dy53My5vcmcvMjAwMC9zdmciIHhtbG5zOnhsaW5rPSJodHRwOi8vd3d3LnczLm9yZy8xOTk5L3hsaW5rIiBjb250ZW50U3R5bGVUeXBlPSJ0ZXh0L2NzcyIgaGVpZ2h0PSI0MjhweCIgcHJlc2VydmVBc3BlY3RSYXRpbz0ibm9uZSIgc3R5bGU9IndpZHRoOjI2MXB4O2hlaWdodDo0MjhweDtiYWNrZ3JvdW5kOiNGRkZGRkY7IiB2ZXJzaW9uPSIxLjEiIHZpZXdCb3g9IjAgMCAyNjEgNDI4IiB3aWR0aD0iMjYxcHgiIHpvb21BbmRQYW49Im1hZ25pZnkiPjxkZWZzLz48Zz48cmVjdCBmaWxsPSIjRkZGRkZGIiBoZWlnaHQ9Ijk2Ljc0MjIiIHN0eWxlPSJzdHJva2U6IzE4MTgxODtzdHJva2Utd2lkdGg6MS4wOyIgd2lkdGg9IjEwIiB4PSIxMDAiIHk9IjEwOS44OTg0Ii8+PHJlY3QgZmlsbD0iI0ZGRkZGRiIgaGVpZ2h0PSI5Ni43NDIyIiBzdHlsZT0ic3Ryb2tlOiMxODE4MTg7c3Ryb2tlLXdpZHRoOjEuMDsiIHdpZHRoPSIxMCIgeD0iMTAwIiB5PSIyMzQuNTU0NyIvPjxsaW5lIHN0eWxlPSJzdHJva2U6IzE4MTgxODtzdHJva2Utd2lkdGg6MC41O3N0cm9rZS1kYXNoYXJyYXk6NS4wLDUuMDsiIHgxPSIyMiIgeDI9IjIyIiB5MT0iNzkuOTg0NCIgeTI9IjM0OS4yOTY5Ii8+PGxpbmUgc3R5bGU9InN0cm9rZTojMTgxODE4O3N0cm9rZS13aWR0aDowLjU7c3Ryb2tlLWRhc2hhcnJheTo1LjAsNS4wOyIgeDE9IjEwNSIgeDI9IjEwNSIgeTE9Ijc5Ljk4NDQiIHkyPSIzNDkuMjk2OSIvPjxsaW5lIHN0eWxlPSJzdHJva2U6IzE4MTgxODtzdHJva2Utd2lkdGg6MC41O3N0cm9rZS1kYXNoYXJyYXk6NS4wLDUuMDsiIHgxPSIyMjAiIHgyPSIyMjAiIHkxPSI3OS45ODQ0IiB5Mj0iMzQ5LjI5NjkiLz48dGV4dCBmaWxsPSIjMDAwMDAwIiBmb250LWZhbWlseT0ic2Fucy1zZXJpZiIgZm9udC1zaXplPSIxNCIgbGVuZ3RoQWRqdXN0PSJzcGFjaW5nIiB0ZXh0TGVuZ3RoPSIyOCIgeD0iNSIgeT0iNzguMjM0NCI+VXNlcjwvdGV4dD48ZWxsaXBzZSBjeD0iMjIiIGN5PSIxMy41IiBmaWxsPSIjRTJFMkYwIiByeD0iOCIgcnk9IjgiIHN0eWxlPSJzdHJva2U6IzE4MTgxODtzdHJva2Utd2lkdGg6MC41OyIvPjxwYXRoIGQ9Ik0yMiwyMS41IEwyMiw0OC41IE05LDI5LjUgTDM1LDI5LjUgTTIyLDQ4LjUgTDksNjMuNSBNMjIsNDguNSBMMzUsNjMuNSAiIGZpbGw9Im5vbmUiIHN0eWxlPSJzdHJva2U6IzE4MTgxODtzdHJva2Utd2lkdGg6MC41OyIvPjx0ZXh0IGZpbGw9IiMwMDAwMDAiIGZvbnQtZmFtaWx5PSJzYW5zLXNlcmlmIiBmb250LXNpemU9IjE0IiBsZW5ndGhBZGp1c3Q9InNwYWNpbmciIHRleHRMZW5ndGg9IjI4IiB4PSI1IiB5PSIzNjEuNTMxMyI+VXNlcjwvdGV4dD48ZWxsaXBzZSBjeD0iMjIiIGN5PSIzNzEuNzgxMyIgZmlsbD0iI0UyRTJGMCIgcng9IjgiIHJ5PSI4IiBzdHlsZT0ic3Ryb2tlOiMxODE4MTg7c3Ryb2tlLXdpZHRoOjAuNTsiLz48cGF0aCBkPSJNMjIsMzc5Ljc4MTMgTDIyLDQwNi43ODEzIE05LDM4Ny43ODEzIEwzNSwzODcuNzgxMyBNMjIsNDA2Ljc4MTMgTDksNDIxLjc4MTMgTTIyLDQwNi43ODEzIEwzNSw0MjEuNzgxMyAiIGZpbGw9Im5vbmUiIHN0eWxlPSJzdHJva2U6IzE4MTgxODtzdHJva2Utd2lkdGg6MC41OyIvPjxyZWN0IGZpbGw9IiNFMkUyRjAiIGhlaWdodD0iMjguOTg0NCIgcng9IjIuNSIgcnk9IjIuNSIgc3R5bGU9InN0cm9rZTojMTgxODE4O3N0cm9rZS13aWR0aDowLjU7IiB3aWR0aD0iMTEyIiB4PSI0OSIgeT0iNTAiLz48dGV4dCBmaWxsPSIjMDAwMDAwIiBmb250LWZhbWlseT0ic2Fucy1zZXJpZiIgZm9udC1zaXplPSIxNCIgbGVuZ3RoQWRqdXN0PSJzcGFjaW5nIiB0ZXh0TGVuZ3RoPSI5OCIgeD0iNTYiIHk9IjcwLjIzNDQiPiYjMjE1MTI7JiMzNTI2ODsmIzI0NjE1OyYjMzUyNjg7JiMyMTAxNzsmIzM5NTY0OyYjMzU3Nzc7PC90ZXh0PjxyZWN0IGZpbGw9IiNFMkUyRjAiIGhlaWdodD0iMjguOTg0NCIgcng9IjIuNSIgcnk9IjIuNSIgc3R5bGU9InN0cm9rZTojMTgxODE4O3N0cm9rZS13aWR0aDowLjU7IiB3aWR0aD0iMTEyIiB4PSI0OSIgeT0iMzQ4LjI5NjkiLz48dGV4dCBmaWxsPSIjMDAwMDAwIiBmb250LWZhbWlseT0ic2Fucy1zZXJpZiIgZm9udC1zaXplPSIxNCIgbGVuZ3RoQWRqdXN0PSJzcGFjaW5nIiB0ZXh0TGVuZ3RoPSI5OCIgeD0iNTYiIHk9IjM2OC41MzEzIj4mIzIxNTEyOyYjMzUyNjg7JiMyNDYxNTsmIzM1MjY4OyYjMjEwMTc7JiMzOTU2NDsmIzM1Nzc3OzwvdGV4dD48cmVjdCBmaWxsPSIjRTJFMkYwIiBoZWlnaHQ9IjI4Ljk4NDQiIHJ4PSIyLjUiIHJ5PSIyLjUiIHN0eWxlPSJzdHJva2U6IzE4MTgxODtzdHJva2Utd2lkdGg6MC41OyIgd2lkdGg9IjcwIiB4PSIxODUiIHk9IjUwIi8+PHRleHQgZmlsbD0iIzAwMDAwMCIgZm9udC1mYW1pbHk9InNhbnMtc2VyaWYiIGZvbnQtc2l6ZT0iMTQiIGxlbmd0aEFkanVzdD0ic3BhY2luZyIgdGV4dExlbmd0aD0iNTYiIHg9IjE5MiIgeT0iNzAuMjM0NCI+JiMyMzQ1NzsmIzM1NzQ1OyYjMjYwODU7JiMyNDUzNTs8L3RleHQ+PHJlY3QgZmlsbD0iI0UyRTJGMCIgaGVpZ2h0PSIyOC45ODQ0IiByeD0iMi41IiByeT0iMi41IiBzdHlsZT0ic3Ryb2tlOiMxODE4MTg7c3Ryb2tlLXdpZHRoOjAuNTsiIHdpZHRoPSI3MCIgeD0iMTg1IiB5PSIzNDguMjk2OSIvPjx0ZXh0IGZpbGw9IiMwMDAwMDAiIGZvbnQtZmFtaWx5PSJzYW5zLXNlcmlmIiBmb250LXNpemU9IjE0IiBsZW5ndGhBZGp1c3Q9InNwYWNpbmciIHRleHRMZW5ndGg9IjU2IiB4PSIxOTIiIHk9IjM2OC41MzEzIj4mIzIzNDU3OyYjMzU3NDU7JiMyNjA4NTsmIzI0NTM1OzwvdGV4dD48cmVjdCBmaWxsPSIjRkZGRkZGIiBoZWlnaHQ9Ijk2Ljc0MjIiIHN0eWxlPSJzdHJva2U6IzE4MTgxODtzdHJva2Utd2lkdGg6MS4wOyIgd2lkdGg9IjEwIiB4PSIxMDAiIHk9IjEwOS44OTg0Ii8+PHJlY3QgZmlsbD0iI0ZGRkZGRiIgaGVpZ2h0PSI5Ni43NDIyIiBzdHlsZT0ic3Ryb2tlOiMxODE4MTg7c3Ryb2tlLXdpZHRoOjEuMDsiIHdpZHRoPSIxMCIgeD0iMTAwIiB5PSIyMzQuNTU0NyIvPjxwb2x5Z29uIGZpbGw9IiMxODE4MTgiIHBvaW50cz0iODgsMTA1Ljg5ODQsOTgsMTA5Ljg5ODQsODgsMTEzLjg5ODQsOTIsMTA5Ljg5ODQiIHN0eWxlPSJzdHJva2U6IzE4MTgxODtzdHJva2Utd2lkdGg6MS4wOyIvPjxsaW5lIHN0eWxlPSJzdHJva2U6IzE4MTgxODtzdHJva2Utd2lkdGg6MS4wOyIgeDE9IjIyIiB4Mj0iOTQiIHkxPSIxMDkuODk4NCIgeTI9IjEwOS44OTg0Ii8+PHRleHQgZmlsbD0iIzAwMDAwMCIgZm9udC1mYW1pbHk9InNhbnMtc2VyaWYiIGZvbnQtc2l6ZT0iMTMiIGxlbmd0aEFkanVzdD0ic3BhY2luZyIgdGV4dExlbmd0aD0iNTIiIHg9IjI5IiB5PSIxMDYuMjczNCI+JiMyNTU1MjsmIzIwMTMyOyYjMjU5OTE7JiMyNjcyMzs8L3RleHQ+PGxpbmUgc3R5bGU9InN0cm9rZTojMTgxODE4O3N0cm9rZS13aWR0aDoxLjA7IiB4MT0iMTEwIiB4Mj0iMTUyIiB5MT0iMTM3LjgxMjUiIHkyPSIxMzcuODEyNSIvPjxsaW5lIHN0eWxlPSJzdHJva2U6IzE4MTgxODtzdHJva2Utd2lkdGg6MS4wOyIgeDE9IjE1MiIgeDI9IjE1MiIgeTE9IjEzNy44MTI1IiB5Mj0iMTUwLjgxMjUiLz48bGluZSBzdHlsZT0ic3Ryb2tlOiMxODE4MTg7c3Ryb2tlLXdpZHRoOjEuMDsiIHgxPSIxMTEiIHgyPSIxNTIiIHkxPSIxNTAuODEyNSIgeTI9IjE1MC44MTI1Ii8+PHBvbHlnb24gZmlsbD0iIzE4MTgxOCIgcG9pbnRzPSIxMjEsMTQ2LjgxMjUsMTExLDE1MC44MTI1LDEyMSwxNTQuODEyNSwxMTcsMTUwLjgxMjUiIHN0eWxlPSJzdHJva2U6IzE4MTgxODtzdHJva2Utd2lkdGg6MS4wOyIvPjx0ZXh0IGZpbGw9IiMwMDAwMDAiIGZvbnQtZmFtaWx5PSJzYW5zLXNlcmlmIiBmb250LXNpemU9IjEzIiBsZW5ndGhBZGp1c3Q9InNwYWNpbmciIHRleHRMZW5ndGg9IjkxIiB4PSIxMTciIHk9IjEzNC4xODc1Ij4mIzI2ODE2OyYjMjY1OTc7JiMyMTUxMjsmIzM1MjY4OyYjMjQ2MTU7JiMzNTI2ODsmIzIxMDE3OzwvdGV4dD48cG9seWdvbiBmaWxsPSIjMTgxODE4IiBwb2ludHM9IjMzLDE3NC43MjY2LDIzLDE3OC43MjY2LDMzLDE4Mi43MjY2LDI5LDE3OC43MjY2IiBzdHlsZT0ic3Ryb2tlOiMxODE4MTg7c3Ryb2tlLXdpZHRoOjEuMDsiLz48bGluZSBzdHlsZT0ic3Ryb2tlOiMxODE4MTg7c3Ryb2tlLXdpZHRoOjEuMDtzdHJva2UtZGFzaGFycmF5OjIuMCwyLjA7IiB4MT0iMjciIHgyPSI5OSIgeTE9IjE3OC43MjY2IiB5Mj0iMTc4LjcyNjYiLz48dGV4dCBmaWxsPSIjMDAwMDAwIiBmb250LWZhbWlseT0ic2Fucy1zZXJpZiIgZm9udC1zaXplPSIxMyIgbGVuZ3RoQWRqdXN0PSJzcGFjaW5nIiB0ZXh0TGVuZ3RoPSIyNiIgeD0iMzkiIHk9IjE3NS4xMDE2Ij4mIzIxNTEyOyYjMzUyNjg7PC90ZXh0Pjxwb2x5Z29uIGZpbGw9IiMxODE4MTgiIHBvaW50cz0iMjA4LDIwMi42NDA2LDIxOCwyMDYuNjQwNiwyMDgsMjEwLjY0MDYsMjEyLDIwNi42NDA2IiBzdHlsZT0ic3Ryb2tlOiMxODE4MTg7c3Ryb2tlLXdpZHRoOjEuMDsiLz48bGluZSBzdHlsZT0ic3Ryb2tlOiMxODE4MTg7c3Ryb2tlLXdpZHRoOjEuMDsiIHgxPSIxMDUiIHgyPSIyMTQiIHkxPSIyMDYuNjQwNiIgeTI9IjIwNi42NDA2Ii8+PHRleHQgZmlsbD0iIzAwMDAwMCIgZm9udC1mYW1pbHk9InNhbnMtc2VyaWYiIGZvbnQtc2l6ZT0iMTMiIGxlbmd0aEFkanVzdD0ic3BhY2luZyIgdGV4dExlbmd0aD0iNzgiIHg9IjExMiIgeT0iMjAzLjAxNTYiPiYjMzU3NjA7JiMyNDQwNTsmIzIxNTEyOyYjMzUyNjg7JiMyNTk5MTsmIzI2NzIzOzwvdGV4dD48cG9seWdvbiBmaWxsPSIjMTgxODE4IiBwb2ludHM9Ijg4LDIzMC41NTQ3LDk4LDIzNC41NTQ3LDg4LDIzOC41NTQ3LDkyLDIzNC41NTQ3IiBzdHlsZT0ic3Ryb2tlOiMxODE4MTg7c3Ryb2tlLXdpZHRoOjEuMDsiLz48bGluZSBzdHlsZT0ic3Ryb2tlOiMxODE4MTg7c3Ryb2tlLXdpZHRoOjEuMDsiIHgxPSIyMiIgeDI9Ijk0IiB5MT0iMjM0LjU1NDciIHkyPSIyMzQuNTU0NyIvPjx0ZXh0IGZpbGw9IiMwMDAwMDAiIGZvbnQtZmFtaWx5PSJzYW5zLXNlcmlmIiBmb250LXNpemU9IjEzIiBsZW5ndGhBZGp1c3Q9InNwYWNpbmciIHRleHRMZW5ndGg9IjUyIiB4PSIyOSIgeT0iMjMwLjkyOTciPiYjMjU1NTI7JiMyMDEzMjsmIzI1OTkxOyYjMjY3MjM7PC90ZXh0PjxsaW5lIHN0eWxlPSJzdHJva2U6IzE4MTgxODtzdHJva2Utd2lkdGg6MS4wOyIgeDE9IjExMCIgeDI9IjE1MiIgeTE9IjI2Mi40Njg4IiB5Mj0iMjYyLjQ2ODgiLz48bGluZSBzdHlsZT0ic3Ryb2tlOiMxODE4MTg7c3Ryb2tlLXdpZHRoOjEuMDsiIHgxPSIxNTIiIHgyPSIxNTIiIHkxPSIyNjIuNDY4OCIgeTI9IjI3NS40Njg4Ii8+PGxpbmUgc3R5bGU9InN0cm9rZTojMTgxODE4O3N0cm9rZS13aWR0aDoxLjA7IiB4MT0iMTExIiB4Mj0iMTUyIiB5MT0iMjc1LjQ2ODgiIHkyPSIyNzUuNDY4OCIvPjxwb2x5Z29uIGZpbGw9IiMxODE4MTgiIHBvaW50cz0iMTIxLDI3MS40Njg4LDExMSwyNzUuNDY4OCwxMjEsMjc5LjQ2ODgsMTE3LDI3NS40Njg4IiBzdHlsZT0ic3Ryb2tlOiMxODE4MTg7c3Ryb2tlLXdpZHRoOjEuMDsiLz48dGV4dCBmaWxsPSIjMDAwMDAwIiBmb250LWZhbWlseT0ic2Fucy1zZXJpZiIgZm9udC1zaXplPSIxMyIgbGVuZ3RoQWRqdXN0PSJzcGFjaW5nIiB0ZXh0TGVuZ3RoPSI5MSIgeD0iMTE3IiB5PSIyNTguODQzOCI+JiMyNjgxNjsmIzI2NTk3OyYjMjE1MTI7JiMzNTI2ODsmIzI0NjE1OyYjMzUyNjg7JiMyMTAxNzs8L3RleHQ+PHBvbHlnb24gZmlsbD0iIzE4MTgxOCIgcG9pbnRzPSIzMywyOTkuMzgyOCwyMywzMDMuMzgyOCwzMywzMDcuMzgyOCwyOSwzMDMuMzgyOCIgc3R5bGU9InN0cm9rZTojMTgxODE4O3N0cm9rZS13aWR0aDoxLjA7Ii8+PGxpbmUgc3R5bGU9InN0cm9rZTojMTgxODE4O3N0cm9rZS13aWR0aDoxLjA7c3Ryb2tlLWRhc2hhcnJheToyLjAsMi4wOyIgeDE9IjI3IiB4Mj0iOTkiIHkxPSIzMDMuMzgyOCIgeTI9IjMwMy4zODI4Ii8+PHRleHQgZmlsbD0iIzAwMDAwMCIgZm9udC1mYW1pbHk9InNhbnMtc2VyaWYiIGZvbnQtc2l6ZT0iMTMiIGxlbmd0aEFkanVzdD0ic3BhY2luZyIgdGV4dExlbmd0aD0iMjYiIHg9IjM5IiB5PSIyOTkuNzU3OCI+JiMzNjgyOTsmIzM1MjY4OzwvdGV4dD48cG9seWdvbiBmaWxsPSIjMTgxODE4IiBwb2ludHM9IjIwOCwzMjcuMjk2OSwyMTgsMzMxLjI5NjksMjA4LDMzNS4yOTY5LDIxMiwzMzEuMjk2OSIgc3R5bGU9InN0cm9rZTojMTgxODE4O3N0cm9rZS13aWR0aDoxLjA7Ii8+PGxpbmUgc3R5bGU9InN0cm9rZTojMTgxODE4O3N0cm9rZS13aWR0aDoxLjA7IiB4MT0iMTA1IiB4Mj0iMjE0IiB5MT0iMzMxLjI5NjkiIHkyPSIzMzEuMjk2OSIvPjx0ZXh0IGZpbGw9IiMwMDAwMDAiIGZvbnQtZmFtaWx5PSJzYW5zLXNlcmlmIiBmb250LXNpemU9IjEzIiBsZW5ndGhBZGp1c3Q9InNwYWNpbmciIHRleHRMZW5ndGg9Ijc4IiB4PSIxMTIiIHk9IjMyNy42NzE5Ij4mIzM1NzYwOyYjMjQ0MDU7JiMzNjgyOTsmIzM1MjY4OyYjMjU5OTE7JiMyNjcyMzs8L3RleHQ+PCEtLVNSQz1bS3FuOUpTbENJcks4U2RLRVNWSHB6dDVMSUN2OUIyeGN1YWZDQmlhbEtXV2pKWXRZQWFXaUFpYkNwWW44cDJqSEs3ZXdlVUY1eWZQZDNTazF2REVFY0l6TnpSbk90d1lhYTVZaXU5b1ZNdjJKY1BZTmRFZ1JkckFRYXVnY1J6dDI1LWlNRmZrLXpFZC13TTNiWmdLZmNJSy0gLVViU04yMUI1N0pqQzBvbUtkWk1GLTc5aFlORmZoS19NeFdPdkFCQ2lpSUlMNG9CcTBMbTZCUXV1VGR5Zk1aa253OE5nMWRhOFlpNVk1QWlmaUNTUndObU9qczZmdGtkR2FzNUUzR2I1UlRKMXdyZE4tb1ZJd25kOEtlOVVuTzBdLS0+PC9nPjwvc3ZnPg==;" vertex="1" parent="1">
            <mxGeometry x="-770" y="1810" width="340" height="557.55" as="geometry" />
          </mxCell>
        </UserObject>
        <UserObject label="" plantUmlData="{&#xa;  &quot;data&quot;: &quot;@startuml\n!define RECTANGLE class\n\nactor User\nparticipant \&quot;数据隐私保护\&quot; as DataPrivacyModule\nparticipant \&quot;审计日志\&quot; as AuditLog\n\nUser -&gt; DataPrivacyModule: 提交文档\nactivate DataPrivacyModule\nDataPrivacyModule -&gt; DataPrivacyModule: 检测敏感信息\nDataPrivacyModule --&gt; User: 保护文档\nDataPrivacyModule -&gt; AuditLog: 记录敏感信息检测\ndeactivate DataPrivacyModule\n\nUser -&gt; DataPrivacyModule: 提交文档\nactivate DataPrivacyModule\nDataPrivacyModule -&gt; DataPrivacyModule: 检测敏感信息\nDataPrivacyModule --&gt; User: 不保护文档\nDataPrivacyModule -&gt; AuditLog: 记录敏感信息检测\ndeactivate DataPrivacyModule\n@enduml\n&quot;,&#xa;  &quot;format&quot;: &quot;svg&quot;&#xa;}" id="M7jX5-5myOD5qC9-YFXW-29">
          <mxCell style="shape=image;noLabel=1;verticalAlign=top;aspect=fixed;imageAspect=0;image=data:image/svg+xml,PD94bWwgdmVyc2lvbj0iMS4wIiBlbmNvZGluZz0idXMtYXNjaWkiIHN0YW5kYWxvbmU9Im5vIj8+PHN2ZyB4bWxucz0iaHR0cDovL3d3dy53My5vcmcvMjAwMC9zdmciIHhtbG5zOnhsaW5rPSJodHRwOi8vd3d3LnczLm9yZy8xOTk5L3hsaW5rIiBjb250ZW50U3R5bGVUeXBlPSJ0ZXh0L2NzcyIgaGVpZ2h0PSI0MjhweCIgcHJlc2VydmVBc3BlY3RSYXRpbz0ibm9uZSIgc3R5bGU9IndpZHRoOjI5MHB4O2hlaWdodDo0MjhweDtiYWNrZ3JvdW5kOiNGRkZGRkY7IiB2ZXJzaW9uPSIxLjEiIHZpZXdCb3g9IjAgMCAyOTAgNDI4IiB3aWR0aD0iMjkwcHgiIHpvb21BbmRQYW49Im1hZ25pZnkiPjxkZWZzLz48Zz48cmVjdCBmaWxsPSIjRkZGRkZGIiBoZWlnaHQ9Ijk2Ljc0MjIiIHN0eWxlPSJzdHJva2U6IzE4MTgxODtzdHJva2Utd2lkdGg6MS4wOyIgd2lkdGg9IjEwIiB4PSIxMTEiIHk9IjEwOS44OTg0Ii8+PHJlY3QgZmlsbD0iI0ZGRkZGRiIgaGVpZ2h0PSI5Ni43NDIyIiBzdHlsZT0ic3Ryb2tlOiMxODE4MTg7c3Ryb2tlLXdpZHRoOjEuMDsiIHdpZHRoPSIxMCIgeD0iMTExIiB5PSIyMzQuNTU0NyIvPjxsaW5lIHN0eWxlPSJzdHJva2U6IzE4MTgxODtzdHJva2Utd2lkdGg6MC41O3N0cm9rZS1kYXNoYXJyYXk6NS4wLDUuMDsiIHgxPSIyMiIgeDI9IjIyIiB5MT0iNzkuOTg0NCIgeTI9IjM0OS4yOTY5Ii8+PGxpbmUgc3R5bGU9InN0cm9rZTojMTgxODE4O3N0cm9rZS13aWR0aDowLjU7c3Ryb2tlLWRhc2hhcnJheTo1LjAsNS4wOyIgeDE9IjExNiIgeDI9IjExNiIgeTE9Ijc5Ljk4NDQiIHkyPSIzNDkuMjk2OSIvPjxsaW5lIHN0eWxlPSJzdHJva2U6IzE4MTgxODtzdHJva2Utd2lkdGg6MC41O3N0cm9rZS1kYXNoYXJyYXk6NS4wLDUuMDsiIHgxPSIyNDkiIHgyPSIyNDkiIHkxPSI3OS45ODQ0IiB5Mj0iMzQ5LjI5NjkiLz48dGV4dCBmaWxsPSIjMDAwMDAwIiBmb250LWZhbWlseT0ic2Fucy1zZXJpZiIgZm9udC1zaXplPSIxNCIgbGVuZ3RoQWRqdXN0PSJzcGFjaW5nIiB0ZXh0TGVuZ3RoPSIyOCIgeD0iNSIgeT0iNzguMjM0NCI+VXNlcjwvdGV4dD48ZWxsaXBzZSBjeD0iMjIiIGN5PSIxMy41IiBmaWxsPSIjRTJFMkYwIiByeD0iOCIgcnk9IjgiIHN0eWxlPSJzdHJva2U6IzE4MTgxODtzdHJva2Utd2lkdGg6MC41OyIvPjxwYXRoIGQ9Ik0yMiwyMS41IEwyMiw0OC41IE05LDI5LjUgTDM1LDI5LjUgTTIyLDQ4LjUgTDksNjMuNSBNMjIsNDguNSBMMzUsNjMuNSAiIGZpbGw9Im5vbmUiIHN0eWxlPSJzdHJva2U6IzE4MTgxODtzdHJva2Utd2lkdGg6MC41OyIvPjx0ZXh0IGZpbGw9IiMwMDAwMDAiIGZvbnQtZmFtaWx5PSJzYW5zLXNlcmlmIiBmb250LXNpemU9IjE0IiBsZW5ndGhBZGp1c3Q9InNwYWNpbmciIHRleHRMZW5ndGg9IjI4IiB4PSI1IiB5PSIzNjEuNTMxMyI+VXNlcjwvdGV4dD48ZWxsaXBzZSBjeD0iMjIiIGN5PSIzNzEuNzgxMyIgZmlsbD0iI0UyRTJGMCIgcng9IjgiIHJ5PSI4IiBzdHlsZT0ic3Ryb2tlOiMxODE4MTg7c3Ryb2tlLXdpZHRoOjAuNTsiLz48cGF0aCBkPSJNMjIsMzc5Ljc4MTMgTDIyLDQwNi43ODEzIE05LDM4Ny43ODEzIEwzNSwzODcuNzgxMyBNMjIsNDA2Ljc4MTMgTDksNDIxLjc4MTMgTTIyLDQwNi43ODEzIEwzNSw0MjEuNzgxMyAiIGZpbGw9Im5vbmUiIHN0eWxlPSJzdHJva2U6IzE4MTgxODtzdHJva2Utd2lkdGg6MC41OyIvPjxyZWN0IGZpbGw9IiNFMkUyRjAiIGhlaWdodD0iMjguOTg0NCIgcng9IjIuNSIgcnk9IjIuNSIgc3R5bGU9InN0cm9rZTojMTgxODE4O3N0cm9rZS13aWR0aDowLjU7IiB3aWR0aD0iOTgiIHg9IjY3IiB5PSI1MCIvPjx0ZXh0IGZpbGw9IiMwMDAwMDAiIGZvbnQtZmFtaWx5PSJzYW5zLXNlcmlmIiBmb250LXNpemU9IjE0IiBsZW5ndGhBZGp1c3Q9InNwYWNpbmciIHRleHRMZW5ndGg9Ijg0IiB4PSI3NCIgeT0iNzAuMjM0NCI+JiMyNTk2ODsmIzI1NDU0OyYjMzg1NDQ7JiMzMTE2OTsmIzIwNDQ1OyYjMjUyNTI7PC90ZXh0PjxyZWN0IGZpbGw9IiNFMkUyRjAiIGhlaWdodD0iMjguOTg0NCIgcng9IjIuNSIgcnk9IjIuNSIgc3R5bGU9InN0cm9rZTojMTgxODE4O3N0cm9rZS13aWR0aDowLjU7IiB3aWR0aD0iOTgiIHg9IjY3IiB5PSIzNDguMjk2OSIvPjx0ZXh0IGZpbGw9IiMwMDAwMDAiIGZvbnQtZmFtaWx5PSJzYW5zLXNlcmlmIiBmb250LXNpemU9IjE0IiBsZW5ndGhBZGp1c3Q9InNwYWNpbmciIHRleHRMZW5ndGg9Ijg0IiB4PSI3NCIgeT0iMzY4LjUzMTMiPiYjMjU5Njg7JiMyNTQ1NDsmIzM4NTQ0OyYjMzExNjk7JiMyMDQ0NTsmIzI1MjUyOzwvdGV4dD48cmVjdCBmaWxsPSIjRTJFMkYwIiBoZWlnaHQ9IjI4Ljk4NDQiIHJ4PSIyLjUiIHJ5PSIyLjUiIHN0eWxlPSJzdHJva2U6IzE4MTgxODtzdHJva2Utd2lkdGg6MC41OyIgd2lkdGg9IjcwIiB4PSIyMTQiIHk9IjUwIi8+PHRleHQgZmlsbD0iIzAwMDAwMCIgZm9udC1mYW1pbHk9InNhbnMtc2VyaWYiIGZvbnQtc2l6ZT0iMTQiIGxlbmd0aEFkanVzdD0ic3BhY2luZyIgdGV4dExlbmd0aD0iNTYiIHg9IjIyMSIgeT0iNzAuMjM0NCI+JiMyMzQ1NzsmIzM1NzQ1OyYjMjYwODU7JiMyNDUzNTs8L3RleHQ+PHJlY3QgZmlsbD0iI0UyRTJGMCIgaGVpZ2h0PSIyOC45ODQ0IiByeD0iMi41IiByeT0iMi41IiBzdHlsZT0ic3Ryb2tlOiMxODE4MTg7c3Ryb2tlLXdpZHRoOjAuNTsiIHdpZHRoPSI3MCIgeD0iMjE0IiB5PSIzNDguMjk2OSIvPjx0ZXh0IGZpbGw9IiMwMDAwMDAiIGZvbnQtZmFtaWx5PSJzYW5zLXNlcmlmIiBmb250LXNpemU9IjE0IiBsZW5ndGhBZGp1c3Q9InNwYWNpbmciIHRleHRMZW5ndGg9IjU2IiB4PSIyMjEiIHk9IjM2OC41MzEzIj4mIzIzNDU3OyYjMzU3NDU7JiMyNjA4NTsmIzI0NTM1OzwvdGV4dD48cmVjdCBmaWxsPSIjRkZGRkZGIiBoZWlnaHQ9Ijk2Ljc0MjIiIHN0eWxlPSJzdHJva2U6IzE4MTgxODtzdHJva2Utd2lkdGg6MS4wOyIgd2lkdGg9IjEwIiB4PSIxMTEiIHk9IjEwOS44OTg0Ii8+PHJlY3QgZmlsbD0iI0ZGRkZGRiIgaGVpZ2h0PSI5Ni43NDIyIiBzdHlsZT0ic3Ryb2tlOiMxODE4MTg7c3Ryb2tlLXdpZHRoOjEuMDsiIHdpZHRoPSIxMCIgeD0iMTExIiB5PSIyMzQuNTU0NyIvPjxwb2x5Z29uIGZpbGw9IiMxODE4MTgiIHBvaW50cz0iOTksMTA1Ljg5ODQsMTA5LDEwOS44OTg0LDk5LDExMy44OTg0LDEwMywxMDkuODk4NCIgc3R5bGU9InN0cm9rZTojMTgxODE4O3N0cm9rZS13aWR0aDoxLjA7Ii8+PGxpbmUgc3R5bGU9InN0cm9rZTojMTgxODE4O3N0cm9rZS13aWR0aDoxLjA7IiB4MT0iMjIiIHgyPSIxMDUiIHkxPSIxMDkuODk4NCIgeTI9IjEwOS44OTg0Ii8+PHRleHQgZmlsbD0iIzAwMDAwMCIgZm9udC1mYW1pbHk9InNhbnMtc2VyaWYiIGZvbnQtc2l6ZT0iMTMiIGxlbmd0aEFkanVzdD0ic3BhY2luZyIgdGV4dExlbmd0aD0iNTIiIHg9IjI5IiB5PSIxMDYuMjczNCI+JiMyNTU1MjsmIzIwMTMyOyYjMjU5OTE7JiMyNjcyMzs8L3RleHQ+PGxpbmUgc3R5bGU9InN0cm9rZTojMTgxODE4O3N0cm9rZS13aWR0aDoxLjA7IiB4MT0iMTIxIiB4Mj0iMTYzIiB5MT0iMTM3LjgxMjUiIHkyPSIxMzcuODEyNSIvPjxsaW5lIHN0eWxlPSJzdHJva2U6IzE4MTgxODtzdHJva2Utd2lkdGg6MS4wOyIgeDE9IjE2MyIgeDI9IjE2MyIgeTE9IjEzNy44MTI1IiB5Mj0iMTUwLjgxMjUiLz48bGluZSBzdHlsZT0ic3Ryb2tlOiMxODE4MTg7c3Ryb2tlLXdpZHRoOjEuMDsiIHgxPSIxMjIiIHgyPSIxNjMiIHkxPSIxNTAuODEyNSIgeTI9IjE1MC44MTI1Ii8+PHBvbHlnb24gZmlsbD0iIzE4MTgxOCIgcG9pbnRzPSIxMzIsMTQ2LjgxMjUsMTIyLDE1MC44MTI1LDEzMiwxNTQuODEyNSwxMjgsMTUwLjgxMjUiIHN0eWxlPSJzdHJva2U6IzE4MTgxODtzdHJva2Utd2lkdGg6MS4wOyIvPjx0ZXh0IGZpbGw9IiMwMDAwMDAiIGZvbnQtZmFtaWx5PSJzYW5zLXNlcmlmIiBmb250LXNpemU9IjEzIiBsZW5ndGhBZGp1c3Q9InNwYWNpbmciIHRleHRMZW5ndGg9Ijc4IiB4PSIxMjgiIHk9IjEzNC4xODc1Ij4mIzI2ODE2OyYjMjc5Nzk7JiMyNTkzNTsmIzI0ODYzOyYjMjA0NDk7JiMyNDY4Nzs8L3RleHQ+PHBvbHlnb24gZmlsbD0iIzE4MTgxOCIgcG9pbnRzPSIzMywxNzQuNzI2NiwyMywxNzguNzI2NiwzMywxODIuNzI2NiwyOSwxNzguNzI2NiIgc3R5bGU9InN0cm9rZTojMTgxODE4O3N0cm9rZS13aWR0aDoxLjA7Ii8+PGxpbmUgc3R5bGU9InN0cm9rZTojMTgxODE4O3N0cm9rZS13aWR0aDoxLjA7c3Ryb2tlLWRhc2hhcnJheToyLjAsMi4wOyIgeDE9IjI3IiB4Mj0iMTEwIiB5MT0iMTc4LjcyNjYiIHkyPSIxNzguNzI2NiIvPjx0ZXh0IGZpbGw9IiMwMDAwMDAiIGZvbnQtZmFtaWx5PSJzYW5zLXNlcmlmIiBmb250LXNpemU9IjEzIiBsZW5ndGhBZGp1c3Q9InNwYWNpbmciIHRleHRMZW5ndGg9IjUyIiB4PSIzOSIgeT0iMTc1LjEwMTYiPiYjMjA0NDU7JiMyNTI1MjsmIzI1OTkxOyYjMjY3MjM7PC90ZXh0Pjxwb2x5Z29uIGZpbGw9IiMxODE4MTgiIHBvaW50cz0iMjM3LDIwMi42NDA2LDI0NywyMDYuNjQwNiwyMzcsMjEwLjY0MDYsMjQxLDIwNi42NDA2IiBzdHlsZT0ic3Ryb2tlOiMxODE4MTg7c3Ryb2tlLXdpZHRoOjEuMDsiLz48bGluZSBzdHlsZT0ic3Ryb2tlOiMxODE4MTg7c3Ryb2tlLXdpZHRoOjEuMDsiIHgxPSIxMTYiIHgyPSIyNDMiIHkxPSIyMDYuNjQwNiIgeTI9IjIwNi42NDA2Ii8+PHRleHQgZmlsbD0iIzAwMDAwMCIgZm9udC1mYW1pbHk9InNhbnMtc2VyaWYiIGZvbnQtc2l6ZT0iMTMiIGxlbmd0aEFkanVzdD0ic3BhY2luZyIgdGV4dExlbmd0aD0iMTA0IiB4PSIxMjMiIHk9IjIwMy4wMTU2Ij4mIzM1NzYwOyYjMjQ0MDU7JiMyNTkzNTsmIzI0ODYzOyYjMjA0NDk7JiMyNDY4NzsmIzI2ODE2OyYjMjc5Nzk7PC90ZXh0Pjxwb2x5Z29uIGZpbGw9IiMxODE4MTgiIHBvaW50cz0iOTksMjMwLjU1NDcsMTA5LDIzNC41NTQ3LDk5LDIzOC41NTQ3LDEwMywyMzQuNTU0NyIgc3R5bGU9InN0cm9rZTojMTgxODE4O3N0cm9rZS13aWR0aDoxLjA7Ii8+PGxpbmUgc3R5bGU9InN0cm9rZTojMTgxODE4O3N0cm9rZS13aWR0aDoxLjA7IiB4MT0iMjIiIHgyPSIxMDUiIHkxPSIyMzQuNTU0NyIgeTI9IjIzNC41NTQ3Ii8+PHRleHQgZmlsbD0iIzAwMDAwMCIgZm9udC1mYW1pbHk9InNhbnMtc2VyaWYiIGZvbnQtc2l6ZT0iMTMiIGxlbmd0aEFkanVzdD0ic3BhY2luZyIgdGV4dExlbmd0aD0iNTIiIHg9IjI5IiB5PSIyMzAuOTI5NyI+JiMyNTU1MjsmIzIwMTMyOyYjMjU5OTE7JiMyNjcyMzs8L3RleHQ+PGxpbmUgc3R5bGU9InN0cm9rZTojMTgxODE4O3N0cm9rZS13aWR0aDoxLjA7IiB4MT0iMTIxIiB4Mj0iMTYzIiB5MT0iMjYyLjQ2ODgiIHkyPSIyNjIuNDY4OCIvPjxsaW5lIHN0eWxlPSJzdHJva2U6IzE4MTgxODtzdHJva2Utd2lkdGg6MS4wOyIgeDE9IjE2MyIgeDI9IjE2MyIgeTE9IjI2Mi40Njg4IiB5Mj0iMjc1LjQ2ODgiLz48bGluZSBzdHlsZT0ic3Ryb2tlOiMxODE4MTg7c3Ryb2tlLXdpZHRoOjEuMDsiIHgxPSIxMjIiIHgyPSIxNjMiIHkxPSIyNzUuNDY4OCIgeTI9IjI3NS40Njg4Ii8+PHBvbHlnb24gZmlsbD0iIzE4MTgxOCIgcG9pbnRzPSIxMzIsMjcxLjQ2ODgsMTIyLDI3NS40Njg4LDEzMiwyNzkuNDY4OCwxMjgsMjc1LjQ2ODgiIHN0eWxlPSJzdHJva2U6IzE4MTgxODtzdHJva2Utd2lkdGg6MS4wOyIvPjx0ZXh0IGZpbGw9IiMwMDAwMDAiIGZvbnQtZmFtaWx5PSJzYW5zLXNlcmlmIiBmb250LXNpemU9IjEzIiBsZW5ndGhBZGp1c3Q9InNwYWNpbmciIHRleHRMZW5ndGg9Ijc4IiB4PSIxMjgiIHk9IjI1OC44NDM4Ij4mIzI2ODE2OyYjMjc5Nzk7JiMyNTkzNTsmIzI0ODYzOyYjMjA0NDk7JiMyNDY4Nzs8L3RleHQ+PHBvbHlnb24gZmlsbD0iIzE4MTgxOCIgcG9pbnRzPSIzMywyOTkuMzgyOCwyMywzMDMuMzgyOCwzMywzMDcuMzgyOCwyOSwzMDMuMzgyOCIgc3R5bGU9InN0cm9rZTojMTgxODE4O3N0cm9rZS13aWR0aDoxLjA7Ii8+PGxpbmUgc3R5bGU9InN0cm9rZTojMTgxODE4O3N0cm9rZS13aWR0aDoxLjA7c3Ryb2tlLWRhc2hhcnJheToyLjAsMi4wOyIgeDE9IjI3IiB4Mj0iMTEwIiB5MT0iMzAzLjM4MjgiIHkyPSIzMDMuMzgyOCIvPjx0ZXh0IGZpbGw9IiMwMDAwMDAiIGZvbnQtZmFtaWx5PSJzYW5zLXNlcmlmIiBmb250LXNpemU9IjEzIiBsZW5ndGhBZGp1c3Q9InNwYWNpbmciIHRleHRMZW5ndGg9IjY1IiB4PSIzOSIgeT0iMjk5Ljc1NzgiPiYjMTk5ODE7JiMyMDQ0NTsmIzI1MjUyOyYjMjU5OTE7JiMyNjcyMzs8L3RleHQ+PHBvbHlnb24gZmlsbD0iIzE4MTgxOCIgcG9pbnRzPSIyMzcsMzI3LjI5NjksMjQ3LDMzMS4yOTY5LDIzNywzMzUuMjk2OSwyNDEsMzMxLjI5NjkiIHN0eWxlPSJzdHJva2U6IzE4MTgxODtzdHJva2Utd2lkdGg6MS4wOyIvPjxsaW5lIHN0eWxlPSJzdHJva2U6IzE4MTgxODtzdHJva2Utd2lkdGg6MS4wOyIgeDE9IjExNiIgeDI9IjI0MyIgeTE9IjMzMS4yOTY5IiB5Mj0iMzMxLjI5NjkiLz48dGV4dCBmaWxsPSIjMDAwMDAwIiBmb250LWZhbWlseT0ic2Fucy1zZXJpZiIgZm9udC1zaXplPSIxMyIgbGVuZ3RoQWRqdXN0PSJzcGFjaW5nIiB0ZXh0TGVuZ3RoPSIxMDQiIHg9IjEyMyIgeT0iMzI3LjY3MTkiPiYjMzU3NjA7JiMyNDQwNTsmIzI1OTM1OyYjMjQ4NjM7JiMyMDQ0OTsmIzI0Njg3OyYjMjY4MTY7JiMyNzk3OTs8L3RleHQ+PCEtLVNSQz1bS3FuOUpTbENJcks4U2RLRVNWSHB6dDVMSUN2OUIyeGN1YWZDQmlhbEtXV2pKWXRZQWFXaUFpYkNwWW44cDJqSEs3ZXNUU0VwdGRLbFBxcnVsaHBub1Z3dnB4Z01BMmFhNVlrdTk5T2ExWEhiYllLY0xfaGNmdkpjZkFCZ1VoZmt1T2pyMnZ6RE5fZnFfdEltVWlWSWJDbUlkX25xQll3RzVHZ3dUZldjTTJheXd2X21QRFVJUHpGUWRvclMzNzhHS0I4YTVPakw2MkF1cDVsU3k2bmh6eEVmX1N6UXZaX1BsXzFQdXRmaU1lNXdHTXdvS2UxdTNzZXpMWmpXbGgxSVVCNWttekV6S3Y2RFhiWjZiUEFBbi02M3NWQ3hVY2RrVm0wMF0tLT48L2c+PC9zdmc+;" vertex="1" parent="1">
            <mxGeometry x="-770" y="2380" width="340" height="501.79" as="geometry" />
          </mxCell>
        </UserObject>
        <UserObject label="" plantUmlData="{&#xa;  &quot;data&quot;: &quot;@startuml\n!define RECTANGLE class\n\nactor User\nparticipant \&quot;多因素身份验证\&quot; as MultiFactorAuthModule\nparticipant \&quot;审计日志\&quot; as AuditLog\n\nUser -&gt; MultiFactorAuthModule: 提交身份验证请求\nactivate MultiFactorAuthModule\nMultiFactorAuthModule -&gt; MultiFactorAuthModule: 验证身份\nMultiFactorAuthModule --&gt; User: 身份验证成功\nMultiFactorAuthModule -&gt; AuditLog: 记录身份验证成功\ndeactivate MultiFactorAuthModule\n\nUser -&gt; MultiFactorAuthModule: 提交身份验证请求\nactivate MultiFactorAuthModule\nMultiFactorAuthModule -&gt; MultiFactorAuthModule: 验证身份\nMultiFactorAuthModule --&gt; User: 身份验证失败\nMultiFactorAuthModule -&gt; AuditLog: 记录身份验证失败\ndeactivate MultiFactorAuthModule\n@enduml\n&quot;,&#xa;  &quot;format&quot;: &quot;svg&quot;&#xa;}" id="M7jX5-5myOD5qC9-YFXW-30">
          <mxCell style="shape=image;noLabel=1;verticalAlign=top;aspect=fixed;imageAspect=0;image=data:image/svg+xml,PD94bWwgdmVyc2lvbj0iMS4wIiBlbmNvZGluZz0idXMtYXNjaWkiIHN0YW5kYWxvbmU9Im5vIj8+PHN2ZyB4bWxucz0iaHR0cDovL3d3dy53My5vcmcvMjAwMC9zdmciIHhtbG5zOnhsaW5rPSJodHRwOi8vd3d3LnczLm9yZy8xOTk5L3hsaW5rIiBjb250ZW50U3R5bGVUeXBlPSJ0ZXh0L2NzcyIgaGVpZ2h0PSI0MjhweCIgcHJlc2VydmVBc3BlY3RSYXRpbz0ibm9uZSIgc3R5bGU9IndpZHRoOjMyNHB4O2hlaWdodDo0MjhweDtiYWNrZ3JvdW5kOiNGRkZGRkY7IiB2ZXJzaW9uPSIxLjEiIHZpZXdCb3g9IjAgMCAzMjQgNDI4IiB3aWR0aD0iMzI0cHgiIHpvb21BbmRQYW49Im1hZ25pZnkiPjxkZWZzLz48Zz48cmVjdCBmaWxsPSIjRkZGRkZGIiBoZWlnaHQ9Ijk2Ljc0MjIiIHN0eWxlPSJzdHJva2U6IzE4MTgxODtzdHJva2Utd2lkdGg6MS4wOyIgd2lkdGg9IjEwIiB4PSIxNDUiIHk9IjEwOS44OTg0Ii8+PHJlY3QgZmlsbD0iI0ZGRkZGRiIgaGVpZ2h0PSI5Ni43NDIyIiBzdHlsZT0ic3Ryb2tlOiMxODE4MTg7c3Ryb2tlLXdpZHRoOjEuMDsiIHdpZHRoPSIxMCIgeD0iMTQ1IiB5PSIyMzQuNTU0NyIvPjxsaW5lIHN0eWxlPSJzdHJva2U6IzE4MTgxODtzdHJva2Utd2lkdGg6MC41O3N0cm9rZS1kYXNoYXJyYXk6NS4wLDUuMDsiIHgxPSIyMiIgeDI9IjIyIiB5MT0iNzkuOTg0NCIgeTI9IjM0OS4yOTY5Ii8+PGxpbmUgc3R5bGU9InN0cm9rZTojMTgxODE4O3N0cm9rZS13aWR0aDowLjU7c3Ryb2tlLWRhc2hhcnJheTo1LjAsNS4wOyIgeDE9IjE1MCIgeDI9IjE1MCIgeTE9Ijc5Ljk4NDQiIHkyPSIzNDkuMjk2OSIvPjxsaW5lIHN0eWxlPSJzdHJva2U6IzE4MTgxODtzdHJva2Utd2lkdGg6MC41O3N0cm9rZS1kYXNoYXJyYXk6NS4wLDUuMDsiIHgxPSIyODMiIHgyPSIyODMiIHkxPSI3OS45ODQ0IiB5Mj0iMzQ5LjI5NjkiLz48dGV4dCBmaWxsPSIjMDAwMDAwIiBmb250LWZhbWlseT0ic2Fucy1zZXJpZiIgZm9udC1zaXplPSIxNCIgbGVuZ3RoQWRqdXN0PSJzcGFjaW5nIiB0ZXh0TGVuZ3RoPSIyOCIgeD0iNSIgeT0iNzguMjM0NCI+VXNlcjwvdGV4dD48ZWxsaXBzZSBjeD0iMjIiIGN5PSIxMy41IiBmaWxsPSIjRTJFMkYwIiByeD0iOCIgcnk9IjgiIHN0eWxlPSJzdHJva2U6IzE4MTgxODtzdHJva2Utd2lkdGg6MC41OyIvPjxwYXRoIGQ9Ik0yMiwyMS41IEwyMiw0OC41IE05LDI5LjUgTDM1LDI5LjUgTTIyLDQ4LjUgTDksNjMuNSBNMjIsNDguNSBMMzUsNjMuNSAiIGZpbGw9Im5vbmUiIHN0eWxlPSJzdHJva2U6IzE4MTgxODtzdHJva2Utd2lkdGg6MC41OyIvPjx0ZXh0IGZpbGw9IiMwMDAwMDAiIGZvbnQtZmFtaWx5PSJzYW5zLXNlcmlmIiBmb250LXNpemU9IjE0IiBsZW5ndGhBZGp1c3Q9InNwYWNpbmciIHRleHRMZW5ndGg9IjI4IiB4PSI1IiB5PSIzNjEuNTMxMyI+VXNlcjwvdGV4dD48ZWxsaXBzZSBjeD0iMjIiIGN5PSIzNzEuNzgxMyIgZmlsbD0iI0UyRTJGMCIgcng9IjgiIHJ5PSI4IiBzdHlsZT0ic3Ryb2tlOiMxODE4MTg7c3Ryb2tlLXdpZHRoOjAuNTsiLz48cGF0aCBkPSJNMjIsMzc5Ljc4MTMgTDIyLDQwNi43ODEzIE05LDM4Ny43ODEzIEwzNSwzODcuNzgxMyBNMjIsNDA2Ljc4MTMgTDksNDIxLjc4MTMgTTIyLDQwNi43ODEzIEwzNSw0MjEuNzgxMyAiIGZpbGw9Im5vbmUiIHN0eWxlPSJzdHJva2U6IzE4MTgxODtzdHJva2Utd2lkdGg6MC41OyIvPjxyZWN0IGZpbGw9IiNFMkUyRjAiIGhlaWdodD0iMjguOTg0NCIgcng9IjIuNSIgcnk9IjIuNSIgc3R5bGU9InN0cm9rZTojMTgxODE4O3N0cm9rZS13aWR0aDowLjU7IiB3aWR0aD0iMTEyIiB4PSI5NCIgeT0iNTAiLz48dGV4dCBmaWxsPSIjMDAwMDAwIiBmb250LWZhbWlseT0ic2Fucy1zZXJpZiIgZm9udC1zaXplPSIxNCIgbGVuZ3RoQWRqdXN0PSJzcGFjaW5nIiB0ZXh0TGVuZ3RoPSI5OCIgeD0iMTAxIiB5PSI3MC4yMzQ0Ij4mIzIyODEwOyYjMjIyNDA7JiMzMjAzMjsmIzM2NTIzOyYjMjAyMjE7JiMzOTU2NDsmIzM1Nzc3OzwvdGV4dD48cmVjdCBmaWxsPSIjRTJFMkYwIiBoZWlnaHQ9IjI4Ljk4NDQiIHJ4PSIyLjUiIHJ5PSIyLjUiIHN0eWxlPSJzdHJva2U6IzE4MTgxODtzdHJva2Utd2lkdGg6MC41OyIgd2lkdGg9IjExMiIgeD0iOTQiIHk9IjM0OC4yOTY5Ii8+PHRleHQgZmlsbD0iIzAwMDAwMCIgZm9udC1mYW1pbHk9InNhbnMtc2VyaWYiIGZvbnQtc2l6ZT0iMTQiIGxlbmd0aEFkanVzdD0ic3BhY2luZyIgdGV4dExlbmd0aD0iOTgiIHg9IjEwMSIgeT0iMzY4LjUzMTMiPiYjMjI4MTA7JiMyMjI0MDsmIzMyMDMyOyYjMzY1MjM7JiMyMDIyMTsmIzM5NTY0OyYjMzU3Nzc7PC90ZXh0PjxyZWN0IGZpbGw9IiNFMkUyRjAiIGhlaWdodD0iMjguOTg0NCIgcng9IjIuNSIgcnk9IjIuNSIgc3R5bGU9InN0cm9rZTojMTgxODE4O3N0cm9rZS13aWR0aDowLjU7IiB3aWR0aD0iNzAiIHg9IjI0OCIgeT0iNTAiLz48dGV4dCBmaWxsPSIjMDAwMDAwIiBmb250LWZhbWlseT0ic2Fucy1zZXJpZiIgZm9udC1zaXplPSIxNCIgbGVuZ3RoQWRqdXN0PSJzcGFjaW5nIiB0ZXh0TGVuZ3RoPSI1NiIgeD0iMjU1IiB5PSI3MC4yMzQ0Ij4mIzIzNDU3OyYjMzU3NDU7JiMyNjA4NTsmIzI0NTM1OzwvdGV4dD48cmVjdCBmaWxsPSIjRTJFMkYwIiBoZWlnaHQ9IjI4Ljk4NDQiIHJ4PSIyLjUiIHJ5PSIyLjUiIHN0eWxlPSJzdHJva2U6IzE4MTgxODtzdHJva2Utd2lkdGg6MC41OyIgd2lkdGg9IjcwIiB4PSIyNDgiIHk9IjM0OC4yOTY5Ii8+PHRleHQgZmlsbD0iIzAwMDAwMCIgZm9udC1mYW1pbHk9InNhbnMtc2VyaWYiIGZvbnQtc2l6ZT0iMTQiIGxlbmd0aEFkanVzdD0ic3BhY2luZyIgdGV4dExlbmd0aD0iNTYiIHg9IjI1NSIgeT0iMzY4LjUzMTMiPiYjMjM0NTc7JiMzNTc0NTsmIzI2MDg1OyYjMjQ1MzU7PC90ZXh0PjxyZWN0IGZpbGw9IiNGRkZGRkYiIGhlaWdodD0iOTYuNzQyMiIgc3R5bGU9InN0cm9rZTojMTgxODE4O3N0cm9rZS13aWR0aDoxLjA7IiB3aWR0aD0iMTAiIHg9IjE0NSIgeT0iMTA5Ljg5ODQiLz48cmVjdCBmaWxsPSIjRkZGRkZGIiBoZWlnaHQ9Ijk2Ljc0MjIiIHN0eWxlPSJzdHJva2U6IzE4MTgxODtzdHJva2Utd2lkdGg6MS4wOyIgd2lkdGg9IjEwIiB4PSIxNDUiIHk9IjIzNC41NTQ3Ii8+PHBvbHlnb24gZmlsbD0iIzE4MTgxOCIgcG9pbnRzPSIxMzMsMTA1Ljg5ODQsMTQzLDEwOS44OTg0LDEzMywxMTMuODk4NCwxMzcsMTA5Ljg5ODQiIHN0eWxlPSJzdHJva2U6IzE4MTgxODtzdHJva2Utd2lkdGg6MS4wOyIvPjxsaW5lIHN0eWxlPSJzdHJva2U6IzE4MTgxODtzdHJva2Utd2lkdGg6MS4wOyIgeDE9IjIyIiB4Mj0iMTM5IiB5MT0iMTA5Ljg5ODQiIHkyPSIxMDkuODk4NCIvPjx0ZXh0IGZpbGw9IiMwMDAwMDAiIGZvbnQtZmFtaWx5PSJzYW5zLXNlcmlmIiBmb250LXNpemU9IjEzIiBsZW5ndGhBZGp1c3Q9InNwYWNpbmciIHRleHRMZW5ndGg9IjEwNCIgeD0iMjkiIHk9IjEwNi4yNzM0Ij4mIzI1NTUyOyYjMjAxMzI7JiMzNjUyMzsmIzIwMjIxOyYjMzk1NjQ7JiMzNTc3NzsmIzM1ODMxOyYjMjc3MTQ7PC90ZXh0PjxsaW5lIHN0eWxlPSJzdHJva2U6IzE4MTgxODtzdHJva2Utd2lkdGg6MS4wOyIgeDE9IjE1NSIgeDI9IjE5NyIgeTE9IjEzNy44MTI1IiB5Mj0iMTM3LjgxMjUiLz48bGluZSBzdHlsZT0ic3Ryb2tlOiMxODE4MTg7c3Ryb2tlLXdpZHRoOjEuMDsiIHgxPSIxOTciIHgyPSIxOTciIHkxPSIxMzcuODEyNSIgeTI9IjE1MC44MTI1Ii8+PGxpbmUgc3R5bGU9InN0cm9rZTojMTgxODE4O3N0cm9rZS13aWR0aDoxLjA7IiB4MT0iMTU2IiB4Mj0iMTk3IiB5MT0iMTUwLjgxMjUiIHkyPSIxNTAuODEyNSIvPjxwb2x5Z29uIGZpbGw9IiMxODE4MTgiIHBvaW50cz0iMTY2LDE0Ni44MTI1LDE1NiwxNTAuODEyNSwxNjYsMTU0LjgxMjUsMTYyLDE1MC44MTI1IiBzdHlsZT0ic3Ryb2tlOiMxODE4MTg7c3Ryb2tlLXdpZHRoOjEuMDsiLz48dGV4dCBmaWxsPSIjMDAwMDAwIiBmb250LWZhbWlseT0ic2Fucy1zZXJpZiIgZm9udC1zaXplPSIxMyIgbGVuZ3RoQWRqdXN0PSJzcGFjaW5nIiB0ZXh0TGVuZ3RoPSI1MiIgeD0iMTYyIiB5PSIxMzQuMTg3NSI+JiMzOTU2NDsmIzM1Nzc3OyYjMzY1MjM7JiMyMDIyMTs8L3RleHQ+PHBvbHlnb24gZmlsbD0iIzE4MTgxOCIgcG9pbnRzPSIzMywxNzQuNzI2NiwyMywxNzguNzI2NiwzMywxODIuNzI2NiwyOSwxNzguNzI2NiIgc3R5bGU9InN0cm9rZTojMTgxODE4O3N0cm9rZS13aWR0aDoxLjA7Ii8+PGxpbmUgc3R5bGU9InN0cm9rZTojMTgxODE4O3N0cm9rZS13aWR0aDoxLjA7c3Ryb2tlLWRhc2hhcnJheToyLjAsMi4wOyIgeDE9IjI3IiB4Mj0iMTQ0IiB5MT0iMTc4LjcyNjYiIHkyPSIxNzguNzI2NiIvPjx0ZXh0IGZpbGw9IiMwMDAwMDAiIGZvbnQtZmFtaWx5PSJzYW5zLXNlcmlmIiBmb250LXNpemU9IjEzIiBsZW5ndGhBZGp1c3Q9InNwYWNpbmciIHRleHRMZW5ndGg9Ijc4IiB4PSIzOSIgeT0iMTc1LjEwMTYiPiYjMzY1MjM7JiMyMDIyMTsmIzM5NTY0OyYjMzU3Nzc7JiMyNTEwNDsmIzIxMTUxOzwvdGV4dD48cG9seWdvbiBmaWxsPSIjMTgxODE4IiBwb2ludHM9IjI3MSwyMDIuNjQwNiwyODEsMjA2LjY0MDYsMjcxLDIxMC42NDA2LDI3NSwyMDYuNjQwNiIgc3R5bGU9InN0cm9rZTojMTgxODE4O3N0cm9rZS13aWR0aDoxLjA7Ii8+PGxpbmUgc3R5bGU9InN0cm9rZTojMTgxODE4O3N0cm9rZS13aWR0aDoxLjA7IiB4MT0iMTUwIiB4Mj0iMjc3IiB5MT0iMjA2LjY0MDYiIHkyPSIyMDYuNjQwNiIvPjx0ZXh0IGZpbGw9IiMwMDAwMDAiIGZvbnQtZmFtaWx5PSJzYW5zLXNlcmlmIiBmb250LXNpemU9IjEzIiBsZW5ndGhBZGp1c3Q9InNwYWNpbmciIHRleHRMZW5ndGg9IjEwNCIgeD0iMTU3IiB5PSIyMDMuMDE1NiI+JiMzNTc2MDsmIzI0NDA1OyYjMzY1MjM7JiMyMDIyMTsmIzM5NTY0OyYjMzU3Nzc7JiMyNTEwNDsmIzIxMTUxOzwvdGV4dD48cG9seWdvbiBmaWxsPSIjMTgxODE4IiBwb2ludHM9IjEzMywyMzAuNTU0NywxNDMsMjM0LjU1NDcsMTMzLDIzOC41NTQ3LDEzNywyMzQuNTU0NyIgc3R5bGU9InN0cm9rZTojMTgxODE4O3N0cm9rZS13aWR0aDoxLjA7Ii8+PGxpbmUgc3R5bGU9InN0cm9rZTojMTgxODE4O3N0cm9rZS13aWR0aDoxLjA7IiB4MT0iMjIiIHgyPSIxMzkiIHkxPSIyMzQuNTU0NyIgeTI9IjIzNC41NTQ3Ii8+PHRleHQgZmlsbD0iIzAwMDAwMCIgZm9udC1mYW1pbHk9InNhbnMtc2VyaWYiIGZvbnQtc2l6ZT0iMTMiIGxlbmd0aEFkanVzdD0ic3BhY2luZyIgdGV4dExlbmd0aD0iMTA0IiB4PSIyOSIgeT0iMjMwLjkyOTciPiYjMjU1NTI7JiMyMDEzMjsmIzM2NTIzOyYjMjAyMjE7JiMzOTU2NDsmIzM1Nzc3OyYjMzU4MzE7JiMyNzcxNDs8L3RleHQ+PGxpbmUgc3R5bGU9InN0cm9rZTojMTgxODE4O3N0cm9rZS13aWR0aDoxLjA7IiB4MT0iMTU1IiB4Mj0iMTk3IiB5MT0iMjYyLjQ2ODgiIHkyPSIyNjIuNDY4OCIvPjxsaW5lIHN0eWxlPSJzdHJva2U6IzE4MTgxODtzdHJva2Utd2lkdGg6MS4wOyIgeDE9IjE5NyIgeDI9IjE5NyIgeTE9IjI2Mi40Njg4IiB5Mj0iMjc1LjQ2ODgiLz48bGluZSBzdHlsZT0ic3Ryb2tlOiMxODE4MTg7c3Ryb2tlLXdpZHRoOjEuMDsiIHgxPSIxNTYiIHgyPSIxOTciIHkxPSIyNzUuNDY4OCIgeTI9IjI3NS40Njg4Ii8+PHBvbHlnb24gZmlsbD0iIzE4MTgxOCIgcG9pbnRzPSIxNjYsMjcxLjQ2ODgsMTU2LDI3NS40Njg4LDE2NiwyNzkuNDY4OCwxNjIsMjc1LjQ2ODgiIHN0eWxlPSJzdHJva2U6IzE4MTgxODtzdHJva2Utd2lkdGg6MS4wOyIvPjx0ZXh0IGZpbGw9IiMwMDAwMDAiIGZvbnQtZmFtaWx5PSJzYW5zLXNlcmlmIiBmb250LXNpemU9IjEzIiBsZW5ndGhBZGp1c3Q9InNwYWNpbmciIHRleHRMZW5ndGg9IjUyIiB4PSIxNjIiIHk9IjI1OC44NDM4Ij4mIzM5NTY0OyYjMzU3Nzc7JiMzNjUyMzsmIzIwMjIxOzwvdGV4dD48cG9seWdvbiBmaWxsPSIjMTgxODE4IiBwb2ludHM9IjMzLDI5OS4zODI4LDIzLDMwMy4zODI4LDMzLDMwNy4zODI4LDI5LDMwMy4zODI4IiBzdHlsZT0ic3Ryb2tlOiMxODE4MTg7c3Ryb2tlLXdpZHRoOjEuMDsiLz48bGluZSBzdHlsZT0ic3Ryb2tlOiMxODE4MTg7c3Ryb2tlLXdpZHRoOjEuMDtzdHJva2UtZGFzaGFycmF5OjIuMCwyLjA7IiB4MT0iMjciIHgyPSIxNDQiIHkxPSIzMDMuMzgyOCIgeTI9IjMwMy4zODI4Ii8+PHRleHQgZmlsbD0iIzAwMDAwMCIgZm9udC1mYW1pbHk9InNhbnMtc2VyaWYiIGZvbnQtc2l6ZT0iMTMiIGxlbmd0aEFkanVzdD0ic3BhY2luZyIgdGV4dExlbmd0aD0iNzgiIHg9IjM5IiB5PSIyOTkuNzU3OCI+JiMzNjUyMzsmIzIwMjIxOyYjMzk1NjQ7JiMzNTc3NzsmIzIyODMzOyYjMzYxMzM7PC90ZXh0Pjxwb2x5Z29uIGZpbGw9IiMxODE4MTgiIHBvaW50cz0iMjcxLDMyNy4yOTY5LDI4MSwzMzEuMjk2OSwyNzEsMzM1LjI5NjksMjc1LDMzMS4yOTY5IiBzdHlsZT0ic3Ryb2tlOiMxODE4MTg7c3Ryb2tlLXdpZHRoOjEuMDsiLz48bGluZSBzdHlsZT0ic3Ryb2tlOiMxODE4MTg7c3Ryb2tlLXdpZHRoOjEuMDsiIHgxPSIxNTAiIHgyPSIyNzciIHkxPSIzMzEuMjk2OSIgeTI9IjMzMS4yOTY5Ii8+PHRleHQgZmlsbD0iIzAwMDAwMCIgZm9udC1mYW1pbHk9InNhbnMtc2VyaWYiIGZvbnQtc2l6ZT0iMTMiIGxlbmd0aEFkanVzdD0ic3BhY2luZyIgdGV4dExlbmd0aD0iMTA0IiB4PSIxNTciIHk9IjMyNy42NzE5Ij4mIzM1NzYwOyYjMjQ0MDU7JiMzNjUyMzsmIzIwMjIxOyYjMzk1NjQ7JiMzNTc3NzsmIzIyODMzOyYjMzYxMzM7PC90ZXh0PjwhLS1TUkM9W0txbjlKU2xDSXJLOFNkS0VTVkhwenQ1TElDdjlCMnhjdWFmQ0JpYWxLV1dqSll0WUFhV2lBaWJDcFluOHAyakhLN2d3UERSSnNHa1VScmRtT2pWZzl4bHRsYnBMeXM5emV2OTJPaDYyUnNiRUlRT1JNOXpaUUtjNlJ0dkFRS3VnY2tQcjJyLWlNX1hpLWpBZC13VTN6SllNZmNJTS1FSWRTdDYxUjVCR2pTRGtZZk4yaV91OUp0T2pHUlJwblZoanBwT3NXVG9QTVBQT2FlaDNVZ29ZVUVvMWNXc3MxdlRjZTZ3R1F3cUthOXRwaDZGMnF3eHZrRXMzLUhJZVF6czZmdGtkT2o2UmFhaDBDcUMtYTl1a3NWWFlvckJvMFdjZ2JyMFcwRzAwXS0tPjwvZz48L3N2Zz4=;" vertex="1" parent="1">
            <mxGeometry x="-760.5" y="2910" width="340" height="449.14" as="geometry" />
          </mxCell>
        </UserObject>
        <UserObject label="" plantUmlData="{&#xa;  &quot;data&quot;: &quot;@startuml\n!define RECTANGLE class\n\nactor User\nparticipant \&quot;单点登录（SSO)\&quot; as SsoModule\nparticipant \&quot;审计日志\&quot; as AuditLog\n\nUser -&gt; SsoModule: 请求单点登录\nactivate SsoModule\nSsoModule -&gt; SsoModule: 验证用户凭据\nSsoModule --&gt; User: 登录成功\nSsoModule -&gt; AuditLog: 记录单点登录成功\ndeactivate SsoModule\n\nUser -&gt; SsoModule: 请求单点登录\nactivate SsoModule\nSsoModule -&gt; SsoModule: 验证用户凭据\nSsoModule --&gt; User: 登录失败\nSsoModule -&gt; AuditLog: 记录单点登录失败\ndeactivate SsoModule\n@enduml\n&quot;,&#xa;  &quot;format&quot;: &quot;svg&quot;&#xa;}" id="M7jX5-5myOD5qC9-YFXW-31">
          <mxCell style="shape=image;noLabel=1;verticalAlign=top;aspect=fixed;imageAspect=0;image=data:image/svg+xml,PD94bWwgdmVyc2lvbj0iMS4wIiBlbmNvZGluZz0idXMtYXNjaWkiIHN0YW5kYWxvbmU9Im5vIj8+PHN2ZyB4bWxucz0iaHR0cDovL3d3dy53My5vcmcvMjAwMC9zdmciIHhtbG5zOnhsaW5rPSJodHRwOi8vd3d3LnczLm9yZy8xOTk5L3hsaW5rIiBjb250ZW50U3R5bGVUeXBlPSJ0ZXh0L2NzcyIgaGVpZ2h0PSI0MjhweCIgcHJlc2VydmVBc3BlY3RSYXRpbz0ibm9uZSIgc3R5bGU9IndpZHRoOjI5OHB4O2hlaWdodDo0MjhweDtiYWNrZ3JvdW5kOiNGRkZGRkY7IiB2ZXJzaW9uPSIxLjEiIHZpZXdCb3g9IjAgMCAyOTggNDI4IiB3aWR0aD0iMjk4cHgiIHpvb21BbmRQYW49Im1hZ25pZnkiPjxkZWZzLz48Zz48cmVjdCBmaWxsPSIjRkZGRkZGIiBoZWlnaHQ9Ijk2Ljc0MjIiIHN0eWxlPSJzdHJva2U6IzE4MTgxODtzdHJva2Utd2lkdGg6MS4wOyIgd2lkdGg9IjEwIiB4PSIxMTkiIHk9IjEwOS44OTg0Ii8+PHJlY3QgZmlsbD0iI0ZGRkZGRiIgaGVpZ2h0PSI5Ni43NDIyIiBzdHlsZT0ic3Ryb2tlOiMxODE4MTg7c3Ryb2tlLXdpZHRoOjEuMDsiIHdpZHRoPSIxMCIgeD0iMTE5IiB5PSIyMzQuNTU0NyIvPjxsaW5lIHN0eWxlPSJzdHJva2U6IzE4MTgxODtzdHJva2Utd2lkdGg6MC41O3N0cm9rZS1kYXNoYXJyYXk6NS4wLDUuMDsiIHgxPSIyMiIgeDI9IjIyIiB5MT0iNzkuOTg0NCIgeTI9IjM0OS4yOTY5Ii8+PGxpbmUgc3R5bGU9InN0cm9rZTojMTgxODE4O3N0cm9rZS13aWR0aDowLjU7c3Ryb2tlLWRhc2hhcnJheTo1LjAsNS4wOyIgeDE9IjEyMy41IiB4Mj0iMTIzLjUiIHkxPSI3OS45ODQ0IiB5Mj0iMzQ5LjI5NjkiLz48bGluZSBzdHlsZT0ic3Ryb2tlOiMxODE4MTg7c3Ryb2tlLXdpZHRoOjAuNTtzdHJva2UtZGFzaGFycmF5OjUuMCw1LjA7IiB4MT0iMjU3IiB4Mj0iMjU3IiB5MT0iNzkuOTg0NCIgeTI9IjM0OS4yOTY5Ii8+PHRleHQgZmlsbD0iIzAwMDAwMCIgZm9udC1mYW1pbHk9InNhbnMtc2VyaWYiIGZvbnQtc2l6ZT0iMTQiIGxlbmd0aEFkanVzdD0ic3BhY2luZyIgdGV4dExlbmd0aD0iMjgiIHg9IjUiIHk9Ijc4LjIzNDQiPlVzZXI8L3RleHQ+PGVsbGlwc2UgY3g9IjIyIiBjeT0iMTMuNSIgZmlsbD0iI0UyRTJGMCIgcng9IjgiIHJ5PSI4IiBzdHlsZT0ic3Ryb2tlOiMxODE4MTg7c3Ryb2tlLXdpZHRoOjAuNTsiLz48cGF0aCBkPSJNMjIsMjEuNSBMMjIsNDguNSBNOSwyOS41IEwzNSwyOS41IE0yMiw0OC41IEw5LDYzLjUgTTIyLDQ4LjUgTDM1LDYzLjUgIiBmaWxsPSJub25lIiBzdHlsZT0ic3Ryb2tlOiMxODE4MTg7c3Ryb2tlLXdpZHRoOjAuNTsiLz48dGV4dCBmaWxsPSIjMDAwMDAwIiBmb250LWZhbWlseT0ic2Fucy1zZXJpZiIgZm9udC1zaXplPSIxNCIgbGVuZ3RoQWRqdXN0PSJzcGFjaW5nIiB0ZXh0TGVuZ3RoPSIyOCIgeD0iNSIgeT0iMzYxLjUzMTMiPlVzZXI8L3RleHQ+PGVsbGlwc2UgY3g9IjIyIiBjeT0iMzcxLjc4MTMiIGZpbGw9IiNFMkUyRjAiIHJ4PSI4IiByeT0iOCIgc3R5bGU9InN0cm9rZTojMTgxODE4O3N0cm9rZS13aWR0aDowLjU7Ii8+PHBhdGggZD0iTTIyLDM3OS43ODEzIEwyMiw0MDYuNzgxMyBNOSwzODcuNzgxMyBMMzUsMzg3Ljc4MTMgTTIyLDQwNi43ODEzIEw5LDQyMS43ODEzIE0yMiw0MDYuNzgxMyBMMzUsNDIxLjc4MTMgIiBmaWxsPSJub25lIiBzdHlsZT0ic3Ryb2tlOiMxODE4MTg7c3Ryb2tlLXdpZHRoOjAuNTsiLz48cmVjdCBmaWxsPSIjRTJFMkYwIiBoZWlnaHQ9IjI4Ljk4NDQiIHJ4PSIyLjUiIHJ5PSIyLjUiIHN0eWxlPSJzdHJva2U6IzE4MTgxODtzdHJva2Utd2lkdGg6MC41OyIgd2lkdGg9IjExMyIgeD0iNjcuNSIgeT0iNTAiLz48dGV4dCBmaWxsPSIjMDAwMDAwIiBmb250LWZhbWlseT0ic2Fucy1zZXJpZiIgZm9udC1zaXplPSIxNCIgbGVuZ3RoQWRqdXN0PSJzcGFjaW5nIiB0ZXh0TGVuZ3RoPSI5OSIgeD0iNzQuNSIgeT0iNzAuMjM0NCI+JiMyMTMzMzsmIzI4ODU3OyYjMzAzMzE7JiMyNDQwNTsmIzY1Mjg4O1NTTyk8L3RleHQ+PHJlY3QgZmlsbD0iI0UyRTJGMCIgaGVpZ2h0PSIyOC45ODQ0IiByeD0iMi41IiByeT0iMi41IiBzdHlsZT0ic3Ryb2tlOiMxODE4MTg7c3Ryb2tlLXdpZHRoOjAuNTsiIHdpZHRoPSIxMTMiIHg9IjY3LjUiIHk9IjM0OC4yOTY5Ii8+PHRleHQgZmlsbD0iIzAwMDAwMCIgZm9udC1mYW1pbHk9InNhbnMtc2VyaWYiIGZvbnQtc2l6ZT0iMTQiIGxlbmd0aEFkanVzdD0ic3BhY2luZyIgdGV4dExlbmd0aD0iOTkiIHg9Ijc0LjUiIHk9IjM2OC41MzEzIj4mIzIxMzMzOyYjMjg4NTc7JiMzMDMzMTsmIzI0NDA1OyYjNjUyODg7U1NPKTwvdGV4dD48cmVjdCBmaWxsPSIjRTJFMkYwIiBoZWlnaHQ9IjI4Ljk4NDQiIHJ4PSIyLjUiIHJ5PSIyLjUiIHN0eWxlPSJzdHJva2U6IzE4MTgxODtzdHJva2Utd2lkdGg6MC41OyIgd2lkdGg9IjcwIiB4PSIyMjIiIHk9IjUwIi8+PHRleHQgZmlsbD0iIzAwMDAwMCIgZm9udC1mYW1pbHk9InNhbnMtc2VyaWYiIGZvbnQtc2l6ZT0iMTQiIGxlbmd0aEFkanVzdD0ic3BhY2luZyIgdGV4dExlbmd0aD0iNTYiIHg9IjIyOSIgeT0iNzAuMjM0NCI+JiMyMzQ1NzsmIzM1NzQ1OyYjMjYwODU7JiMyNDUzNTs8L3RleHQ+PHJlY3QgZmlsbD0iI0UyRTJGMCIgaGVpZ2h0PSIyOC45ODQ0IiByeD0iMi41IiByeT0iMi41IiBzdHlsZT0ic3Ryb2tlOiMxODE4MTg7c3Ryb2tlLXdpZHRoOjAuNTsiIHdpZHRoPSI3MCIgeD0iMjIyIiB5PSIzNDguMjk2OSIvPjx0ZXh0IGZpbGw9IiMwMDAwMDAiIGZvbnQtZmFtaWx5PSJzYW5zLXNlcmlmIiBmb250LXNpemU9IjE0IiBsZW5ndGhBZGp1c3Q9InNwYWNpbmciIHRleHRMZW5ndGg9IjU2IiB4PSIyMjkiIHk9IjM2OC41MzEzIj4mIzIzNDU3OyYjMzU3NDU7JiMyNjA4NTsmIzI0NTM1OzwvdGV4dD48cmVjdCBmaWxsPSIjRkZGRkZGIiBoZWlnaHQ9Ijk2Ljc0MjIiIHN0eWxlPSJzdHJva2U6IzE4MTgxODtzdHJva2Utd2lkdGg6MS4wOyIgd2lkdGg9IjEwIiB4PSIxMTkiIHk9IjEwOS44OTg0Ii8+PHJlY3QgZmlsbD0iI0ZGRkZGRiIgaGVpZ2h0PSI5Ni43NDIyIiBzdHlsZT0ic3Ryb2tlOiMxODE4MTg7c3Ryb2tlLXdpZHRoOjEuMDsiIHdpZHRoPSIxMCIgeD0iMTE5IiB5PSIyMzQuNTU0NyIvPjxwb2x5Z29uIGZpbGw9IiMxODE4MTgiIHBvaW50cz0iMTA3LDEwNS44OTg0LDExNywxMDkuODk4NCwxMDcsMTEzLjg5ODQsMTExLDEwOS44OTg0IiBzdHlsZT0ic3Ryb2tlOiMxODE4MTg7c3Ryb2tlLXdpZHRoOjEuMDsiLz48bGluZSBzdHlsZT0ic3Ryb2tlOiMxODE4MTg7c3Ryb2tlLXdpZHRoOjEuMDsiIHgxPSIyMiIgeDI9IjExMyIgeTE9IjEwOS44OTg0IiB5Mj0iMTA5Ljg5ODQiLz48dGV4dCBmaWxsPSIjMDAwMDAwIiBmb250LWZhbWlseT0ic2Fucy1zZXJpZiIgZm9udC1zaXplPSIxMyIgbGVuZ3RoQWRqdXN0PSJzcGFjaW5nIiB0ZXh0TGVuZ3RoPSI3OCIgeD0iMjkiIHk9IjEwNi4yNzM0Ij4mIzM1ODMxOyYjMjc3MTQ7JiMyMTMzMzsmIzI4ODU3OyYjMzAzMzE7JiMyNDQwNTs8L3RleHQ+PGxpbmUgc3R5bGU9InN0cm9rZTojMTgxODE4O3N0cm9rZS13aWR0aDoxLjA7IiB4MT0iMTI5IiB4Mj0iMTcxIiB5MT0iMTM3LjgxMjUiIHkyPSIxMzcuODEyNSIvPjxsaW5lIHN0eWxlPSJzdHJva2U6IzE4MTgxODtzdHJva2Utd2lkdGg6MS4wOyIgeDE9IjE3MSIgeDI9IjE3MSIgeTE9IjEzNy44MTI1IiB5Mj0iMTUwLjgxMjUiLz48bGluZSBzdHlsZT0ic3Ryb2tlOiMxODE4MTg7c3Ryb2tlLXdpZHRoOjEuMDsiIHgxPSIxMzAiIHgyPSIxNzEiIHkxPSIxNTAuODEyNSIgeTI9IjE1MC44MTI1Ii8+PHBvbHlnb24gZmlsbD0iIzE4MTgxOCIgcG9pbnRzPSIxNDAsMTQ2LjgxMjUsMTMwLDE1MC44MTI1LDE0MCwxNTQuODEyNSwxMzYsMTUwLjgxMjUiIHN0eWxlPSJzdHJva2U6IzE4MTgxODtzdHJva2Utd2lkdGg6MS4wOyIvPjx0ZXh0IGZpbGw9IiMwMDAwMDAiIGZvbnQtZmFtaWx5PSJzYW5zLXNlcmlmIiBmb250LXNpemU9IjEzIiBsZW5ndGhBZGp1c3Q9InNwYWNpbmciIHRleHRMZW5ndGg9Ijc4IiB4PSIxMzYiIHk9IjEzNC4xODc1Ij4mIzM5NTY0OyYjMzU3Nzc7JiMyOTk5MjsmIzI1MTQzOyYjMjA5NzM7JiMyNTQ1NDs8L3RleHQ+PHBvbHlnb24gZmlsbD0iIzE4MTgxOCIgcG9pbnRzPSIzMywxNzQuNzI2NiwyMywxNzguNzI2NiwzMywxODIuNzI2NiwyOSwxNzguNzI2NiIgc3R5bGU9InN0cm9rZTojMTgxODE4O3N0cm9rZS13aWR0aDoxLjA7Ii8+PGxpbmUgc3R5bGU9InN0cm9rZTojMTgxODE4O3N0cm9rZS13aWR0aDoxLjA7c3Ryb2tlLWRhc2hhcnJheToyLjAsMi4wOyIgeDE9IjI3IiB4Mj0iMTE4IiB5MT0iMTc4LjcyNjYiIHkyPSIxNzguNzI2NiIvPjx0ZXh0IGZpbGw9IiMwMDAwMDAiIGZvbnQtZmFtaWx5PSJzYW5zLXNlcmlmIiBmb250LXNpemU9IjEzIiBsZW5ndGhBZGp1c3Q9InNwYWNpbmciIHRleHRMZW5ndGg9IjUyIiB4PSIzOSIgeT0iMTc1LjEwMTYiPiYjMzAzMzE7JiMyNDQwNTsmIzI1MTA0OyYjMjExNTE7PC90ZXh0Pjxwb2x5Z29uIGZpbGw9IiMxODE4MTgiIHBvaW50cz0iMjQ1LDIwMi42NDA2LDI1NSwyMDYuNjQwNiwyNDUsMjEwLjY0MDYsMjQ5LDIwNi42NDA2IiBzdHlsZT0ic3Ryb2tlOiMxODE4MTg7c3Ryb2tlLXdpZHRoOjEuMDsiLz48bGluZSBzdHlsZT0ic3Ryb2tlOiMxODE4MTg7c3Ryb2tlLXdpZHRoOjEuMDsiIHgxPSIxMjQiIHgyPSIyNTEiIHkxPSIyMDYuNjQwNiIgeTI9IjIwNi42NDA2Ii8+PHRleHQgZmlsbD0iIzAwMDAwMCIgZm9udC1mYW1pbHk9InNhbnMtc2VyaWYiIGZvbnQtc2l6ZT0iMTMiIGxlbmd0aEFkanVzdD0ic3BhY2luZyIgdGV4dExlbmd0aD0iMTA0IiB4PSIxMzEiIHk9IjIwMy4wMTU2Ij4mIzM1NzYwOyYjMjQ0MDU7JiMyMTMzMzsmIzI4ODU3OyYjMzAzMzE7JiMyNDQwNTsmIzI1MTA0OyYjMjExNTE7PC90ZXh0Pjxwb2x5Z29uIGZpbGw9IiMxODE4MTgiIHBvaW50cz0iMTA3LDIzMC41NTQ3LDExNywyMzQuNTU0NywxMDcsMjM4LjU1NDcsMTExLDIzNC41NTQ3IiBzdHlsZT0ic3Ryb2tlOiMxODE4MTg7c3Ryb2tlLXdpZHRoOjEuMDsiLz48bGluZSBzdHlsZT0ic3Ryb2tlOiMxODE4MTg7c3Ryb2tlLXdpZHRoOjEuMDsiIHgxPSIyMiIgeDI9IjExMyIgeTE9IjIzNC41NTQ3IiB5Mj0iMjM0LjU1NDciLz48dGV4dCBmaWxsPSIjMDAwMDAwIiBmb250LWZhbWlseT0ic2Fucy1zZXJpZiIgZm9udC1zaXplPSIxMyIgbGVuZ3RoQWRqdXN0PSJzcGFjaW5nIiB0ZXh0TGVuZ3RoPSI3OCIgeD0iMjkiIHk9IjIzMC45Mjk3Ij4mIzM1ODMxOyYjMjc3MTQ7JiMyMTMzMzsmIzI4ODU3OyYjMzAzMzE7JiMyNDQwNTs8L3RleHQ+PGxpbmUgc3R5bGU9InN0cm9rZTojMTgxODE4O3N0cm9rZS13aWR0aDoxLjA7IiB4MT0iMTI5IiB4Mj0iMTcxIiB5MT0iMjYyLjQ2ODgiIHkyPSIyNjIuNDY4OCIvPjxsaW5lIHN0eWxlPSJzdHJva2U6IzE4MTgxODtzdHJva2Utd2lkdGg6MS4wOyIgeDE9IjE3MSIgeDI9IjE3MSIgeTE9IjI2Mi40Njg4IiB5Mj0iMjc1LjQ2ODgiLz48bGluZSBzdHlsZT0ic3Ryb2tlOiMxODE4MTg7c3Ryb2tlLXdpZHRoOjEuMDsiIHgxPSIxMzAiIHgyPSIxNzEiIHkxPSIyNzUuNDY4OCIgeTI9IjI3NS40Njg4Ii8+PHBvbHlnb24gZmlsbD0iIzE4MTgxOCIgcG9pbnRzPSIxNDAsMjcxLjQ2ODgsMTMwLDI3NS40Njg4LDE0MCwyNzkuNDY4OCwxMzYsMjc1LjQ2ODgiIHN0eWxlPSJzdHJva2U6IzE4MTgxODtzdHJva2Utd2lkdGg6MS4wOyIvPjx0ZXh0IGZpbGw9IiMwMDAwMDAiIGZvbnQtZmFtaWx5PSJzYW5zLXNlcmlmIiBmb250LXNpemU9IjEzIiBsZW5ndGhBZGp1c3Q9InNwYWNpbmciIHRleHRMZW5ndGg9Ijc4IiB4PSIxMzYiIHk9IjI1OC44NDM4Ij4mIzM5NTY0OyYjMzU3Nzc7JiMyOTk5MjsmIzI1MTQzOyYjMjA5NzM7JiMyNTQ1NDs8L3RleHQ+PHBvbHlnb24gZmlsbD0iIzE4MTgxOCIgcG9pbnRzPSIzMywyOTkuMzgyOCwyMywzMDMuMzgyOCwzMywzMDcuMzgyOCwyOSwzMDMuMzgyOCIgc3R5bGU9InN0cm9rZTojMTgxODE4O3N0cm9rZS13aWR0aDoxLjA7Ii8+PGxpbmUgc3R5bGU9InN0cm9rZTojMTgxODE4O3N0cm9rZS13aWR0aDoxLjA7c3Ryb2tlLWRhc2hhcnJheToyLjAsMi4wOyIgeDE9IjI3IiB4Mj0iMTE4IiB5MT0iMzAzLjM4MjgiIHkyPSIzMDMuMzgyOCIvPjx0ZXh0IGZpbGw9IiMwMDAwMDAiIGZvbnQtZmFtaWx5PSJzYW5zLXNlcmlmIiBmb250LXNpemU9IjEzIiBsZW5ndGhBZGp1c3Q9InNwYWNpbmciIHRleHRMZW5ndGg9IjUyIiB4PSIzOSIgeT0iMjk5Ljc1NzgiPiYjMzAzMzE7JiMyNDQwNTsmIzIyODMzOyYjMzYxMzM7PC90ZXh0Pjxwb2x5Z29uIGZpbGw9IiMxODE4MTgiIHBvaW50cz0iMjQ1LDMyNy4yOTY5LDI1NSwzMzEuMjk2OSwyNDUsMzM1LjI5NjksMjQ5LDMzMS4yOTY5IiBzdHlsZT0ic3Ryb2tlOiMxODE4MTg7c3Ryb2tlLXdpZHRoOjEuMDsiLz48bGluZSBzdHlsZT0ic3Ryb2tlOiMxODE4MTg7c3Ryb2tlLXdpZHRoOjEuMDsiIHgxPSIxMjQiIHgyPSIyNTEiIHkxPSIzMzEuMjk2OSIgeTI9IjMzMS4yOTY5Ii8+PHRleHQgZmlsbD0iIzAwMDAwMCIgZm9udC1mYW1pbHk9InNhbnMtc2VyaWYiIGZvbnQtc2l6ZT0iMTMiIGxlbmd0aEFkanVzdD0ic3BhY2luZyIgdGV4dExlbmd0aD0iMTA0IiB4PSIxMzEiIHk9IjMyNy42NzE5Ij4mIzM1NzYwOyYjMjQ0MDU7JiMyMTMzMzsmIzI4ODU3OyYjMzAzMzE7JiMyNDQwNTsmIzIyODMzOyYjMzYxMzM7PC90ZXh0PjwhLS1TUkM9W0txbjlKU2xDSXJLOFNkS0VTVkhwenQ1TElDdjlCMnhjdWFmQ0JpYWxLV1dqSll0WUFhV2lBaWJDcFluOHAyakhLN2hRRV9MdnF5eGRDdFNfdEpscl9Qd0V1NjFfSklNNW42QTV1RTl5dF9vS3FmbktERU5oNWh2T2pfM1B6QUxGenF5N2d0Q2lKU2FpeVNiRnYtODJjUXNXUXVWR1FRTm1PbHRzUG5rUmFBcTBrSUVwQkI0YTVTYTJFMGpEenlqTEZJX01EcHdWaWs5UG5fUWR4TWtWelF2M0xXZksyeEJISVc1WXlCRUUySy14dmdFUTFOQ1JxMjdoRFczTDgzaTRnWnViNU9rMzFqV2hKdlRpVkI1YkFWNVVXUWg3dlhLMF0tLT48L2c+PC9zdmc+;" vertex="1" parent="1">
            <mxGeometry x="-760.5" y="3390" width="340.5" height="489.04" as="geometry" />
          </mxCell>
        </UserObject>
        <UserObject label="" plantUmlData="{&#xa;  &quot;data&quot;: &quot;@startuml\n!define RECTANGLE class\n\nactor User\nparticipant \&quot;安全文档存储\&quot; as SecureDocumentStorageModule\nparticipant \&quot;审计日志\&quot; as AuditLog\n\nUser -&gt; SecureDocumentStorageModule: 存储文档\nactivate SecureDocumentStorageModule\nSecureDocumentStorageModule -&gt; SecureDocumentStorageModule: 加密文档\nSecureDocumentStorageModule --&gt; User: 存储成功\nSecureDocumentStorageModule -&gt; AuditLog: 记录文档存储\ndeactivate SecureDocumentStorageModule\n\nUser -&gt; SecureDocumentStorageModule: 存储文档\nactivate SecureDocumentStorageModule\nSecureDocumentStorageModule -&gt; SecureDocumentStorageModule: 加密文档\nSecureDocumentStorageModule --&gt; User: 存储失败\nSecureDocumentStorageModule -&gt; AuditLog: 记录文档存储失败\ndeactivate SecureDocumentStorageModule\n@enduml\n&quot;,&#xa;  &quot;format&quot;: &quot;svg&quot;&#xa;}" id="M7jX5-5myOD5qC9-YFXW-32">
          <mxCell style="shape=image;noLabel=1;verticalAlign=top;aspect=fixed;imageAspect=0;image=data:image/svg+xml,PD94bWwgdmVyc2lvbj0iMS4wIiBlbmNvZGluZz0idXMtYXNjaWkiIHN0YW5kYWxvbmU9Im5vIj8+PHN2ZyB4bWxucz0iaHR0cDovL3d3dy53My5vcmcvMjAwMC9zdmciIHhtbG5zOnhsaW5rPSJodHRwOi8vd3d3LnczLm9yZy8xOTk5L3hsaW5rIiBjb250ZW50U3R5bGVUeXBlPSJ0ZXh0L2NzcyIgaGVpZ2h0PSI0MjhweCIgcHJlc2VydmVBc3BlY3RSYXRpbz0ibm9uZSIgc3R5bGU9IndpZHRoOjI3N3B4O2hlaWdodDo0MjhweDtiYWNrZ3JvdW5kOiNGRkZGRkY7IiB2ZXJzaW9uPSIxLjEiIHZpZXdCb3g9IjAgMCAyNzcgNDI4IiB3aWR0aD0iMjc3cHgiIHpvb21BbmRQYW49Im1hZ25pZnkiPjxkZWZzLz48Zz48cmVjdCBmaWxsPSIjRkZGRkZGIiBoZWlnaHQ9Ijk2Ljc0MjIiIHN0eWxlPSJzdHJva2U6IzE4MTgxODtzdHJva2Utd2lkdGg6MS4wOyIgd2lkdGg9IjEwIiB4PSI5OCIgeT0iMTA5Ljg5ODQiLz48cmVjdCBmaWxsPSIjRkZGRkZGIiBoZWlnaHQ9Ijk2Ljc0MjIiIHN0eWxlPSJzdHJva2U6IzE4MTgxODtzdHJva2Utd2lkdGg6MS4wOyIgd2lkdGg9IjEwIiB4PSI5OCIgeT0iMjM0LjU1NDciLz48bGluZSBzdHlsZT0ic3Ryb2tlOiMxODE4MTg7c3Ryb2tlLXdpZHRoOjAuNTtzdHJva2UtZGFzaGFycmF5OjUuMCw1LjA7IiB4MT0iMjIiIHgyPSIyMiIgeTE9Ijc5Ljk4NDQiIHkyPSIzNDkuMjk2OSIvPjxsaW5lIHN0eWxlPSJzdHJva2U6IzE4MTgxODtzdHJva2Utd2lkdGg6MC41O3N0cm9rZS1kYXNoYXJyYXk6NS4wLDUuMDsiIHgxPSIxMDMiIHgyPSIxMDMiIHkxPSI3OS45ODQ0IiB5Mj0iMzQ5LjI5NjkiLz48bGluZSBzdHlsZT0ic3Ryb2tlOiMxODE4MTg7c3Ryb2tlLXdpZHRoOjAuNTtzdHJva2UtZGFzaGFycmF5OjUuMCw1LjA7IiB4MT0iMjM2IiB4Mj0iMjM2IiB5MT0iNzkuOTg0NCIgeTI9IjM0OS4yOTY5Ii8+PHRleHQgZmlsbD0iIzAwMDAwMCIgZm9udC1mYW1pbHk9InNhbnMtc2VyaWYiIGZvbnQtc2l6ZT0iMTQiIGxlbmd0aEFkanVzdD0ic3BhY2luZyIgdGV4dExlbmd0aD0iMjgiIHg9IjUiIHk9Ijc4LjIzNDQiPlVzZXI8L3RleHQ+PGVsbGlwc2UgY3g9IjIyIiBjeT0iMTMuNSIgZmlsbD0iI0UyRTJGMCIgcng9IjgiIHJ5PSI4IiBzdHlsZT0ic3Ryb2tlOiMxODE4MTg7c3Ryb2tlLXdpZHRoOjAuNTsiLz48cGF0aCBkPSJNMjIsMjEuNSBMMjIsNDguNSBNOSwyOS41IEwzNSwyOS41IE0yMiw0OC41IEw5LDYzLjUgTTIyLDQ4LjUgTDM1LDYzLjUgIiBmaWxsPSJub25lIiBzdHlsZT0ic3Ryb2tlOiMxODE4MTg7c3Ryb2tlLXdpZHRoOjAuNTsiLz48dGV4dCBmaWxsPSIjMDAwMDAwIiBmb250LWZhbWlseT0ic2Fucy1zZXJpZiIgZm9udC1zaXplPSIxNCIgbGVuZ3RoQWRqdXN0PSJzcGFjaW5nIiB0ZXh0TGVuZ3RoPSIyOCIgeD0iNSIgeT0iMzYxLjUzMTMiPlVzZXI8L3RleHQ+PGVsbGlwc2UgY3g9IjIyIiBjeT0iMzcxLjc4MTMiIGZpbGw9IiNFMkUyRjAiIHJ4PSI4IiByeT0iOCIgc3R5bGU9InN0cm9rZTojMTgxODE4O3N0cm9rZS13aWR0aDowLjU7Ii8+PHBhdGggZD0iTTIyLDM3OS43ODEzIEwyMiw0MDYuNzgxMyBNOSwzODcuNzgxMyBMMzUsMzg3Ljc4MTMgTTIyLDQwNi43ODEzIEw5LDQyMS43ODEzIE0yMiw0MDYuNzgxMyBMMzUsNDIxLjc4MTMgIiBmaWxsPSJub25lIiBzdHlsZT0ic3Ryb2tlOiMxODE4MTg7c3Ryb2tlLXdpZHRoOjAuNTsiLz48cmVjdCBmaWxsPSIjRTJFMkYwIiBoZWlnaHQ9IjI4Ljk4NDQiIHJ4PSIyLjUiIHJ5PSIyLjUiIHN0eWxlPSJzdHJva2U6IzE4MTgxODtzdHJva2Utd2lkdGg6MC41OyIgd2lkdGg9Ijk4IiB4PSI1NCIgeT0iNTAiLz48dGV4dCBmaWxsPSIjMDAwMDAwIiBmb250LWZhbWlseT0ic2Fucy1zZXJpZiIgZm9udC1zaXplPSIxNCIgbGVuZ3RoQWRqdXN0PSJzcGFjaW5nIiB0ZXh0TGVuZ3RoPSI4NCIgeD0iNjEiIHk9IjcwLjIzNDQiPiYjMjM0MzM7JiMyMDg0MDsmIzI1OTkxOyYjMjY3MjM7JiMyMzM4NDsmIzIwNjQ4OzwvdGV4dD48cmVjdCBmaWxsPSIjRTJFMkYwIiBoZWlnaHQ9IjI4Ljk4NDQiIHJ4PSIyLjUiIHJ5PSIyLjUiIHN0eWxlPSJzdHJva2U6IzE4MTgxODtzdHJva2Utd2lkdGg6MC41OyIgd2lkdGg9Ijk4IiB4PSI1NCIgeT0iMzQ4LjI5NjkiLz48dGV4dCBmaWxsPSIjMDAwMDAwIiBmb250LWZhbWlseT0ic2Fucy1zZXJpZiIgZm9udC1zaXplPSIxNCIgbGVuZ3RoQWRqdXN0PSJzcGFjaW5nIiB0ZXh0TGVuZ3RoPSI4NCIgeD0iNjEiIHk9IjM2OC41MzEzIj4mIzIzNDMzOyYjMjA4NDA7JiMyNTk5MTsmIzI2NzIzOyYjMjMzODQ7JiMyMDY0ODs8L3RleHQ+PHJlY3QgZmlsbD0iI0UyRTJGMCIgaGVpZ2h0PSIyOC45ODQ0IiByeD0iMi41IiByeT0iMi41IiBzdHlsZT0ic3Ryb2tlOiMxODE4MTg7c3Ryb2tlLXdpZHRoOjAuNTsiIHdpZHRoPSI3MCIgeD0iMjAxIiB5PSI1MCIvPjx0ZXh0IGZpbGw9IiMwMDAwMDAiIGZvbnQtZmFtaWx5PSJzYW5zLXNlcmlmIiBmb250LXNpemU9IjE0IiBsZW5ndGhBZGp1c3Q9InNwYWNpbmciIHRleHRMZW5ndGg9IjU2IiB4PSIyMDgiIHk9IjcwLjIzNDQiPiYjMjM0NTc7JiMzNTc0NTsmIzI2MDg1OyYjMjQ1MzU7PC90ZXh0PjxyZWN0IGZpbGw9IiNFMkUyRjAiIGhlaWdodD0iMjguOTg0NCIgcng9IjIuNSIgcnk9IjIuNSIgc3R5bGU9InN0cm9rZTojMTgxODE4O3N0cm9rZS13aWR0aDowLjU7IiB3aWR0aD0iNzAiIHg9IjIwMSIgeT0iMzQ4LjI5NjkiLz48dGV4dCBmaWxsPSIjMDAwMDAwIiBmb250LWZhbWlseT0ic2Fucy1zZXJpZiIgZm9udC1zaXplPSIxNCIgbGVuZ3RoQWRqdXN0PSJzcGFjaW5nIiB0ZXh0TGVuZ3RoPSI1NiIgeD0iMjA4IiB5PSIzNjguNTMxMyI+JiMyMzQ1NzsmIzM1NzQ1OyYjMjYwODU7JiMyNDUzNTs8L3RleHQ+PHJlY3QgZmlsbD0iI0ZGRkZGRiIgaGVpZ2h0PSI5Ni43NDIyIiBzdHlsZT0ic3Ryb2tlOiMxODE4MTg7c3Ryb2tlLXdpZHRoOjEuMDsiIHdpZHRoPSIxMCIgeD0iOTgiIHk9IjEwOS44OTg0Ii8+PHJlY3QgZmlsbD0iI0ZGRkZGRiIgaGVpZ2h0PSI5Ni43NDIyIiBzdHlsZT0ic3Ryb2tlOiMxODE4MTg7c3Ryb2tlLXdpZHRoOjEuMDsiIHdpZHRoPSIxMCIgeD0iOTgiIHk9IjIzNC41NTQ3Ii8+PHBvbHlnb24gZmlsbD0iIzE4MTgxOCIgcG9pbnRzPSI4NiwxMDUuODk4NCw5NiwxMDkuODk4NCw4NiwxMTMuODk4NCw5MCwxMDkuODk4NCIgc3R5bGU9InN0cm9rZTojMTgxODE4O3N0cm9rZS13aWR0aDoxLjA7Ii8+PGxpbmUgc3R5bGU9InN0cm9rZTojMTgxODE4O3N0cm9rZS13aWR0aDoxLjA7IiB4MT0iMjIiIHgyPSI5MiIgeTE9IjEwOS44OTg0IiB5Mj0iMTA5Ljg5ODQiLz48dGV4dCBmaWxsPSIjMDAwMDAwIiBmb250LWZhbWlseT0ic2Fucy1zZXJpZiIgZm9udC1zaXplPSIxMyIgbGVuZ3RoQWRqdXN0PSJzcGFjaW5nIiB0ZXh0TGVuZ3RoPSI1MiIgeD0iMjkiIHk9IjEwNi4yNzM0Ij4mIzIzMzg0OyYjMjA2NDg7JiMyNTk5MTsmIzI2NzIzOzwvdGV4dD48bGluZSBzdHlsZT0ic3Ryb2tlOiMxODE4MTg7c3Ryb2tlLXdpZHRoOjEuMDsiIHgxPSIxMDgiIHgyPSIxNTAiIHkxPSIxMzcuODEyNSIgeTI9IjEzNy44MTI1Ii8+PGxpbmUgc3R5bGU9InN0cm9rZTojMTgxODE4O3N0cm9rZS13aWR0aDoxLjA7IiB4MT0iMTUwIiB4Mj0iMTUwIiB5MT0iMTM3LjgxMjUiIHkyPSIxNTAuODEyNSIvPjxsaW5lIHN0eWxlPSJzdHJva2U6IzE4MTgxODtzdHJva2Utd2lkdGg6MS4wOyIgeDE9IjEwOSIgeDI9IjE1MCIgeTE9IjE1MC44MTI1IiB5Mj0iMTUwLjgxMjUiLz48cG9seWdvbiBmaWxsPSIjMTgxODE4IiBwb2ludHM9IjExOSwxNDYuODEyNSwxMDksMTUwLjgxMjUsMTE5LDE1NC44MTI1LDExNSwxNTAuODEyNSIgc3R5bGU9InN0cm9rZTojMTgxODE4O3N0cm9rZS13aWR0aDoxLjA7Ii8+PHRleHQgZmlsbD0iIzAwMDAwMCIgZm9udC1mYW1pbHk9InNhbnMtc2VyaWYiIGZvbnQtc2l6ZT0iMTMiIGxlbmd0aEFkanVzdD0ic3BhY2luZyIgdGV4dExlbmd0aD0iNTIiIHg9IjExNSIgeT0iMTM0LjE4NzUiPiYjMjExNTI7JiMyMzQ5NDsmIzI1OTkxOyYjMjY3MjM7PC90ZXh0Pjxwb2x5Z29uIGZpbGw9IiMxODE4MTgiIHBvaW50cz0iMzMsMTc0LjcyNjYsMjMsMTc4LjcyNjYsMzMsMTgyLjcyNjYsMjksMTc4LjcyNjYiIHN0eWxlPSJzdHJva2U6IzE4MTgxODtzdHJva2Utd2lkdGg6MS4wOyIvPjxsaW5lIHN0eWxlPSJzdHJva2U6IzE4MTgxODtzdHJva2Utd2lkdGg6MS4wO3N0cm9rZS1kYXNoYXJyYXk6Mi4wLDIuMDsiIHgxPSIyNyIgeDI9Ijk3IiB5MT0iMTc4LjcyNjYiIHkyPSIxNzguNzI2NiIvPjx0ZXh0IGZpbGw9IiMwMDAwMDAiIGZvbnQtZmFtaWx5PSJzYW5zLXNlcmlmIiBmb250LXNpemU9IjEzIiBsZW5ndGhBZGp1c3Q9InNwYWNpbmciIHRleHRMZW5ndGg9IjUyIiB4PSIzOSIgeT0iMTc1LjEwMTYiPiYjMjMzODQ7JiMyMDY0ODsmIzI1MTA0OyYjMjExNTE7PC90ZXh0Pjxwb2x5Z29uIGZpbGw9IiMxODE4MTgiIHBvaW50cz0iMjI0LDIwMi42NDA2LDIzNCwyMDYuNjQwNiwyMjQsMjEwLjY0MDYsMjI4LDIwNi42NDA2IiBzdHlsZT0ic3Ryb2tlOiMxODE4MTg7c3Ryb2tlLXdpZHRoOjEuMDsiLz48bGluZSBzdHlsZT0ic3Ryb2tlOiMxODE4MTg7c3Ryb2tlLXdpZHRoOjEuMDsiIHgxPSIxMDMiIHgyPSIyMzAiIHkxPSIyMDYuNjQwNiIgeTI9IjIwNi42NDA2Ii8+PHRleHQgZmlsbD0iIzAwMDAwMCIgZm9udC1mYW1pbHk9InNhbnMtc2VyaWYiIGZvbnQtc2l6ZT0iMTMiIGxlbmd0aEFkanVzdD0ic3BhY2luZyIgdGV4dExlbmd0aD0iNzgiIHg9IjExMCIgeT0iMjAzLjAxNTYiPiYjMzU3NjA7JiMyNDQwNTsmIzI1OTkxOyYjMjY3MjM7JiMyMzM4NDsmIzIwNjQ4OzwvdGV4dD48cG9seWdvbiBmaWxsPSIjMTgxODE4IiBwb2ludHM9Ijg2LDIzMC41NTQ3LDk2LDIzNC41NTQ3LDg2LDIzOC41NTQ3LDkwLDIzNC41NTQ3IiBzdHlsZT0ic3Ryb2tlOiMxODE4MTg7c3Ryb2tlLXdpZHRoOjEuMDsiLz48bGluZSBzdHlsZT0ic3Ryb2tlOiMxODE4MTg7c3Ryb2tlLXdpZHRoOjEuMDsiIHgxPSIyMiIgeDI9IjkyIiB5MT0iMjM0LjU1NDciIHkyPSIyMzQuNTU0NyIvPjx0ZXh0IGZpbGw9IiMwMDAwMDAiIGZvbnQtZmFtaWx5PSJzYW5zLXNlcmlmIiBmb250LXNpemU9IjEzIiBsZW5ndGhBZGp1c3Q9InNwYWNpbmciIHRleHRMZW5ndGg9IjUyIiB4PSIyOSIgeT0iMjMwLjkyOTciPiYjMjMzODQ7JiMyMDY0ODsmIzI1OTkxOyYjMjY3MjM7PC90ZXh0PjxsaW5lIHN0eWxlPSJzdHJva2U6IzE4MTgxODtzdHJva2Utd2lkdGg6MS4wOyIgeDE9IjEwOCIgeDI9IjE1MCIgeTE9IjI2Mi40Njg4IiB5Mj0iMjYyLjQ2ODgiLz48bGluZSBzdHlsZT0ic3Ryb2tlOiMxODE4MTg7c3Ryb2tlLXdpZHRoOjEuMDsiIHgxPSIxNTAiIHgyPSIxNTAiIHkxPSIyNjIuNDY4OCIgeTI9IjI3NS40Njg4Ii8+PGxpbmUgc3R5bGU9InN0cm9rZTojMTgxODE4O3N0cm9rZS13aWR0aDoxLjA7IiB4MT0iMTA5IiB4Mj0iMTUwIiB5MT0iMjc1LjQ2ODgiIHkyPSIyNzUuNDY4OCIvPjxwb2x5Z29uIGZpbGw9IiMxODE4MTgiIHBvaW50cz0iMTE5LDI3MS40Njg4LDEwOSwyNzUuNDY4OCwxMTksMjc5LjQ2ODgsMTE1LDI3NS40Njg4IiBzdHlsZT0ic3Ryb2tlOiMxODE4MTg7c3Ryb2tlLXdpZHRoOjEuMDsiLz48dGV4dCBmaWxsPSIjMDAwMDAwIiBmb250LWZhbWlseT0ic2Fucy1zZXJpZiIgZm9udC1zaXplPSIxMyIgbGVuZ3RoQWRqdXN0PSJzcGFjaW5nIiB0ZXh0TGVuZ3RoPSI1MiIgeD0iMTE1IiB5PSIyNTguODQzOCI+JiMyMTE1MjsmIzIzNDk0OyYjMjU5OTE7JiMyNjcyMzs8L3RleHQ+PHBvbHlnb24gZmlsbD0iIzE4MTgxOCIgcG9pbnRzPSIzMywyOTkuMzgyOCwyMywzMDMuMzgyOCwzMywzMDcuMzgyOCwyOSwzMDMuMzgyOCIgc3R5bGU9InN0cm9rZTojMTgxODE4O3N0cm9rZS13aWR0aDoxLjA7Ii8+PGxpbmUgc3R5bGU9InN0cm9rZTojMTgxODE4O3N0cm9rZS13aWR0aDoxLjA7c3Ryb2tlLWRhc2hhcnJheToyLjAsMi4wOyIgeDE9IjI3IiB4Mj0iOTciIHkxPSIzMDMuMzgyOCIgeTI9IjMwMy4zODI4Ii8+PHRleHQgZmlsbD0iIzAwMDAwMCIgZm9udC1mYW1pbHk9InNhbnMtc2VyaWYiIGZvbnQtc2l6ZT0iMTMiIGxlbmd0aEFkanVzdD0ic3BhY2luZyIgdGV4dExlbmd0aD0iNTIiIHg9IjM5IiB5PSIyOTkuNzU3OCI+JiMyMzM4NDsmIzIwNjQ4OyYjMjI4MzM7JiMzNjEzMzs8L3RleHQ+PHBvbHlnb24gZmlsbD0iIzE4MTgxOCIgcG9pbnRzPSIyMjQsMzI3LjI5NjksMjM0LDMzMS4yOTY5LDIyNCwzMzUuMjk2OSwyMjgsMzMxLjI5NjkiIHN0eWxlPSJzdHJva2U6IzE4MTgxODtzdHJva2Utd2lkdGg6MS4wOyIvPjxsaW5lIHN0eWxlPSJzdHJva2U6IzE4MTgxODtzdHJva2Utd2lkdGg6MS4wOyIgeDE9IjEwMyIgeDI9IjIzMCIgeTE9IjMzMS4yOTY5IiB5Mj0iMzMxLjI5NjkiLz48dGV4dCBmaWxsPSIjMDAwMDAwIiBmb250LWZhbWlseT0ic2Fucy1zZXJpZiIgZm9udC1zaXplPSIxMyIgbGVuZ3RoQWRqdXN0PSJzcGFjaW5nIiB0ZXh0TGVuZ3RoPSIxMDQiIHg9IjExMCIgeT0iMzI3LjY3MTkiPiYjMzU3NjA7JiMyNDQwNTsmIzI1OTkxOyYjMjY3MjM7JiMyMzM4NDsmIzIwNjQ4OyYjMjI4MzM7JiMzNjEzMzs8L3RleHQ+PCEtLVNSQz1bS3FuOUpTbENJcks4U2RLRVNWSHB6dDVMSUN2OUIyeGN1YWZDQmlhbEtXV2pKWXRZQWFXaUFpYkNwWW44cDJqSEs3Z3dobERmd3VmZHF6Z1ZCTHB5VEVzQ2ZxcWhiMUdJWW5NMkt2REJZcjlUeWZEQlNyRnBJZUExVVhGSkt0dHBLcWZwS2o3ckJ0b25SazZwd0trVnhmeUVya2JPY2Y5UHVmRVZwaUs1aWFuMXJtd1ZNTE9BNDNpWHplQ1NjTGNNTTlBQXJ0ZXlTZUhqd3JobVQ3cVJyM1F5MVc1RDBoYVZ4aTJFMksteHZYRW82LVB0QXVLTndwT3l0SmlMRUxZdktiQTl5andtMmhRZElwUS1zQkFLYWMyM2NhMVN1MDQwXS0tPjwvZz48L3N2Zz4=;" vertex="1" parent="1">
            <mxGeometry x="-760.5" y="3930" width="340.5" height="526.12" as="geometry" />
          </mxCell>
        </UserObject>
        <UserObject label="" plantUmlData="{&#xa;  &quot;data&quot;: &quot;@startuml\n!define RECTANGLE class\n\nactor User\nparticipant \&quot;报警和通知\&quot; as AlertNotificationModule\nparticipant \&quot;审计日志\&quot; as AuditLog\n\nUser -&gt; AlertNotificationModule: 触发报警\nactivate AlertNotificationModule\nAlertNotificationModule -&gt; AlertNotificationModule: 处理报警\nAlertNotificationModule --&gt; User: 发送通知\nAlertNotificationModule -&gt; AuditLog: 记录报警和通知\ndeactivate AlertNotificationModule\n@enduml\n&quot;,&#xa;  &quot;format&quot;: &quot;svg&quot;&#xa;}" id="M7jX5-5myOD5qC9-YFXW-33">
          <mxCell style="shape=image;noLabel=1;verticalAlign=top;aspect=fixed;imageAspect=0;image=data:image/svg+xml,PD94bWwgdmVyc2lvbj0iMS4wIiBlbmNvZGluZz0idXMtYXNjaWkiIHN0YW5kYWxvbmU9Im5vIj8+PHN2ZyB4bWxucz0iaHR0cDovL3d3dy53My5vcmcvMjAwMC9zdmciIHhtbG5zOnhsaW5rPSJodHRwOi8vd3d3LnczLm9yZy8xOTk5L3hsaW5rIiBjb250ZW50U3R5bGVUeXBlPSJ0ZXh0L2NzcyIgaGVpZ2h0PSIzMDRweCIgcHJlc2VydmVBc3BlY3RSYXRpbz0ibm9uZSIgc3R5bGU9IndpZHRoOjI2NHB4O2hlaWdodDozMDRweDtiYWNrZ3JvdW5kOiNGRkZGRkY7IiB2ZXJzaW9uPSIxLjEiIHZpZXdCb3g9IjAgMCAyNjQgMzA0IiB3aWR0aD0iMjY0cHgiIHpvb21BbmRQYW49Im1hZ25pZnkiPjxkZWZzLz48Zz48cmVjdCBmaWxsPSIjRkZGRkZGIiBoZWlnaHQ9Ijk2Ljc0MjIiIHN0eWxlPSJzdHJva2U6IzE4MTgxODtzdHJva2Utd2lkdGg6MS4wOyIgd2lkdGg9IjEwIiB4PSI5OCIgeT0iMTA5Ljg5ODQiLz48bGluZSBzdHlsZT0ic3Ryb2tlOiMxODE4MTg7c3Ryb2tlLXdpZHRoOjAuNTtzdHJva2UtZGFzaGFycmF5OjUuMCw1LjA7IiB4MT0iMjIiIHgyPSIyMiIgeTE9Ijc5Ljk4NDQiIHkyPSIyMjQuNjQwNiIvPjxsaW5lIHN0eWxlPSJzdHJva2U6IzE4MTgxODtzdHJva2Utd2lkdGg6MC41O3N0cm9rZS1kYXNoYXJyYXk6NS4wLDUuMDsiIHgxPSIxMDMiIHgyPSIxMDMiIHkxPSI3OS45ODQ0IiB5Mj0iMjI0LjY0MDYiLz48bGluZSBzdHlsZT0ic3Ryb2tlOiMxODE4MTg7c3Ryb2tlLXdpZHRoOjAuNTtzdHJva2UtZGFzaGFycmF5OjUuMCw1LjA7IiB4MT0iMjIzIiB4Mj0iMjIzIiB5MT0iNzkuOTg0NCIgeTI9IjIyNC42NDA2Ii8+PHRleHQgZmlsbD0iIzAwMDAwMCIgZm9udC1mYW1pbHk9InNhbnMtc2VyaWYiIGZvbnQtc2l6ZT0iMTQiIGxlbmd0aEFkanVzdD0ic3BhY2luZyIgdGV4dExlbmd0aD0iMjgiIHg9IjUiIHk9Ijc4LjIzNDQiPlVzZXI8L3RleHQ+PGVsbGlwc2UgY3g9IjIyIiBjeT0iMTMuNSIgZmlsbD0iI0UyRTJGMCIgcng9IjgiIHJ5PSI4IiBzdHlsZT0ic3Ryb2tlOiMxODE4MTg7c3Ryb2tlLXdpZHRoOjAuNTsiLz48cGF0aCBkPSJNMjIsMjEuNSBMMjIsNDguNSBNOSwyOS41IEwzNSwyOS41IE0yMiw0OC41IEw5LDYzLjUgTTIyLDQ4LjUgTDM1LDYzLjUgIiBmaWxsPSJub25lIiBzdHlsZT0ic3Ryb2tlOiMxODE4MTg7c3Ryb2tlLXdpZHRoOjAuNTsiLz48dGV4dCBmaWxsPSIjMDAwMDAwIiBmb250LWZhbWlseT0ic2Fucy1zZXJpZiIgZm9udC1zaXplPSIxNCIgbGVuZ3RoQWRqdXN0PSJzcGFjaW5nIiB0ZXh0TGVuZ3RoPSIyOCIgeD0iNSIgeT0iMjM2Ljg3NSI+VXNlcjwvdGV4dD48ZWxsaXBzZSBjeD0iMjIiIGN5PSIyNDcuMTI1IiBmaWxsPSIjRTJFMkYwIiByeD0iOCIgcnk9IjgiIHN0eWxlPSJzdHJva2U6IzE4MTgxODtzdHJva2Utd2lkdGg6MC41OyIvPjxwYXRoIGQ9Ik0yMiwyNTUuMTI1IEwyMiwyODIuMTI1IE05LDI2My4xMjUgTDM1LDI2My4xMjUgTTIyLDI4Mi4xMjUgTDksMjk3LjEyNSBNMjIsMjgyLjEyNSBMMzUsMjk3LjEyNSAiIGZpbGw9Im5vbmUiIHN0eWxlPSJzdHJva2U6IzE4MTgxODtzdHJva2Utd2lkdGg6MC41OyIvPjxyZWN0IGZpbGw9IiNFMkUyRjAiIGhlaWdodD0iMjguOTg0NCIgcng9IjIuNSIgcnk9IjIuNSIgc3R5bGU9InN0cm9rZTojMTgxODE4O3N0cm9rZS13aWR0aDowLjU7IiB3aWR0aD0iODQiIHg9IjYxIiB5PSI1MCIvPjx0ZXh0IGZpbGw9IiMwMDAwMDAiIGZvbnQtZmFtaWx5PSJzYW5zLXNlcmlmIiBmb250LXNpemU9IjE0IiBsZW5ndGhBZGp1c3Q9InNwYWNpbmciIHRleHRMZW5ndGg9IjcwIiB4PSI2OCIgeT0iNzAuMjM0NCI+JiMyNTI1MzsmIzM1Njg2OyYjMjE2NDQ7JiMzNjg5MDsmIzMwNjkzOzwvdGV4dD48cmVjdCBmaWxsPSIjRTJFMkYwIiBoZWlnaHQ9IjI4Ljk4NDQiIHJ4PSIyLjUiIHJ5PSIyLjUiIHN0eWxlPSJzdHJva2U6IzE4MTgxODtzdHJva2Utd2lkdGg6MC41OyIgd2lkdGg9Ijg0IiB4PSI2MSIgeT0iMjIzLjY0MDYiLz48dGV4dCBmaWxsPSIjMDAwMDAwIiBmb250LWZhbWlseT0ic2Fucy1zZXJpZiIgZm9udC1zaXplPSIxNCIgbGVuZ3RoQWRqdXN0PSJzcGFjaW5nIiB0ZXh0TGVuZ3RoPSI3MCIgeD0iNjgiIHk9IjI0My44NzUiPiYjMjUyNTM7JiMzNTY4NjsmIzIxNjQ0OyYjMzY4OTA7JiMzMDY5Mzs8L3RleHQ+PHJlY3QgZmlsbD0iI0UyRTJGMCIgaGVpZ2h0PSIyOC45ODQ0IiByeD0iMi41IiByeT0iMi41IiBzdHlsZT0ic3Ryb2tlOiMxODE4MTg7c3Ryb2tlLXdpZHRoOjAuNTsiIHdpZHRoPSI3MCIgeD0iMTg4IiB5PSI1MCIvPjx0ZXh0IGZpbGw9IiMwMDAwMDAiIGZvbnQtZmFtaWx5PSJzYW5zLXNlcmlmIiBmb250LXNpemU9IjE0IiBsZW5ndGhBZGp1c3Q9InNwYWNpbmciIHRleHRMZW5ndGg9IjU2IiB4PSIxOTUiIHk9IjcwLjIzNDQiPiYjMjM0NTc7JiMzNTc0NTsmIzI2MDg1OyYjMjQ1MzU7PC90ZXh0PjxyZWN0IGZpbGw9IiNFMkUyRjAiIGhlaWdodD0iMjguOTg0NCIgcng9IjIuNSIgcnk9IjIuNSIgc3R5bGU9InN0cm9rZTojMTgxODE4O3N0cm9rZS13aWR0aDowLjU7IiB3aWR0aD0iNzAiIHg9IjE4OCIgeT0iMjIzLjY0MDYiLz48dGV4dCBmaWxsPSIjMDAwMDAwIiBmb250LWZhbWlseT0ic2Fucy1zZXJpZiIgZm9udC1zaXplPSIxNCIgbGVuZ3RoQWRqdXN0PSJzcGFjaW5nIiB0ZXh0TGVuZ3RoPSI1NiIgeD0iMTk1IiB5PSIyNDMuODc1Ij4mIzIzNDU3OyYjMzU3NDU7JiMyNjA4NTsmIzI0NTM1OzwvdGV4dD48cmVjdCBmaWxsPSIjRkZGRkZGIiBoZWlnaHQ9Ijk2Ljc0MjIiIHN0eWxlPSJzdHJva2U6IzE4MTgxODtzdHJva2Utd2lkdGg6MS4wOyIgd2lkdGg9IjEwIiB4PSI5OCIgeT0iMTA5Ljg5ODQiLz48cG9seWdvbiBmaWxsPSIjMTgxODE4IiBwb2ludHM9Ijg2LDEwNS44OTg0LDk2LDEwOS44OTg0LDg2LDExMy44OTg0LDkwLDEwOS44OTg0IiBzdHlsZT0ic3Ryb2tlOiMxODE4MTg7c3Ryb2tlLXdpZHRoOjEuMDsiLz48bGluZSBzdHlsZT0ic3Ryb2tlOiMxODE4MTg7c3Ryb2tlLXdpZHRoOjEuMDsiIHgxPSIyMiIgeDI9IjkyIiB5MT0iMTA5Ljg5ODQiIHkyPSIxMDkuODk4NCIvPjx0ZXh0IGZpbGw9IiMwMDAwMDAiIGZvbnQtZmFtaWx5PSJzYW5zLXNlcmlmIiBmb250LXNpemU9IjEzIiBsZW5ndGhBZGp1c3Q9InNwYWNpbmciIHRleHRMZW5ndGg9IjUyIiB4PSIyOSIgeT0iMTA2LjI3MzQiPiYjMzUzMDI7JiMyMTQ1NzsmIzI1MjUzOyYjMzU2ODY7PC90ZXh0PjxsaW5lIHN0eWxlPSJzdHJva2U6IzE4MTgxODtzdHJva2Utd2lkdGg6MS4wOyIgeDE9IjEwOCIgeDI9IjE1MCIgeTE9IjEzNy44MTI1IiB5Mj0iMTM3LjgxMjUiLz48bGluZSBzdHlsZT0ic3Ryb2tlOiMxODE4MTg7c3Ryb2tlLXdpZHRoOjEuMDsiIHgxPSIxNTAiIHgyPSIxNTAiIHkxPSIxMzcuODEyNSIgeTI9IjE1MC44MTI1Ii8+PGxpbmUgc3R5bGU9InN0cm9rZTojMTgxODE4O3N0cm9rZS13aWR0aDoxLjA7IiB4MT0iMTA5IiB4Mj0iMTUwIiB5MT0iMTUwLjgxMjUiIHkyPSIxNTAuODEyNSIvPjxwb2x5Z29uIGZpbGw9IiMxODE4MTgiIHBvaW50cz0iMTE5LDE0Ni44MTI1LDEwOSwxNTAuODEyNSwxMTksMTU0LjgxMjUsMTE1LDE1MC44MTI1IiBzdHlsZT0ic3Ryb2tlOiMxODE4MTg7c3Ryb2tlLXdpZHRoOjEuMDsiLz48dGV4dCBmaWxsPSIjMDAwMDAwIiBmb250LWZhbWlseT0ic2Fucy1zZXJpZiIgZm9udC1zaXplPSIxMyIgbGVuZ3RoQWRqdXN0PSJzcGFjaW5nIiB0ZXh0TGVuZ3RoPSI1MiIgeD0iMTE1IiB5PSIxMzQuMTg3NSI+JiMyMjc4ODsmIzI5NzAyOyYjMjUyNTM7JiMzNTY4Njs8L3RleHQ+PHBvbHlnb24gZmlsbD0iIzE4MTgxOCIgcG9pbnRzPSIzMywxNzQuNzI2NiwyMywxNzguNzI2NiwzMywxODIuNzI2NiwyOSwxNzguNzI2NiIgc3R5bGU9InN0cm9rZTojMTgxODE4O3N0cm9rZS13aWR0aDoxLjA7Ii8+PGxpbmUgc3R5bGU9InN0cm9rZTojMTgxODE4O3N0cm9rZS13aWR0aDoxLjA7c3Ryb2tlLWRhc2hhcnJheToyLjAsMi4wOyIgeDE9IjI3IiB4Mj0iOTciIHkxPSIxNzguNzI2NiIgeTI9IjE3OC43MjY2Ii8+PHRleHQgZmlsbD0iIzAwMDAwMCIgZm9udC1mYW1pbHk9InNhbnMtc2VyaWYiIGZvbnQtc2l6ZT0iMTMiIGxlbmd0aEFkanVzdD0ic3BhY2luZyIgdGV4dExlbmd0aD0iNTIiIHg9IjM5IiB5PSIxNzUuMTAxNiI+JiMyMTQ1NzsmIzM2ODY1OyYjMzY4OTA7JiMzMDY5Mzs8L3RleHQ+PHBvbHlnb24gZmlsbD0iIzE4MTgxOCIgcG9pbnRzPSIyMTEsMjAyLjY0MDYsMjIxLDIwNi42NDA2LDIxMSwyMTAuNjQwNiwyMTUsMjA2LjY0MDYiIHN0eWxlPSJzdHJva2U6IzE4MTgxODtzdHJva2Utd2lkdGg6MS4wOyIvPjxsaW5lIHN0eWxlPSJzdHJva2U6IzE4MTgxODtzdHJva2Utd2lkdGg6MS4wOyIgeDE9IjEwMyIgeDI9IjIxNyIgeTE9IjIwNi42NDA2IiB5Mj0iMjA2LjY0MDYiLz48dGV4dCBmaWxsPSIjMDAwMDAwIiBmb250LWZhbWlseT0ic2Fucy1zZXJpZiIgZm9udC1zaXplPSIxMyIgbGVuZ3RoQWRqdXN0PSJzcGFjaW5nIiB0ZXh0TGVuZ3RoPSI5MSIgeD0iMTEwIiB5PSIyMDMuMDE1NiI+JiMzNTc2MDsmIzI0NDA1OyYjMjUyNTM7JiMzNTY4NjsmIzIxNjQ0OyYjMzY4OTA7JiMzMDY5Mzs8L3RleHQ+PCEtLVNSQz1bS3FuOUpTbENJcks4U2RLRVNWSHB6dDVMSUN2OUIyeGN1YWZDQmlhbEtXV2pKWXRZQWFXaUFpYkNwWW44cDJqSEs3aE1qVko1c2NMRjlfTXlSOVpyVkZ2STlPTjRPV043ZERJWTRoX3lhaW9xcEVKNGFpcHlGRF95YkRBU0w1SURKelNqVkI1a3VSRmZJdl9rZG14SExQZ0lNVUFKZHl4NTFSOTVHVFNFYnBiTTJZLU1CdGxRRm41WURTWGJjTU05OVFhdWhTS1haalU2ZnFqUWRhemVXemcwcW0yVzJJMnQwZk50SnRwUHEwVzkwaHBzR1ZxOHpDQXczS190SmFLQkZRd0tMNEEtMEcwMF0tLT48L2c+PC9zdmc+;" vertex="1" parent="1">
            <mxGeometry x="-760.5" y="4500" width="330.5" height="380.58" as="geometry" />
          </mxCell>
        </UserObject>
        <UserObject label="" plantUmlData="{&#xa;  &quot;data&quot;: &quot;@startuml\n!define RECTANGLE class\n\nactor User\nparticipant \&quot;审计和监控\&quot; as AuditMonitoringModule\nparticipant \&quot;审计日志\&quot; as AuditLog\n\nUser -&gt; AuditMonitoringModule: 执行操作\nactivate AuditMonitoringModule\nAuditMonitoringModule -&gt; AuditMonitoringModule: 记录操作\nAuditMonitoringModule --&gt; User: 操作成功\nAuditMonitoringModule -&gt; AuditLog: 记录操作成功\ndeactivate AuditMonitoringModule\n\nUser -&gt; AuditMonitoringModule: 执行操作\nactivate AuditMonitoringModule\nAuditMonitoringModule -&gt; AuditMonitoringModule: 记录操作\nAuditMonitoringModule --&gt; User: 操作失败\nAuditMonitoringModule -&gt; AuditLog: 记录操作失败\ndeactivate AuditMonitoringModule\n@enduml\n&quot;,&#xa;  &quot;format&quot;: &quot;svg&quot;&#xa;}" id="M7jX5-5myOD5qC9-YFXW-34">
          <mxCell style="shape=image;noLabel=1;verticalAlign=top;aspect=fixed;imageAspect=0;image=data:image/svg+xml,PD94bWwgdmVyc2lvbj0iMS4wIiBlbmNvZGluZz0idXMtYXNjaWkiIHN0YW5kYWxvbmU9Im5vIj8+PHN2ZyB4bWxucz0iaHR0cDovL3d3dy53My5vcmcvMjAwMC9zdmciIHhtbG5zOnhsaW5rPSJodHRwOi8vd3d3LnczLm9yZy8xOTk5L3hsaW5rIiBjb250ZW50U3R5bGVUeXBlPSJ0ZXh0L2NzcyIgaGVpZ2h0PSI0MjhweCIgcHJlc2VydmVBc3BlY3RSYXRpbz0ibm9uZSIgc3R5bGU9IndpZHRoOjI1MXB4O2hlaWdodDo0MjhweDtiYWNrZ3JvdW5kOiNGRkZGRkY7IiB2ZXJzaW9uPSIxLjEiIHZpZXdCb3g9IjAgMCAyNTEgNDI4IiB3aWR0aD0iMjUxcHgiIHpvb21BbmRQYW49Im1hZ25pZnkiPjxkZWZzLz48Zz48cmVjdCBmaWxsPSIjRkZGRkZGIiBoZWlnaHQ9Ijk2Ljc0MjIiIHN0eWxlPSJzdHJva2U6IzE4MTgxODtzdHJva2Utd2lkdGg6MS4wOyIgd2lkdGg9IjEwIiB4PSI5OCIgeT0iMTA5Ljg5ODQiLz48cmVjdCBmaWxsPSIjRkZGRkZGIiBoZWlnaHQ9Ijk2Ljc0MjIiIHN0eWxlPSJzdHJva2U6IzE4MTgxODtzdHJva2Utd2lkdGg6MS4wOyIgd2lkdGg9IjEwIiB4PSI5OCIgeT0iMjM0LjU1NDciLz48bGluZSBzdHlsZT0ic3Ryb2tlOiMxODE4MTg7c3Ryb2tlLXdpZHRoOjAuNTtzdHJva2UtZGFzaGFycmF5OjUuMCw1LjA7IiB4MT0iMjIiIHgyPSIyMiIgeTE9Ijc5Ljk4NDQiIHkyPSIzNDkuMjk2OSIvPjxsaW5lIHN0eWxlPSJzdHJva2U6IzE4MTgxODtzdHJva2Utd2lkdGg6MC41O3N0cm9rZS1kYXNoYXJyYXk6NS4wLDUuMDsiIHgxPSIxMDMiIHgyPSIxMDMiIHkxPSI3OS45ODQ0IiB5Mj0iMzQ5LjI5NjkiLz48bGluZSBzdHlsZT0ic3Ryb2tlOiMxODE4MTg7c3Ryb2tlLXdpZHRoOjAuNTtzdHJva2UtZGFzaGFycmF5OjUuMCw1LjA7IiB4MT0iMjEwIiB4Mj0iMjEwIiB5MT0iNzkuOTg0NCIgeTI9IjM0OS4yOTY5Ii8+PHRleHQgZmlsbD0iIzAwMDAwMCIgZm9udC1mYW1pbHk9InNhbnMtc2VyaWYiIGZvbnQtc2l6ZT0iMTQiIGxlbmd0aEFkanVzdD0ic3BhY2luZyIgdGV4dExlbmd0aD0iMjgiIHg9IjUiIHk9Ijc4LjIzNDQiPlVzZXI8L3RleHQ+PGVsbGlwc2UgY3g9IjIyIiBjeT0iMTMuNSIgZmlsbD0iI0UyRTJGMCIgcng9IjgiIHJ5PSI4IiBzdHlsZT0ic3Ryb2tlOiMxODE4MTg7c3Ryb2tlLXdpZHRoOjAuNTsiLz48cGF0aCBkPSJNMjIsMjEuNSBMMjIsNDguNSBNOSwyOS41IEwzNSwyOS41IE0yMiw0OC41IEw5LDYzLjUgTTIyLDQ4LjUgTDM1LDYzLjUgIiBmaWxsPSJub25lIiBzdHlsZT0ic3Ryb2tlOiMxODE4MTg7c3Ryb2tlLXdpZHRoOjAuNTsiLz48dGV4dCBmaWxsPSIjMDAwMDAwIiBmb250LWZhbWlseT0ic2Fucy1zZXJpZiIgZm9udC1zaXplPSIxNCIgbGVuZ3RoQWRqdXN0PSJzcGFjaW5nIiB0ZXh0TGVuZ3RoPSIyOCIgeD0iNSIgeT0iMzYxLjUzMTMiPlVzZXI8L3RleHQ+PGVsbGlwc2UgY3g9IjIyIiBjeT0iMzcxLjc4MTMiIGZpbGw9IiNFMkUyRjAiIHJ4PSI4IiByeT0iOCIgc3R5bGU9InN0cm9rZTojMTgxODE4O3N0cm9rZS13aWR0aDowLjU7Ii8+PHBhdGggZD0iTTIyLDM3OS43ODEzIEwyMiw0MDYuNzgxMyBNOSwzODcuNzgxMyBMMzUsMzg3Ljc4MTMgTTIyLDQwNi43ODEzIEw5LDQyMS43ODEzIE0yMiw0MDYuNzgxMyBMMzUsNDIxLjc4MTMgIiBmaWxsPSJub25lIiBzdHlsZT0ic3Ryb2tlOiMxODE4MTg7c3Ryb2tlLXdpZHRoOjAuNTsiLz48cmVjdCBmaWxsPSIjRTJFMkYwIiBoZWlnaHQ9IjI4Ljk4NDQiIHJ4PSIyLjUiIHJ5PSIyLjUiIHN0eWxlPSJzdHJva2U6IzE4MTgxODtzdHJva2Utd2lkdGg6MC41OyIgd2lkdGg9Ijg0IiB4PSI2MSIgeT0iNTAiLz48dGV4dCBmaWxsPSIjMDAwMDAwIiBmb250LWZhbWlseT0ic2Fucy1zZXJpZiIgZm9udC1zaXplPSIxNCIgbGVuZ3RoQWRqdXN0PSJzcGFjaW5nIiB0ZXh0TGVuZ3RoPSI3MCIgeD0iNjgiIHk9IjcwLjIzNDQiPiYjMjM0NTc7JiMzNTc0NTsmIzIxNjQ0OyYjMzA0MTc7JiMyNTUxMTs8L3RleHQ+PHJlY3QgZmlsbD0iI0UyRTJGMCIgaGVpZ2h0PSIyOC45ODQ0IiByeD0iMi41IiByeT0iMi41IiBzdHlsZT0ic3Ryb2tlOiMxODE4MTg7c3Ryb2tlLXdpZHRoOjAuNTsiIHdpZHRoPSI4NCIgeD0iNjEiIHk9IjM0OC4yOTY5Ii8+PHRleHQgZmlsbD0iIzAwMDAwMCIgZm9udC1mYW1pbHk9InNhbnMtc2VyaWYiIGZvbnQtc2l6ZT0iMTQiIGxlbmd0aEFkanVzdD0ic3BhY2luZyIgdGV4dExlbmd0aD0iNzAiIHg9IjY4IiB5PSIzNjguNTMxMyI+JiMyMzQ1NzsmIzM1NzQ1OyYjMjE2NDQ7JiMzMDQxNzsmIzI1NTExOzwvdGV4dD48cmVjdCBmaWxsPSIjRTJFMkYwIiBoZWlnaHQ9IjI4Ljk4NDQiIHJ4PSIyLjUiIHJ5PSIyLjUiIHN0eWxlPSJzdHJva2U6IzE4MTgxODtzdHJva2Utd2lkdGg6MC41OyIgd2lkdGg9IjcwIiB4PSIxNzUiIHk9IjUwIi8+PHRleHQgZmlsbD0iIzAwMDAwMCIgZm9udC1mYW1pbHk9InNhbnMtc2VyaWYiIGZvbnQtc2l6ZT0iMTQiIGxlbmd0aEFkanVzdD0ic3BhY2luZyIgdGV4dExlbmd0aD0iNTYiIHg9IjE4MiIgeT0iNzAuMjM0NCI+JiMyMzQ1NzsmIzM1NzQ1OyYjMjYwODU7JiMyNDUzNTs8L3RleHQ+PHJlY3QgZmlsbD0iI0UyRTJGMCIgaGVpZ2h0PSIyOC45ODQ0IiByeD0iMi41IiByeT0iMi41IiBzdHlsZT0ic3Ryb2tlOiMxODE4MTg7c3Ryb2tlLXdpZHRoOjAuNTsiIHdpZHRoPSI3MCIgeD0iMTc1IiB5PSIzNDguMjk2OSIvPjx0ZXh0IGZpbGw9IiMwMDAwMDAiIGZvbnQtZmFtaWx5PSJzYW5zLXNlcmlmIiBmb250LXNpemU9IjE0IiBsZW5ndGhBZGp1c3Q9InNwYWNpbmciIHRleHRMZW5ndGg9IjU2IiB4PSIxODIiIHk9IjM2OC41MzEzIj4mIzIzNDU3OyYjMzU3NDU7JiMyNjA4NTsmIzI0NTM1OzwvdGV4dD48cmVjdCBmaWxsPSIjRkZGRkZGIiBoZWlnaHQ9Ijk2Ljc0MjIiIHN0eWxlPSJzdHJva2U6IzE4MTgxODtzdHJva2Utd2lkdGg6MS4wOyIgd2lkdGg9IjEwIiB4PSI5OCIgeT0iMTA5Ljg5ODQiLz48cmVjdCBmaWxsPSIjRkZGRkZGIiBoZWlnaHQ9Ijk2Ljc0MjIiIHN0eWxlPSJzdHJva2U6IzE4MTgxODtzdHJva2Utd2lkdGg6MS4wOyIgd2lkdGg9IjEwIiB4PSI5OCIgeT0iMjM0LjU1NDciLz48cG9seWdvbiBmaWxsPSIjMTgxODE4IiBwb2ludHM9Ijg2LDEwNS44OTg0LDk2LDEwOS44OTg0LDg2LDExMy44OTg0LDkwLDEwOS44OTg0IiBzdHlsZT0ic3Ryb2tlOiMxODE4MTg7c3Ryb2tlLXdpZHRoOjEuMDsiLz48bGluZSBzdHlsZT0ic3Ryb2tlOiMxODE4MTg7c3Ryb2tlLXdpZHRoOjEuMDsiIHgxPSIyMiIgeDI9IjkyIiB5MT0iMTA5Ljg5ODQiIHkyPSIxMDkuODk4NCIvPjx0ZXh0IGZpbGw9IiMwMDAwMDAiIGZvbnQtZmFtaWx5PSJzYW5zLXNlcmlmIiBmb250LXNpemU9IjEzIiBsZW5ndGhBZGp1c3Q9InNwYWNpbmciIHRleHRMZW5ndGg9IjUyIiB4PSIyOSIgeT0iMTA2LjI3MzQiPiYjMjUxOTE7JiMzNDg5MjsmIzI1ODA1OyYjMjAzMTY7PC90ZXh0PjxsaW5lIHN0eWxlPSJzdHJva2U6IzE4MTgxODtzdHJva2Utd2lkdGg6MS4wOyIgeDE9IjEwOCIgeDI9IjE1MCIgeTE9IjEzNy44MTI1IiB5Mj0iMTM3LjgxMjUiLz48bGluZSBzdHlsZT0ic3Ryb2tlOiMxODE4MTg7c3Ryb2tlLXdpZHRoOjEuMDsiIHgxPSIxNTAiIHgyPSIxNTAiIHkxPSIxMzcuODEyNSIgeTI9IjE1MC44MTI1Ii8+PGxpbmUgc3R5bGU9InN0cm9rZTojMTgxODE4O3N0cm9rZS13aWR0aDoxLjA7IiB4MT0iMTA5IiB4Mj0iMTUwIiB5MT0iMTUwLjgxMjUiIHkyPSIxNTAuODEyNSIvPjxwb2x5Z29uIGZpbGw9IiMxODE4MTgiIHBvaW50cz0iMTE5LDE0Ni44MTI1LDEwOSwxNTAuODEyNSwxMTksMTU0LjgxMjUsMTE1LDE1MC44MTI1IiBzdHlsZT0ic3Ryb2tlOiMxODE4MTg7c3Ryb2tlLXdpZHRoOjEuMDsiLz48dGV4dCBmaWxsPSIjMDAwMDAwIiBmb250LWZhbWlseT0ic2Fucy1zZXJpZiIgZm9udC1zaXplPSIxMyIgbGVuZ3RoQWRqdXN0PSJzcGFjaW5nIiB0ZXh0TGVuZ3RoPSI1MiIgeD0iMTE1IiB5PSIxMzQuMTg3NSI+JiMzNTc2MDsmIzI0NDA1OyYjMjU4MDU7JiMyMDMxNjs8L3RleHQ+PHBvbHlnb24gZmlsbD0iIzE4MTgxOCIgcG9pbnRzPSIzMywxNzQuNzI2NiwyMywxNzguNzI2NiwzMywxODIuNzI2NiwyOSwxNzguNzI2NiIgc3R5bGU9InN0cm9rZTojMTgxODE4O3N0cm9rZS13aWR0aDoxLjA7Ii8+PGxpbmUgc3R5bGU9InN0cm9rZTojMTgxODE4O3N0cm9rZS13aWR0aDoxLjA7c3Ryb2tlLWRhc2hhcnJheToyLjAsMi4wOyIgeDE9IjI3IiB4Mj0iOTciIHkxPSIxNzguNzI2NiIgeTI9IjE3OC43MjY2Ii8+PHRleHQgZmlsbD0iIzAwMDAwMCIgZm9udC1mYW1pbHk9InNhbnMtc2VyaWYiIGZvbnQtc2l6ZT0iMTMiIGxlbmd0aEFkanVzdD0ic3BhY2luZyIgdGV4dExlbmd0aD0iNTIiIHg9IjM5IiB5PSIxNzUuMTAxNiI+JiMyNTgwNTsmIzIwMzE2OyYjMjUxMDQ7JiMyMTE1MTs8L3RleHQ+PHBvbHlnb24gZmlsbD0iIzE4MTgxOCIgcG9pbnRzPSIxOTgsMjAyLjY0MDYsMjA4LDIwNi42NDA2LDE5OCwyMTAuNjQwNiwyMDIsMjA2LjY0MDYiIHN0eWxlPSJzdHJva2U6IzE4MTgxODtzdHJva2Utd2lkdGg6MS4wOyIvPjxsaW5lIHN0eWxlPSJzdHJva2U6IzE4MTgxODtzdHJva2Utd2lkdGg6MS4wOyIgeDE9IjEwMyIgeDI9IjIwNCIgeTE9IjIwNi42NDA2IiB5Mj0iMjA2LjY0MDYiLz48dGV4dCBmaWxsPSIjMDAwMDAwIiBmb250LWZhbWlseT0ic2Fucy1zZXJpZiIgZm9udC1zaXplPSIxMyIgbGVuZ3RoQWRqdXN0PSJzcGFjaW5nIiB0ZXh0TGVuZ3RoPSI3OCIgeD0iMTEwIiB5PSIyMDMuMDE1NiI+JiMzNTc2MDsmIzI0NDA1OyYjMjU4MDU7JiMyMDMxNjsmIzI1MTA0OyYjMjExNTE7PC90ZXh0Pjxwb2x5Z29uIGZpbGw9IiMxODE4MTgiIHBvaW50cz0iODYsMjMwLjU1NDcsOTYsMjM0LjU1NDcsODYsMjM4LjU1NDcsOTAsMjM0LjU1NDciIHN0eWxlPSJzdHJva2U6IzE4MTgxODtzdHJva2Utd2lkdGg6MS4wOyIvPjxsaW5lIHN0eWxlPSJzdHJva2U6IzE4MTgxODtzdHJva2Utd2lkdGg6MS4wOyIgeDE9IjIyIiB4Mj0iOTIiIHkxPSIyMzQuNTU0NyIgeTI9IjIzNC41NTQ3Ii8+PHRleHQgZmlsbD0iIzAwMDAwMCIgZm9udC1mYW1pbHk9InNhbnMtc2VyaWYiIGZvbnQtc2l6ZT0iMTMiIGxlbmd0aEFkanVzdD0ic3BhY2luZyIgdGV4dExlbmd0aD0iNTIiIHg9IjI5IiB5PSIyMzAuOTI5NyI+JiMyNTE5MTsmIzM0ODkyOyYjMjU4MDU7JiMyMDMxNjs8L3RleHQ+PGxpbmUgc3R5bGU9InN0cm9rZTojMTgxODE4O3N0cm9rZS13aWR0aDoxLjA7IiB4MT0iMTA4IiB4Mj0iMTUwIiB5MT0iMjYyLjQ2ODgiIHkyPSIyNjIuNDY4OCIvPjxsaW5lIHN0eWxlPSJzdHJva2U6IzE4MTgxODtzdHJva2Utd2lkdGg6MS4wOyIgeDE9IjE1MCIgeDI9IjE1MCIgeTE9IjI2Mi40Njg4IiB5Mj0iMjc1LjQ2ODgiLz48bGluZSBzdHlsZT0ic3Ryb2tlOiMxODE4MTg7c3Ryb2tlLXdpZHRoOjEuMDsiIHgxPSIxMDkiIHgyPSIxNTAiIHkxPSIyNzUuNDY4OCIgeTI9IjI3NS40Njg4Ii8+PHBvbHlnb24gZmlsbD0iIzE4MTgxOCIgcG9pbnRzPSIxMTksMjcxLjQ2ODgsMTA5LDI3NS40Njg4LDExOSwyNzkuNDY4OCwxMTUsMjc1LjQ2ODgiIHN0eWxlPSJzdHJva2U6IzE4MTgxODtzdHJva2Utd2lkdGg6MS4wOyIvPjx0ZXh0IGZpbGw9IiMwMDAwMDAiIGZvbnQtZmFtaWx5PSJzYW5zLXNlcmlmIiBmb250LXNpemU9IjEzIiBsZW5ndGhBZGp1c3Q9InNwYWNpbmciIHRleHRMZW5ndGg9IjUyIiB4PSIxMTUiIHk9IjI1OC44NDM4Ij4mIzM1NzYwOyYjMjQ0MDU7JiMyNTgwNTsmIzIwMzE2OzwvdGV4dD48cG9seWdvbiBmaWxsPSIjMTgxODE4IiBwb2ludHM9IjMzLDI5OS4zODI4LDIzLDMwMy4zODI4LDMzLDMwNy4zODI4LDI5LDMwMy4zODI4IiBzdHlsZT0ic3Ryb2tlOiMxODE4MTg7c3Ryb2tlLXdpZHRoOjEuMDsiLz48bGluZSBzdHlsZT0ic3Ryb2tlOiMxODE4MTg7c3Ryb2tlLXdpZHRoOjEuMDtzdHJva2UtZGFzaGFycmF5OjIuMCwyLjA7IiB4MT0iMjciIHgyPSI5NyIgeTE9IjMwMy4zODI4IiB5Mj0iMzAzLjM4MjgiLz48dGV4dCBmaWxsPSIjMDAwMDAwIiBmb250LWZhbWlseT0ic2Fucy1zZXJpZiIgZm9udC1zaXplPSIxMyIgbGVuZ3RoQWRqdXN0PSJzcGFjaW5nIiB0ZXh0TGVuZ3RoPSI1MiIgeD0iMzkiIHk9IjI5OS43NTc4Ij4mIzI1ODA1OyYjMjAzMTY7JiMyMjgzMzsmIzM2MTMzOzwvdGV4dD48cG9seWdvbiBmaWxsPSIjMTgxODE4IiBwb2ludHM9IjE5OCwzMjcuMjk2OSwyMDgsMzMxLjI5NjksMTk4LDMzNS4yOTY5LDIwMiwzMzEuMjk2OSIgc3R5bGU9InN0cm9rZTojMTgxODE4O3N0cm9rZS13aWR0aDoxLjA7Ii8+PGxpbmUgc3R5bGU9InN0cm9rZTojMTgxODE4O3N0cm9rZS13aWR0aDoxLjA7IiB4MT0iMTAzIiB4Mj0iMjA0IiB5MT0iMzMxLjI5NjkiIHkyPSIzMzEuMjk2OSIvPjx0ZXh0IGZpbGw9IiMwMDAwMDAiIGZvbnQtZmFtaWx5PSJzYW5zLXNlcmlmIiBmb250LXNpemU9IjEzIiBsZW5ndGhBZGp1c3Q9InNwYWNpbmciIHRleHRMZW5ndGg9Ijc4IiB4PSIxMTAiIHk9IjMyNy42NzE5Ij4mIzM1NzYwOyYjMjQ0MDU7JiMyNTgwNTsmIzIwMzE2OyYjMjI4MzM7JiMzNjEzMzs8L3RleHQ+PCEtLVNSQz1bS3FuOUpTbENJcks4U2RLRVNWSHB6dDVMSUN2OUIyeGN1YWZDQmlhbEtXV2pKWXRZQWFXaUFpYkNwWW44cDJqSEs3Z3dSazZCVEdrVkprZnZGZGxZaXh4YklXZzluR2dFZkljUDlSeHZVUGIwQlBidndSeHZBUUt2Z1RZcUZQay16RWQtd0dXekZsZGZONW1XRW5IcXhSMlJPZ05taDdGdll1S3pwb1J0RmpheDEtSWdwQkI0YWJHU0xjOExuTUZzWXRLUmRrd1QyWktSWHNRV1JmMEJXR3UxQXRsTUNVNWZydG0yRFc3elhNZXVMNVRBQVc0RjNCNzBVQmZhdXVpaklxYUQzQVdrR2U0MTAwMDBdLS0+PC9nPjwvc3ZnPg==;" vertex="1" parent="1">
            <mxGeometry x="-765.25" y="4970" width="330.5" height="563.56" as="geometry" />
          </mxCell>
        </UserObject>
      </root>
    </mxGraphModel>
  </diagram>
</mxfile>
